<mxfile host="app.diagrams.net" agent="Mozilla/5.0 (Windows NT 10.0; Win64; x64) AppleWebKit/537.36 (KHTML, like Gecko) Chrome/135.0.0.0 Safari/537.36" version="26.2.13">
  <diagram id="prtHgNgQTEPvFCAcTncT" name="Page-1">
    <mxGraphModel dx="1327" dy="1107" grid="0" gridSize="10" guides="1" tooltips="1" connect="1" arrows="1" fold="1" page="0" pageScale="1" pageWidth="827" pageHeight="1169" math="0" shadow="1">
      <root>
        <mxCell id="0" />
        <mxCell id="1" parent="0" />
        <mxCell id="l_rsb31kOrhmw8Uxe1vl-1" value="" style="shape=image;verticalLabelPosition=bottom;labelBackgroundColor=default;verticalAlign=top;aspect=fixed;imageAspect=0;image=https://cdn.tobebetterjavaer.com/tobebetterjavaer/images/sidebar/sanfene/spring-df77ee15-2ff0-4ec7-8e65-e4ebb8ba88f1.png;" vertex="1" parent="1">
          <mxGeometry x="102" y="-185" width="772.4" height="259.66" as="geometry" />
        </mxCell>
        <mxCell id="l_rsb31kOrhmw8Uxe1vl-25" value="" style="rounded=1;whiteSpace=wrap;html=1;" vertex="1" parent="1">
          <mxGeometry x="105" y="118" width="763" height="320" as="geometry" />
        </mxCell>
        <mxCell id="l_rsb31kOrhmw8Uxe1vl-27" value="&lt;font style=&quot;font-size: 15px;&quot;&gt;SpringBoot自动配置原理&lt;/font&gt;" style="text;strokeColor=none;fillColor=none;html=1;fontSize=24;fontStyle=1;verticalAlign=middle;align=center;" vertex="1" parent="1">
          <mxGeometry x="349" y="113" width="211" height="41" as="geometry" />
        </mxCell>
        <mxCell id="l_rsb31kOrhmw8Uxe1vl-32" value="" style="group" vertex="1" connectable="0" parent="1">
          <mxGeometry x="122" y="163" width="151" height="219" as="geometry" />
        </mxCell>
        <mxCell id="l_rsb31kOrhmw8Uxe1vl-29" value="" style="rounded=1;whiteSpace=wrap;html=1;" vertex="1" parent="l_rsb31kOrhmw8Uxe1vl-32">
          <mxGeometry width="151" height="219" as="geometry" />
        </mxCell>
        <mxCell id="l_rsb31kOrhmw8Uxe1vl-26" value="SpringBoot注解" style="rounded=1;whiteSpace=wrap;html=1;align=center;" vertex="1" parent="l_rsb31kOrhmw8Uxe1vl-32">
          <mxGeometry x="22.870000000000005" y="14" width="99" height="27" as="geometry" />
        </mxCell>
        <mxCell id="l_rsb31kOrhmw8Uxe1vl-45" value="" style="edgeStyle=orthogonalEdgeStyle;rounded=0;orthogonalLoop=1;jettySize=auto;html=1;" edge="1" parent="l_rsb31kOrhmw8Uxe1vl-32" source="l_rsb31kOrhmw8Uxe1vl-30" target="l_rsb31kOrhmw8Uxe1vl-31">
          <mxGeometry relative="1" as="geometry" />
        </mxCell>
        <mxCell id="l_rsb31kOrhmw8Uxe1vl-30" value="&lt;font style=&quot;font-size: 11px;&quot;&gt;@SpringBootApplication&lt;/font&gt;" style="rounded=1;whiteSpace=wrap;html=1;" vertex="1" parent="l_rsb31kOrhmw8Uxe1vl-32">
          <mxGeometry x="5.6200000000000045" y="69" width="139.75" height="40" as="geometry" />
        </mxCell>
        <mxCell id="l_rsb31kOrhmw8Uxe1vl-31" value="&lt;font style=&quot;font-size: 11px;&quot;&gt;@EnableAutoConfiguration&lt;/font&gt;" style="rounded=1;whiteSpace=wrap;html=1;" vertex="1" parent="l_rsb31kOrhmw8Uxe1vl-32">
          <mxGeometry x="5.6200000000000045" y="136" width="139.75" height="36" as="geometry" />
        </mxCell>
        <mxCell id="l_rsb31kOrhmw8Uxe1vl-33" value="" style="rounded=1;whiteSpace=wrap;html=1;" vertex="1" parent="1">
          <mxGeometry x="310" y="163" width="148" height="223" as="geometry" />
        </mxCell>
        <mxCell id="l_rsb31kOrhmw8Uxe1vl-34" value="Spring类导入" style="rounded=1;whiteSpace=wrap;html=1;" vertex="1" parent="1">
          <mxGeometry x="334" y="177" width="100" height="27" as="geometry" />
        </mxCell>
        <mxCell id="l_rsb31kOrhmw8Uxe1vl-35" value="&lt;font style=&quot;font-size: 11px;&quot;&gt;@Import&lt;/font&gt;" style="rounded=1;whiteSpace=wrap;html=1;" vertex="1" parent="1">
          <mxGeometry x="344" y="230" width="80" height="25" as="geometry" />
        </mxCell>
        <mxCell id="l_rsb31kOrhmw8Uxe1vl-36" value="ImportSelector" style="rounded=1;whiteSpace=wrap;html=1;" vertex="1" parent="1">
          <mxGeometry x="326.5" y="295" width="115" height="35" as="geometry" />
        </mxCell>
        <mxCell id="l_rsb31kOrhmw8Uxe1vl-37" value="" style="rounded=1;whiteSpace=wrap;html=1;" vertex="1" parent="1">
          <mxGeometry x="490" y="163" width="363" height="226" as="geometry" />
        </mxCell>
        <mxCell id="l_rsb31kOrhmw8Uxe1vl-48" value="" style="edgeStyle=orthogonalEdgeStyle;rounded=0;orthogonalLoop=1;jettySize=auto;html=1;entryX=0;entryY=0.5;entryDx=0;entryDy=0;" edge="1" parent="1" source="l_rsb31kOrhmw8Uxe1vl-36" target="l_rsb31kOrhmw8Uxe1vl-39">
          <mxGeometry relative="1" as="geometry">
            <Array as="points">
              <mxPoint x="476" y="313" />
              <mxPoint x="476" y="245" />
            </Array>
          </mxGeometry>
        </mxCell>
        <mxCell id="l_rsb31kOrhmw8Uxe1vl-53" value="收集导入类" style="edgeLabel;html=1;align=center;verticalAlign=middle;resizable=0;points=[];" vertex="1" connectable="0" parent="l_rsb31kOrhmw8Uxe1vl-48">
          <mxGeometry x="-0.0604" y="2" relative="1" as="geometry">
            <mxPoint x="7" y="-1" as="offset" />
          </mxGeometry>
        </mxCell>
        <mxCell id="l_rsb31kOrhmw8Uxe1vl-38" value="AutoConfigurationImportSelector" style="rounded=1;whiteSpace=wrap;html=1;" vertex="1" parent="1">
          <mxGeometry x="550" y="174" width="233" height="33" as="geometry" />
        </mxCell>
        <mxCell id="l_rsb31kOrhmw8Uxe1vl-49" value="" style="edgeStyle=orthogonalEdgeStyle;rounded=0;orthogonalLoop=1;jettySize=auto;html=1;" edge="1" parent="1" source="l_rsb31kOrhmw8Uxe1vl-39" target="l_rsb31kOrhmw8Uxe1vl-41">
          <mxGeometry relative="1" as="geometry" />
        </mxCell>
        <mxCell id="l_rsb31kOrhmw8Uxe1vl-39" value="selectImports" style="rounded=1;whiteSpace=wrap;html=1;" vertex="1" parent="1">
          <mxGeometry x="523.5" y="230" width="97" height="29" as="geometry" />
        </mxCell>
        <mxCell id="l_rsb31kOrhmw8Uxe1vl-52" value="" style="edgeStyle=orthogonalEdgeStyle;rounded=0;orthogonalLoop=1;jettySize=auto;html=1;entryX=0;entryY=0.5;entryDx=0;entryDy=0;" edge="1" parent="1" source="l_rsb31kOrhmw8Uxe1vl-41" target="l_rsb31kOrhmw8Uxe1vl-42">
          <mxGeometry relative="1" as="geometry" />
        </mxCell>
        <mxCell id="l_rsb31kOrhmw8Uxe1vl-54" value="读取META-INF/spring.factories&lt;br&gt;获取自动配置类路径" style="edgeLabel;html=1;align=center;verticalAlign=middle;resizable=0;points=[];" vertex="1" connectable="0" parent="l_rsb31kOrhmw8Uxe1vl-52">
          <mxGeometry x="0.1693" y="-1" relative="1" as="geometry">
            <mxPoint as="offset" />
          </mxGeometry>
        </mxCell>
        <mxCell id="l_rsb31kOrhmw8Uxe1vl-41" value="getAutoConfigurationEntry" style="rounded=1;whiteSpace=wrap;html=1;" vertex="1" parent="1">
          <mxGeometry x="496.5" y="304" width="151" height="30" as="geometry" />
        </mxCell>
        <mxCell id="l_rsb31kOrhmw8Uxe1vl-50" value="" style="edgeStyle=orthogonalEdgeStyle;rounded=0;orthogonalLoop=1;jettySize=auto;html=1;" edge="1" parent="1" source="l_rsb31kOrhmw8Uxe1vl-42" target="l_rsb31kOrhmw8Uxe1vl-43">
          <mxGeometry relative="1" as="geometry" />
        </mxCell>
        <mxCell id="l_rsb31kOrhmw8Uxe1vl-42" value="getCandidateConfigurations" style="rounded=1;whiteSpace=wrap;html=1;" vertex="1" parent="1">
          <mxGeometry x="680" y="229" width="160" height="31" as="geometry" />
        </mxCell>
        <mxCell id="l_rsb31kOrhmw8Uxe1vl-43" value="去重/排除" style="rounded=1;whiteSpace=wrap;html=1;" vertex="1" parent="1">
          <mxGeometry x="712" y="304" width="96" height="28" as="geometry" />
        </mxCell>
        <mxCell id="l_rsb31kOrhmw8Uxe1vl-47" value="" style="edgeStyle=orthogonalEdgeStyle;rounded=0;orthogonalLoop=1;jettySize=auto;html=1;entryX=0;entryY=0.5;entryDx=0;entryDy=0;" edge="1" parent="1" source="l_rsb31kOrhmw8Uxe1vl-31" target="l_rsb31kOrhmw8Uxe1vl-35">
          <mxGeometry relative="1" as="geometry">
            <Array as="points">
              <mxPoint x="294" y="317" />
              <mxPoint x="294" y="242" />
            </Array>
          </mxGeometry>
        </mxCell>
        <mxCell id="l_rsb31kOrhmw8Uxe1vl-56" value="" style="shape=image;verticalLabelPosition=bottom;labelBackgroundColor=default;verticalAlign=top;aspect=fixed;imageAspect=0;image=data:image/jpeg,iVBORw0KGgoAAAANSUhEUgAAA2AAAANACAIAAADCXJnFAAAACXBIWXMAAA7EAAAOxAGVKw4bAAAgAElEQVR4nOy9e7RuS1XYOeesWt/6vv04j3vOuZc3gsEHYkDlJQKCDpFOMLaAY3QHO0ZEI8YO8RE6Q1vpZCR2O4ZBm0jT2tGkRfBJA4IxAvYg2C2C6RhfUYzyEHld7r3nsR/ft9aqmrP/mOurvfb3rFrfOfvsfU79BuOyz96rVs01q2bVrFkvPDw8NMYURYGIEIeINE0DANZaIopMpVRVBQBlWSalAoD777///PnzSQmDnIYMmVg5EVFEgpz6z8i07NmzR8SiKOLlVLVcv3798uXLKkD4b0zCHvpkZuccAESWu4iExyaTCRElfSAiNk1z/fr13d3dwWCQJGrTNM65ra2tpFTeeRYmpFDu8dX78PDQWpsqZ13Xe3t7F85fMNbEPB8qFXtWUSMThuRN04hIURRnwgZPrK3Qut21wRj7RcTJZHL9+vV77703Pi+tVCdmg93WSRvtpByrqrp27drMB67NmpmbplF96sOr9RleqDZojEkt95OxQf0K/a/3Xpu4JJVuUrf39va2t7cRMbJd0ry893t7e2fCBpPqjBJs8L777kvK7sTk1EqyiQ2Ox+P9/f0rV66kyjnTpkXSrx8UERE5ODjY3d1NNt1MJpPJZDKZzJ1NdhAzmUwmk8lkMsewRGTIxE/AaZQyaRq0S4/phplMeyRBSks784HxaZEQBQmTvxGnpGq1nz4R0ZCJz6v7mDGGkFLLQpP0KERDRkzsFP9RdoZQ+mSnH6jKSQIRiQgpuqpMBQuipmZnyLDwmbHBdDl7JAk5dm0wvpL3qzCbyNnPBonImOQqSkRa9KmN4UyFiRWYkDi5oVBOwAZn2jRhiTfe8IakVnQmbVJlC8/3mLK/XTbY/cAkG+yXY49UoTGMl7P75CY2mESoackJCQ0kV1F92FoLABYRWRg5oSx1inpmadpaQipCYubUKhuSx3MkJ4tgbFpdYdD9wPh8hUVEGFhLJVXUbkYxpaDK7K6ciF/RAgBa7jF+cHf9EyEhJehEE7KqJr0Qgw1HfmN3aVGqPluVdrJLqp/MLCyRQfkgW1fU+LVoofTjbTAk1Dpz0jaY0lZ0BU5Fc+zaYOT6px71s9tW9JOzh2accyISX9MCOkhzzmnH1l10tdb2RWQm4TLCX4WFheMHP11tnIANHmsoeEE3sVonbRF0XpVUiKH045UTiqBdN+k80qzvvjqvE7bBbo5JNtgvxx6pQjMYKWd4pp8Neufnh1szLBRgpr/uCrP6VaGKMnC8vavlEpF33tZ1PeNHr0isf9KlnamLXlubYo7Ma4bJZKJbRph57cMzciYNuLubVFIdRO+9VjjvfbxhENFkyoxm5vUz71ggIjTHPnwtPcqitwWGTSqTyaQoipjim89Xl/OHt/WQM9JB7F0/67qeTCbjcjyzjniZPJvIOd/Wp3qW3VQnY4NJbcWMDRLRTLVfQVjQrTYY2eXM2GC8nGGBfGpbETapeO9nhkAr8gr69NaTS/MQmbmqqvF4rLGB7mtX0Hpd0/q2NgZJRKoH3UQVH/HavH4us8H5XBZmN5PXWgexd1thjJlMJsaYmIBZt9zrumZmY4xWnrXhqJtog6l1Wzd/aN2+1TZ4YnJqeWmqtgKk2KCWQlVVKz5wlYM4rW9BmBV5bdK/qL0DQA11XoOYyWQymUwmkzmGHQwGOpueNMWsAbkeEUTvvc5Rpo66hsPhcDhMOvggyNnjmBsVrN8xN/FHV3RFraqqHJTxmmlHFZ51HVsQPkpOZg0jd+eMIqeY2XOPNZ3GmKqqUkswnAJTFEWPKeakxSVh+KhVVFUa/5lE1DTNaDhKPeamK2pSIFCnDyKnmRYmTLJBESnLsizLwWCQNK+tk2I9juMJNpiUqvcxN2qDw+EwScJuW9FDzh5thbWWma2xSeci6QxXWZaj0Sh1ijmcAtPtJpYRHtCQTLftjbRcnQe/1TY4P8XcbUiTppjD+upIOUN3lnTMjcZinXNqg0lTzD36a6V33daqknrMTQ8b7L5c++tbJ2d4RoO4hS1W+BXz9lXYwrN3zq34wGURxG5/3X3/CuaraNIUszYytrXhlHrTb9GrpvLes3BBacf59Fu+uskmlX5zB2SIhXusmQ2iJk0B6LoEADCY1lUgooAQxi6Y7bpZLExMZNMaGmOMNnCpmtGaGq/SoyVQ0zOrIjMKDzdNQyZZzt6bVFJFDXXSs2dhizYi0bGEjW8AINUGu0L20GqqPvslCTn22KSiE3a9LTeV3pqx1jZNk7qjQk1JRKy1qYsT9LGZhGshJIaEwWRXG957MH2atX6bVIBAN6nEi4qIQOCd36RvSrUja21VVZoqfnhwhjap9N7D0fsDUzepBFvQ+eL48ZIWmavc6vU5y16Y1F+HVzG0eYWEUQITkNBkMjGlsczs0ZMktIybLHpNXYI2n2mPJN3Vx/Ejtk2ETNVMG15lT5I2aO6nT80LACLLvfs53nshUTkT9MlHKxuSYGbvfXKq6enTPQ7K1rVrPbYZ9duk0vugbM9eq83J2KCGkVKrt3RIlfOmb1JZG8E6yQXyqcrsDv3VKFK7UuZ2rJW6eSvsZ0rLrt2yl9b2hghijxx7b1JpQ6QSG4wPb9BWNDUA0XuTikZzeyzjPj2bVG6FDW7okCzcpLLwPbM2iD70g8uYeU+wwSS0pvXplXS7CVKqDepGnDNzDuImOyQymUwmk8lkMkmcGQexO0q43eJkMncd2e4ymUzmriJ2AdPtJay1bP+ZMkWSyWQ2JzuImUwmc1dxNiKI4Zjl3FFlMreFbHeZTCZzV5G8hP+2cFY6p1Ouxswdxlmxi8zdSa6fmdNM7q/XcjYiiJlMJpPJZDKZE8MSUb97oE+Y7llHp9bx12OrM3ch06Nzk6/h3oQeZ4ZtwibnjS1jYZBp/j70m5Xd3UzY6ndi1UZPJUw98GvhvdhLz4frPHNbbHCFPMtoP5AF6MwHsRYf7MySeg5it9xvjaQL6NFfd52QVFdkvlaffggR428ZyWQymUwmk8nc8ZCh9bcnZSLpcb1BJtObszUYzdxt9K6fp3ma6LaTNXOzyP31Wih3M5lMJpPJnH7yiovMSWIb1wxokOtcJpPJpDKzVjJ+sK0ndy28jmxZRt3VmamLmTSh3kQX7t3qJ2dUqsCSq/aWCa9yxl8dexdCSNlNXEFvG1xrUxvaYGuA6af1pbYVoW7o+YAMjJK4VnKaI7WXV2YymUwmc7vJ3s8KRAQpYRySyWwCqZt5u8XIZDKZTAbyGsTVIGKO6WROBnLONU2Tmsw555zrkZ/33nvfI+FtkbPHQM05V9d1aqq6rnt83Yb67CEnADRN0y/hSVI3dfjv6adf0dd17b2vqio14QnboMrZo870M966rnvL2a+t6Cdn4xrvfW85e+TonOtR7nXTX5/e+zNhg9qm9ftGJTVhPwPsnVArTA85m6bpo5a+daZpmn4fqHKeWH/d2+q9933atKbu1+32rtihV8KrV68i4v7+vvfeGGPMqhOkmJmZiWh7e5uIJpNJfHF67xFxd3cXAPb29kRkdV5dxuOxtXZra0tEVE2rj/IKcu7s7CDieDwOpbL2DLCunNevX086M8wYMxwOReTg4EAFWD0O1go9GAyI6PDw0Dk3GAwiV94w84w+40VNlZOIwsuLoiAi9Uu6yymYl8ahy7J0zl2/fn1nZydSwm7W3VUXK3IJDxPRYDCoqqosS60tuvJjRdqu6kJ2q/OagZn39vbOnz9fFMVqg9S8ugcKDgaDuq7nZVhIWPsyGAzUiOIbDh3zbG1tAcDh4SEirrXBoI3JZEJEW1tb2iNaa61ddZO7ej+IqG0FIi70ZRe26d57Ztbasr+/v7Zd6lKWpRaH1m1r7eoFbdonFUUxHA5Vwvi8euizK6fWscPDQxGx1q5Oq10LIgYjSuowqqra2dm5du0aM2ujEYm2SNpWqJyR7cxgMNC2JcgZswZR/6TmUBRFzPl54ee6rvf29i5cuLC6ZnYThhZY57W7lhtpg9rghG9c66O0S7uItDTXKlPFYGatqKoW/VhjjP68jOCO7OzsaEbx48kZGySihfVz4feWZakL9fb390VEu4wVeTVN45yz1pZlWVXVsryWpQ1yXr9+XY0xEkQsikJtkJmNMaHmLCz9YIODwUDtIqntdc6NRqODgwMtuPgYebdNi2krQqGokF05YwxKsdZ671HbNfWojFlz5E1YlTnTbccQclXvO2kSYTweN00zGo3KstTOPl5OIgorQ+MVFORMWigddKJ+c4yDqJ1KVVXj8dgYMxqNInPU3iXIuTavTeQMK3O7yYMYa7Mzxjjnrl27tru7G9N2d+mu/Y/8wIWPxciZlMsMTdMEBzHGs5zR4Yw5xHROkc93UUPQxkUHQpH9k4iMx2Pv/Wg0MsY0TbO2EWdmNXNtVWIOOu6mDXVbB0KpZzurdWibttpB1HiqllpMpzsjZ6o+59+gNmitXV2I8U8uRMW7evXq1taWNjLxaH3T3Nf2ESs4GQdRbXCtMDN7BfrZoD7WLfRIB1HrZ3fgvYyug6jd/HA4DDa4ujkVEe3CulYQSdcGtX9Z+IbVm40i64xzTvPSqYbBYJBkgxrb0kqe+qXL6vayTmQTfaoaDw4Otra24j+wm7uOSNfmvqISRvo/2oURkU11ZkOREJKxyQfW6xAtyc0HgMIWn7n/M9ba4BFHyiksepR/aqPWT04A8M6zcFmWSRVIBweX7rmUpNJQX3XEdqvlnKl2STkaMmVZlmWZVIIhZBh/gce8bcTLmZpXF40ilGUZb/m99dnbQezWGQ1+RKYKEUG1wcg490zjm9TB9K7boXUikzBkUouYTCbnz5+PT7KJPjUhESXZ4CZuYlVVxpjt7e2kzqlbECdzBYtOhoRQWTxE1DTNaDiKb0VXOIhrEwYHMbXcw0ZRpNgRhboFRVEcHByoAcYXR+86E2ODi29SEWltcBhrg955Y01VVZPJJCnCHbxndZ1Tu13VzHA4nJFzhdi99emdb1xjjOnxgUn63NxB1EWuSGi994ZMkl/i20VMHgCSEoaCTHXAWbjHlH9Ya1XY4mTk1BqgPycl1JUQqZdEiUiQs0dNjZdTRNgzEgqLZ68On1agmPaRmZ13PZa+aQulkxRrff3uoQMqpz5JSHoi/NoITUhFSKnjCp0l0Sq6tmNTfeoZBGG0bcjE3EumSYIm9esiT3zVjFRIdaHWBjy6EwXj8Tj491of1uYY1vKGqPzRh0zboPDzUaaEYXZM1RLzdYpGIxjZgtU7otbOHujvnXd1XSetK+ihz0AwB0ISjDovQ3cnaGhnXp+rIaKg0qRvDNNqhAQ0e7XdQiHDX9Vm5/+0mu4ZIt23LXs4/Kya8exJotq0bsVjYS3BGAnD182niqwAGv8jJgZerZZggEpYSKrzfjFpQ6g76QO7dVv7l5lPW/GlwQYLKmLOfgpbs3UU2mMpYdvRF0XSrKZOowdXb+2xNSF2EGJsaTZoyE3a4ks95oaZBSUUX2TyTXa7O+8GZmC7HUCkAbeT04ipB5GHqcweE0ZhHVL8IQgqZ3iD/hCTtrec2sGntt1qgcaY7qg0JtVJyqkeNgOza1ulUPprS6TfzZXdeYqyLGHdJ3bf3/gmeIeRrh4RAYEBc3h4aK0d2LRIZ1EUuiwvJuyh91uSniHg2bM3ZOZd2IWdsT6js/YiQiat0Q9ZrB0yzbQM3cAqIhprIhvT0J/NjtFN5/3HWxKt2Dr4UbXEt3TzH5jml3Tc1phYcrw+ZyAkHWPrB0Z+o+ZSc917LUSPOWIVT6vZWjmPnBLPqSPe1GVLN4twXBxB1NIpVQgDixMvPvW+aY10lmWZmnDGEiPrTL8pkbX9y4oFAyHHsN56tZxEFCK4yX0Zzppq/JcaY9STmf+iZVPMKqQh051uiiTmbvHVrJ4Bn0dtsDswiF+zoZqxep96qqC95xp6J4xfHH1TsuudsN8BDT3mU0LCHqk2kbNd2Rld4Vp/gkzMgpubBSGlhgRuI8vatYW6nXWz0vuYyN0w8w/MrFWNH8boAO+WyhnQgVaPut0OI6Jdww3lnJ9eXJ02NNxkCF2f4VZYNpq2OMSYmUhVWqfIktRWLBtPRrYzyQNRFW06sZHUAffWiYb02th/uk565BuG9D380dV5LYxoEJJQnzUw/eIIvf2t/v2gIWlESzAtYcpWgQASIveRswdtLtQGZc9A97khGr4+mbxOpgg3JykkM8NZOaP1JMt9EzY59vYky2KTun2SRx9vUrd7dxj9MjoTpnQ3tBWbcFaO9T4rcp4kZ0UhG9rgJv3gne8gZm46PUZOmUwmk8ncGZyVAMSGpC2Vy6yG/Z15J82K5SaZk2HhYPfEpuxvHadzEH86pTolRK7n3vCCrjPaziTMpaZP+J5CFi+DIRS/+O7gW/HJvd8501+f0Sp3SznzHUzm5LkbRk6ZTCaTySxk7RbyO4M730E80fVPZ8Rz2mRNQ9IZGbeRs7Lm5m5Y45XXIC7M6EwU31mR83ZxVtqZsyLnSXI39Ncblvud7yBmbjq5oclkMpnMXctd4nBnBzGTyWQymUwmc4zsIGYymUwmk8lkjpEdxEwmk8lkMpnMMWjh+eyZzOnhDjjMJZPZkNBE6+KnfBbpTUSv4zxJlRpjhO+KRWyZQLip73YLksBJn4PY+wrCmdtgk1Kd2NU9PYTsJuwh6oZXDG1yQWdadoQ9EuqO6R4O4iZ3E/WuMEl9zMw9VP320214oWdqqn718+TbxH6d/W2Rs0emekdqjwqzSWN4kspJym7WjvoVPWHSndHd7PqphYg8+x6Z9mATOW9iod/S+nNTut34e0f76dN73/u+2d4Vu0c/2NWGZWb23L2BdG1KvdRe79kUTNh9jYjhkJSkbds8Jf78Ic2rm7D7CZFyqssfLyr7IyH1CtqYVPOixjeO/fQZfK9UOUXEe99Dn957TZgkp/dei0DlXPuZQRjNK1XOIGq8TgKanWdPEmXG3fczs2Y6/6eFEgYbFJEkG9QSTKozIbtu/exRsZP0qXK2jUyiDbb6RE9CM4f0rsgulOAJyxlvg10he7e93nv2nHpBuTa5Qc6k+snCKGn9k1a2GYNdlumMHcXbYOjCur9kiG0xNqzb3cYtzd479S0mr27vmdqm9e5fhGeNIoi9TKvzTybRozsL/XWo22v7ixAC7KfP8P4eZyh227T4ou/XD7Z2ywwAtmmasGE70kFk5qZp9EXECW0NImpCY0yScpsp1tpI5RoyzrumaYJv0f2ESDk16JVQ4Zidc/qzNdazX5eiFTV8YLyQm+hTVapqiZezKIqmaZxzQc54fTrnNGGSYXjvnXP6dZEOIiGxsGbX47b4oii0BFMNWIsvlP5auh+iNqjlqN3GioRdG9Qn421QK3NSnQn9U6iihS0iK4y2pE3TeO+tTZisCAnVBlP99aCZeAfRmFkbjJQz6DO1rUi1wQ3bXmtta7yuSUqocoZYfrf/XnyLBiIhefbOOWY2xoT+KdKmVKWI2G23YxzEJBtc6GbFtxjd/sWYhEBgqDMiYoyJdBCDHSXZYDdtqpyb9C+ao+YeU2fa+kzUwwaVfm1FV05rrPNHNWeFg6im1ENOfb5HP3isjyATU/TWWu09e/SDWl5aZ5a22gu1rKXYHcSsKIzun0J77b0Pg6e1ggb0U0MUKvIjw/OaqRIf8QqzOfGiao5hVjTyTOkgaggjJYW7eugzJEmSU7PTguj+Miah1tSgn0icc6oca23MuFlEGFhE5vOKV6laVJKcoehnrHG1qN203dBCTFGGobY60JFChhhwfJ0JPlaoos67+Aqj1jdTZ7osm3CZaWRmmprVkgd9xjuI+oFa32I+baGcq/Oalz/GBhfqZ2GgZa1+QoeR6iioy6Utf0x7qDaooYtU30ITasPbrTMxDmKMDc7E6Vc4iN0Smc99Wf8SOYEYQlaRDk3XChBRXYS1CUM1m5czhpj+ZUX9XGa8y0RdESJdm7wrZ2p/HYYia/uLEEoLjeHaLGb0E0phYY1a+HP3A2emgFaj4aoe/WCwQeectdYaY3R6e+26lnZMMJ0LN8asaGsW+q36Q1mWER94hDFma2trNBoNh8P4AypFRCOO3eySlrakyhkiiEVRpA4R6roejUZFUSSFr/rJ2Q70iVLlLIrCez8ajWYEWJ/QFvqBg8EgSc7xeOy9HwwGR/H5zl9nGqfgExS2cN5184r/zK2tLWttqpxE5JwLJbiWbhNgjLHGGmvWDrqOogLTW0QLW2jCJFF71BkNJ4xGo6SEaoMzdabLwsYOEcNqjcIWZGjG6tdO/xljIguiK2pVVUmpiMg7zwUHk19RdvPyx9jg0RwfCwAYazTQoglXv3/+VVVVbW1t9VgFpfpUjz9Myy7sL8IcXAgoGDIrnp9PG0JrMTY4Y0drbXBGn3phtE4XIqI1ViubsHQn4pe5C9q/DIfD+fevgIgmk8lgMLDGRva5au9aYQaDgcaxYkY+qs95OSNZ278s/N7gzQTjFRb9UlX7/FerwtUjme8EI+c2y7JM6s5CBHHeeFc7iPP94Iosws9EVFWVMaYsy3m9rf7efm1av34wuOmDwcASkVpjfCdKhnSSwhiTd5hmbilhhL2wpt15lS9y+bPaoIiclduilrGsASHTruYmQye5QyK1QTPWkKeQ8KbLeRTxmq44VIe792r3zeUJkqwO1KnlGjLB0zrhPUALmdFnWB+pfb+OtRCxd8sSWSjBKUnqczUiUxQFez75PVWLBVvyvTrRF4w31BmyS2YMUNT9vcOcipnlbd2Z99sqVywnvYv5zuY0WOxdQ2cEpmvSj+meAAi6q+PjS0aol+dJ0/9F5tIVKD1HQQACEIjbE3OcXm2TUB/NqJw9LhIVbD9NMKHs2rR9S7CPMjcYp3TlVA3hUbVe8dKz0s7kS5wzp5mzYke3kewgZs4iDAAEKN4jEQDP+IgITMIInf4pcisltmkhsWsjYRImYJCoCd+ubCSMwBDOvFidNbbJSVhEMHx7XK4gQDJ1QmK+EdsnEbjVTGTCVplCwgyJ+kRAEHWWEOS4tmJSMwGCmCD82gRHpZAo55E+pf1nmpwCqHIia7WWqWfIx33E3JllMpkTJjuIN5OwMuzuIXKjA+vJBzcnosAECCACDsUDDqCpb1zbe9uvveNjf/Xxqw9dvXbtmq/q4XDoVu62PnZARg51ZE4W0rVlIiTMCGjhoJrY0ej8PfdcvvSwJzz+c5/zrOd8zqMeqQ+H41cIyINnZKRjZ7IcvfY0LbvITu0dz+LNrCwzhy+ezppwF/bXqWQHMXMWQQBsmsNBMQCgP/rD33/r29/+W7/z25+4/9MPXX+oqWtiMcePFZ0/ZZRl1S7FTOaWMt1h3W4wZJBaWKwdlKPRaPsLnvBFn/nUp77qK5/3pCd+0WAwIKCF7mAmk8ncOrKDeDNBwtyM33qIgQlIBAHMpz76529/+9vf9As/d90dPupzH3vlCfcNhwNrEVjIEE79QpobwvKxYwVysWVOFK2ZIo4ERBBYAE0tMKn8A/df/YM//k9/+eG/cFV94dz5xz7mscYaz86Q1Tns+cqcyWRSQUJIO/nnriM7iJmzCDlmawoA+n/e//7f/5M/vDree/jnPeobv/mlX/rML714+eJwNJiMx8OVx/EcO3cq7mSpTOZmgXrwOzMBoEAzccNy57BuHnroxnvf9e/f+dZ3fPw/f/h3PvDbj3n0Ix/3uMfebmEzmczdSHYQM2cSA8RSAOB/+fCH//KTn3jE4x/xDd/0jU/76mdduHKe0U3AwTkzgTo8fzoXwWTuYjwAkAAJoBAOikoaGtgr25ef/7XPvXBu5//8iZ/+0w/98Uc/+mWIBCCGrEAb6EZCRJQ+G7wzmUwmluwgZs4kiK3Pd2Pv4LNXH/zcL3nC05/zzN3L5z05Rr4jj0jM3Hl4BMbpmU0CAI6EHvO4R9eH44v3nPvQxz+5t3cdQBiAAH3q1vpMJpPZgOwgZs4YBAAC3oGxAAAPXL+6V41xUNz36EeO/cHAWBIAADzemd60A6V7HpWXyQBAe5zNPAJHJ91MoLp05Z5z53eA3bVr1zx4A4UTN7/RKpPJZG4d2UHMnE2wPVX4xv5hVVWuaUxht3DbSYWyKIAYeQ7ienInndmAhUHAqWsIwIRQNZPtc9uDYckg1/f3RAQQRBjafS0sLLkaZjKZW012EDNnEAS9A5wBhsOhkYLAIhoBQKwRcXrRyK0gb2fJbMKiaikACNQeDM5OxA53J7UDU5SDEbOAASJDgLp0kSUcAp7JZDK3ijwOzZxNjvpHIiHKM7+ZMwwBAEq7DELv1REEAZLptLIB0kqvB84L5/WImUzm1pIjiJkzh8bwjp+DLaS/4tnHMplTxXy1bL1DACY5eojDDd158JPJZG4HduZKnBjC8/nokExkHSA9mSO9wixKhd2fEBEYmQEZhbJTmDmrkABp+LBz9TQREekl3Vrtp+01IQJSykQzERFlX7Ol26pQmiJvJyo2mdNSjgubdCREwaQ9VcGjuLOdijNng7Z7Q25k2YQkIpJanP2Kv+vFxr8BO/TIMV3M/q5zb1F7m1NvzRBRN9Wtvot5USr9J+pPEmAREgREQIj4rmMHZeer9jK3jbbuiQiDtFUaQp0+Vv8ZmD0zMwAQsczV87VrLZqmGQwG4Z93dn88T1Bm24WxdG/dREZE1D+dziCIiNR1XZZlZMN7q+XhRVcMeO+ZWVBIaHql5BppRYSImJmZuw+fNv2n0v2WpmnmfznDafteW1WV9z7SGPQBZtZP9d4nucOIOJlM9OekLrmu68lkUpYlIjJzjBKJyHvfNE2PChfkVA84XlRmds6pZowxC41noaiTKd77+FrSW58AMJlMVEXxchZF0TTNeDxOHQMhYtM0VVV1e6ZItH4Oh8NgXTpJZ4m8YCNQVVXqOzOZs0JVVVVVwdCqu+iZ67rWhtd7h3NBmtRCW2IAACAASURBVGUOooh476uqGo/HkfYeODw8tNY654goJqBgjNG2V3t9oxvKUgIQdV1rU9/95bKHw891XY/H48FgoI3w2lzm/Ztuy7Za2mX9SwzGmPF4jIgzg+21eTnntASXeWYzdPvrHnJ2+8EY/QfUQUREragxoQGtKpPJZDweh04tHk3CzJpdZCrvvXMOEZ1zWmnDnxaWi/oDxhjn3Hg8tjZthV5d12rRWvpJaSeTiearbvTa57Vbb5rGe7/2u2YQEWYej8dlWZ6laGcmk8lkMplM5gSwZVlaa5PC6ersi0hRFKnBJPXuUyNJiFiWZVmWg8Egfl7bWqvudlmW3VfFy9lNGAMz63C5KIqkIYIKWZZlURRJceZ++gyFmCpnWZZN06SqRcfK5ZRUUXUY2knY3jdmAEFgMBhMJ+KEb95ph5nMaaBtFnQZogEGNkTO+2XGu2KKWS13NBqlNhciYozR1j4mgqizLhrDMMb0iCBqaG0wGIQkMREsImqaZjgcaiu6Npf5KWZjzMwU8zI0wKnfOBwOY76rm3Y4HI6GI12YHfO85qURr+FwmDTFvImc+sNwOOwXQQxVNDKCKCKj0ShVzkBZlkkRRPbcuEblnInMrYggIqIG1FPlDFG90WiUlDAkV33GF73WmdQlJTpZwcyDwWCjTSo9llvmNYgrEp7FNYiRaD/Rr8Is2aSCAEAI7YJ9XbgPyCAAAumTKamCZTI3CWk3MoMhEA6raDs1OzxKQGSIRIwhQlqwt2JdTU4dE4aV9Wq8kY0GIhoyavj9rH6mnVnhjM7IachESggAohcuTafgwjfGCNnVSczzs2lNQkOqeakXlZrphnLqDzH67/6yaZpuVYlcvaai9pYz9TOR2mrWTb5WyN5yFkWhC6L6fWCo2PHJjTFaZ5LyQkTBNlX/TSqpC1lC2n6peuyMkQ7hl0kRxH5y9ti+MyNqagSxt6g9thn1W0SsI5KbuklFRNALMPvFKTOZM4TQwoOZmJnZA1F7mnYwXBYxsujInKX2qDsA+oh2vK2I7C90X1pY4J7avyS1TqHV1diHAROfJIiKiDEJ5+WMTzKTtp9OUnPcUM5+qWb6wbV1Jiz330TOHt1ZN+Hafq37Of3k3MQGIyv2sVQ8W/SxEcRpqrwGMZPJZDKZTCZzjOwgZjKZTCaTyWSOkR3ETCaTyWQymcwxsoOYyWQymUwmkzlGdhAzmUwmk8lkMsfIDmImk8lkMplM5hjZQcxkMplMJpPJHCM7iJlMJpPJZDKZY6TdNp3JZDJzdMeZq4+BpYhnMplMJnP7yRHETCZzwuRmJ5PJZE47OYKYydxVLHPOTiqqJwTIAItvlstkMpnMKSEP5TOZzCyC7f8iiG9DCKR9uPcd4plMJpM5GXIEMZPJtASPMAT3CAEAUH8hXV+w83P4Pa4IClI3OXtvLIUcMbuLmUwmc8qwzOy9JyQAQFoTMUBEAGDPgaTMEFGTiEhSCEGFZGYRYc9r5QQAIjqS0x/JGZM2yMnMiBgvqgqpKjLWROqHiI4U6jlSyE30qZ/WX850ffpOpUmV03sfBNbfqUvBgizifZ6pjIcAgBbXFAJoVXzkJrInMigAQCRHTiEjAAAJkQAjMIBzzcAWxz3IzquFQIg73qeICAIBAYhAdg+X4pxz3htLIkJILOyc996JGCTUBvk4FgCEZ1VqrBERtabuX9V+55+fkUGt2BgjLCytxWmvMY+xxjsfGkNNvuL5LkjonHPOGWMQMSSZb2dUZiTUH1i4y7IvCt+rX6HNprafiOidn1HIMv2QIeecV5yff/+Kb9SyEBYg4IjmK+SlmvHeaz+4NqHWkIVyrkjS1W1oe1foc/5Pnr33HhHn64wxZqF+WNgY035goj5DHTPGaHZrPzNkqlUUEa21oaIuq6ssTEjGmlalifpUtQQ3Zu3z8x9ISGRovv9daO/M7HxbbY5+v0T/M58pIlr0rVIYGQCQ1zuIhOS8c84xczfjedT2iCj8rJVVv3beoZl/vqudYB7MrHKueB4ADJkgpyql/YR139iVk4issZ7X1wNFzTB40pEJDbWG4ZzThAuFvIn61CRE1JVz9fMAUBRFWxDexTwfUDmbpmmaRp+Pp2kaNaqmaaa/YwCwRF6QpW28FM6uxiyEiAZQWyUAcc4VxcBQUdXVu9797k998pOv/LbvYPHj6hAALg4v1tA8OL4+HI08SFVNGPme4QUDdMjjj33sL1/3uv/1e77nex7x6EeVOLy2f+3Szm6JowfhoGqqAeJnP/mpd7/nXd/2ra8AgBt7N5qmKctyZ/vcgw889PqfeMM3vPTFT33SUycwPoCxB9HViAAeQPJal2V4771z3qKwiCH27L1zzhsS7YDDk2qDa01ADb/bhsTI0A7zvO8OmHl5wFjbXrVca+3a5zuZtWNC9diOkhxvSoNj1/0WzS5EE2ZePPO94Q3d5mu+HVumHxLSLkm74SR9auft2aNgzIAZGbW3bd28aT+4NiH4NojQlXMZ8/IjL+1fZvQ/ozrNUeundDg+zp/NXZ2Smf4lRp+hiqqc8bGSpmk0BtT2g/6oki2sq8ys39uWQqI+m6bRQVpd1zHPz38gIpJQiAqt1o/6ozP2HlNtVIfqqSe3y2EosJZu/TgNz/cAEeO/N7429xbmVOnzBPQfifqHLDkWtQADiIDivTgpqNgalOycNG53sPXMp3zZ+9/7vn/7trdB5bBqzpejvcOrN25c3S1H27A1AIu1bBcjx752dQGDh116+NOe/MzX//hPXv3kQ1VVXd69Byvx3FgwhSkKT/eev/y5j3z8z7zhp6GSneLc773/93/9rf9ODsQ2xh+4S8OLdX3wm+9+97/5yZ8Bj5fhMgHmIlsNIqIGgkiH59gy/V34nyEyFP48CwsTkTFGHS9EJCJa/vxCNKq3Hjp6f2oWIaExhjose6ajJQyPddQ0m2RFjjN/XS38fBbxHztXvqtY+M6FHxiZdsXD8c/P6H/+Q0IJGjLh4dj6ky5PSJL0vLX2KG2EStv3x2UyL7/GU1RpMc8vzD3Iueb5ub/0MUZCWxSFNVYDlWv9m3aKeTr9WhRFamOnjnBRFElehYgUU9Tlj8lLP2pGzsi0Qc6kKWb2rWxFURARLZlxm8+u6BDvaPbWp45IiKiHnNbaHuWuQoYPTJJTK3cnIaulkaAIFEVeR7sUEgDmg/HhhZ1z7/qNd7/2ta9tJuOyGICHelJdv379yqXLr//RH/+X/8uPbm8Pr93YG26NzKD8zu/+B8993lcVtixl8Oq//+oP//lf7F27MSq3RXh7a9c59x1/5ztqV40PDs6bonLuR/73133BF37hdjF0gM968pf/1Yc+/sBfPnD50r00Rn9DLhTn98d7tjKXRxfP2a3m+v4IzZDxevOAE2cGJuI77l5sURSFLahgEAJiQ2JFW3ttnWaeX2bLGrpQw0m1QZ3w1baiOyBc1kxpQ9EaKVGIIEY2a5rFzAcua99mAlehYyvMmm9sY2DH59q6E9mrpV3Wv0QyFZPIrml7u32u6qQoCmNNTKN9Av31wt9r56LVABENmLXdk5a4c65HHxECbKGKRqZqF3QhasK1pR8GV/36MhVMO9DUWJL3Xm1Qg4hrn9dOs2uM4fcxcgqL6sQSERlKEredeEXfI2DWHfPFp7LG6vgjzGkmyZk6rRnkbCd8o0U11oSs0xIaY4yxxqaK2k+fbY5kUuXUUVcffU7HkalyhiHXXKaECAaBKHsYiyFplxvujLbrqtoqR8/7iud833f/QwLzHz74u+98xzu+5x9+9+V77hkNSt+4QVHc2Lt28dKV1//UT/pJ7cbVuUu7N65dP39+91/8ix992pOffn3/+mi0LSJVVTn2w+3h3vUbg7r5xz/wAwziQX75LW/5hZ970+HBASK+8c1vesHXvOBpT3vqv/rX/+qXfvGXnHfs4cXf+NKGDytpXvy3XzLcGlW+tsVAwAvALQy8n3EMEZEBQAIEAAIiQyRiDBESzWsuYpDfo60ITVNkcm0otFdLbS7a+BOZY9Ody53RpN/PPCDT7VGh74+Xc5N+MF7OkJe6PqEfjM/0lvbXK96psa61j3Uf6NdHBDmTu11rdFmhJlxbUcObddiTKqcuV9NvTErY2uA0x/h8dWzWwwCB2rR9oi8ionsOeqTtlypscQiWHJMqyNkdUkSm7f11up6PJK2WT/d+eB0cxKftJ+fRkDRRTh3K9NDnLUUnowyRAOUdKzN49kQWAJ71rGc9+8ufVRjzux/44P/8wz9irfnb/+3LxLMB3B6NyKBz7ju/65Xf+I0vNtsjOywbmDQ4hh3kbfi0u7+heq/eN8ZAYdBQhWNzYbD3wKHbovFADgv+6pe84Ov+m6+r62ZnuH394KoOlt7xte8gIRDrPJ/bPbd3eOOX3vorY6n20ZO1DdQEhACEeSPzrSWsBunROTGzRx/airURRCUsBIz3EjakOzmWlFAjSQISRvgxbNIPtnOFcZsRu/TY53fy/fXJk+obhFTMLChat9f2a+H9YQ9HEmSocU2PhGGzZqrxqt+U2l+H9aAAYGOmDDKZZcTE83UJVL/VimFqrJNWF+cKALIcDf2REHMoqgNja+pVU4vnwdYQEf/8Lz7ymn/2Tw8mBz/1hp980pOeRADcOFc3b37zz73//e//0mc+fXhup2YvAJV3bGj/8GBcj4HEltZ7jxYBAAkeuvbQ5Qv3mIE5nEyAyIn74z/9s3e+9e3f+33f89D1B1/3uh9/xStecd/D7iP2HsgYKgeDqqm3t3Zf9rJv8sBjODz0EyQxgAZJBHLZLaTdfAUGQCOt0wX/LGIWrI9eEFOceSBiK/HtZfp9bGC9u9Z7AXR3e4q2TjoZ2u9tt5ruPo9TxUKRtLFniCrB8J5TsqL9ltLDv7+95PVbmcwdixASWj07Yn8y/oM//MN/89M/8zNveuPh3uGrX/3qr37+V7385S//L3/2oVd+xyu/+vlf+RP/+v/YO9j3xjQgAsRgQaxFO8CiFHu4fzAsR8YbAADBx1x4BIFcO7xWsrG1XBjswsVHHt6/t/+pa+Px4TaP7v+LT/2Db/kugHaF62i0TdZe37vGyIcyftE3fN03v+Lv7uxsqZzZNzwxekStzgq9I4gnT9hGcLsFyWRWkR3ETOZOxoPosuhPf+r+X/6VX/mBH/wfB8Nye/f8z/3iz//UG37yRd/w9Y97zGN/9uffdPny5RrZDssHrl8b7Z4jIDQEANeu3XjVq7672j+87/KVBx54qF2TRGQG9uDajZ2irJ175WgEtS+LgoiuPnRtOBxevHDPU774S37j196tMqDQD//wD3/zy//Oox7zSDHgwD24d7UcDOrDyWA0vM0KymQymcwisoOYydzJCDOQsWjuuXTPP//n/2xUjF77469929veXtjiK571rDe+8Y1vectb/+7LX1E3k1e96lVf//Vft3Nul1EcTwzZz9z/KUR5w0+94b4rDyPEwWCg4RlBcM4f7O2J4+//ge/34AH5/H33XH7kfWZ7+Cd//ufbly6NLlxwAHp65X/8Dx/EERY7wxuT/Z1zOw888MC9l++9Pr5uEK3MXskccVBpJpPJZG452UHMZO5kLBkiev/v/PZrfuifjEaj/es3Xv+/vf67/t53WmvrSbW9tfUtL/vvXvHN33J979of/+mfvPCFLzSD4uKFC6/5p//kcx77OefOndvd3d0ajcyg8OzFtJewIKIpbLkzHA3K173hX44PJ2ZATdMUW4MPf/yjn3nwwSuXLk189X3/6B997KMfbSYVgzdEv/m+99hysH+w95hHP/p/+MevftITv+iwPmivcLndWspkMpnMDNlBzGTuWEjAIhHQM5769H/7q+8YFIO3/V9v/f7vfbVFiwLj8Xh8OC7L0nlnygFaeMlLXvKyl71sOBx6YfH++kNXr1y5cvHixVFR1r4CbHcasfMsMhoMG9dYYy6eu1D7ylj7+Mc/7j//yR8dHkz++pOfdFgfksX/6Z/8UNO4t73tLa95zWve9OY3PvxhD/+K5z7rx37sx6gwN8Y36rre3t253UrKZDKZzAKyg5jJ3JnoOYgCwuwnh4c7o11ofEnmv/6bX/fKb3+lc87VTVmW3vuLO/d8ev8zv/6ed336/vvv2b1n4ieudgDwgff/znA4tNYyeOdc2ABLBguyD1574MLuhQEOGmgOD8f37l75vM///Pf85m8i4qVLF11TX79xdTAsEOXSpUsPPHh/YYv98Z5zfjKZFLbYHe0e0sHtVlImk8lkFnPajzzIZDIbwsyj4YjFAfJoqyQiZleWRVkWk8khIt6obpzbuVAORgDkQRjkyujeSV39yYf+9KlP+zIgcOBmLicVkHPnzjHyBCZOXFHYBw8ffMznPPrv//ff+dkH7//2v/ftP/IjP1LY4nA8rqrq8HB877337h/cuHjxnqKwo9GWiFTsTFFCnl/OZDKZU0mOIGYydya624NEpj+AR6BB8Qtv+cW3/urbD/f2y7KcTCaDwdAaUws74b/59X9r/3B/MCweqB943/ved9/DHvbIRz9KQPRKjGMvn57mpRfYH0wO3vn2d/7sG98IAF/8pCe99kd/bGu09YM/9IOFLarGAbL3DQDs7e2JSNM0k8m4ruvhcNhwn2NjM5lMJnOryQ5iJnPHoq6hAPD05/1q8rV/60Xf+6rv3dvfGw7UQSyMseNq8t7fet9HPvzh81vnEPCqv/qhD33oJS9+8SMe/ggWFuFlVxrqmfuXLtzz8m/+1m/6pm/aNtse/NWDa8y8P94fj/ef/JSnPO2ZT/O++dZve8W73vXuv/GiF33BF37hfQ9/+N7+3nCYz7jJZDKZU4rVQ+uBUq538/1PA++dsGmakzyCvN99OL0J94WksolO9Ha/pNul+iEdbsX724sYPft8094cjIACMjXur37hC77ma18AYM7v3NOAIxKyhRcGNs/7quc/93lf6cALCAB8xytfOSgKFmZmXHf9BoMYACKqoCqgMES2LF772teOhsNqPBnRcN83w8Hoa174tc99/vOYfVmWw8GQhZFQ+E6+O2FDfHtjHQuIlqSqi0WYvXrtkZfQ6G1dt17ks8qdfYeHc65Hqt79Sz9lMvMJy9kP51zPS4N9zzsPbxdtBDHeOwwF3zTNiQUA9N53bd3iRQ1X9/S4gbRfSxouGk89Ih8RmbnH/d+9aZqmKIoe91fu7CRvO9XrIPs5iKGOdYQ88mgtgjFGbxrVfjQvqj0OA4BM95a01xQCHPB0dwhBzQ4AqLB6hk3tKyGxpdWmQYtMlT+zDFHv8tYfPHsPYwAAgRrqwWAAAKPhEADK0XDfHzJC5WsiGY0GmqTmOtzqkc8+jMGz06tQcOrvB+MlwMj7aFJvdNV2iZmrqjLGxLRRzBycfmZumkavHiaz/uZ3dRG0dYppmroPNE3jnFMPQxu3mIQiQkgMDABVVRHR2rRBTuecNt3xKlXllGVZ17UxJiavMAZumkYtS339yLSIuIlDs/bl878kQ+DbqEekZtoWpu9NdKm+QSsnUVEUwsKekXCtqOH9/dyDTUYgWs3i9am9LRIOzCBVLSLinBsOh03T2KIoQpbhls9lKdXCjTUsTETe+fiLmzSX7kqm+KpQ13VRFMEe1iYMX2SNdeCcc2Y6QbZWYE3btb14OYVl5gr2SFGJyFpb13Vhi8jrsDbRp7ZQWpSRaYWFp1e/dq9zjRRVi097mkghQ74zQSYk0XeKYCPgXNPeWoX5LuYoZr0xgfYwQgT1EWcaspsyaKElL8nhw9VYa62xpLsJqQ0WGiPq1tDyXYbzhVgOyrIsZ9aSroWItKmJH0kSERAYMGrsSXfftX22iDXJo2VtYfTeoMgk04PfhYBExNrYNVddPzJJTiISFDKUlFD7XA2UWGNT4x2qlqQkIWGPVIhoje3RdFhrU+tnSNgjVSiOHqmGw2FqbAUABoNBXdep2akn03Vs1rLJhZPBBhHRNk1jjdVuvu1lzdL3akwujJwMmXiJdXF6CCB3HdMYiY0xzOydZ2Fj1uSrQoZRRTvIjrNJEWHfOjHeeTIUL6dnX9UVMxdFYY01do2czFzXNSJWVaWDg/iGYxN9ashNuxANCaxNKyghbtEVL0ZUHfuqtMmWrIsfOtLhkRSIAIgkMo1QHk2lZqJB1kgjSZ9I3sIKMB9rzPSjaZrGNWRARLxzOlhiEQAwhrRBDg8jogG7cBJD2xkROTw81ChUPDNZLPx5IcFBjMxIA40s7L0XEc++G+dbK5ufQkh+3eYnTTjTx0eKiojGGM0rKU7WzToyX428smfvvQYCnXdIqHHZ1QLrSD4M7NU1ifXykVhYH26aRv8Z+YEhXz0tq5vpsty10xQRY4xev5REkDM14bJ6tTgyelyfWgTxGbVdPFFd14ZMvD61sw73d7PnmLRdacNnRroW4WE7mUzU36qqSifIVwRCNSRORDoLEPl53VzVP1C3Jl65VVXp8M57P5lMmHl12mD83eCo/hCTqcbzAGDf7SdFvDTyj4iqpdXKDA2ojpmqqvr0pz9dlmVSKfbTpxJCesGZXp3dQh3GZLqzs9M0zWQyKYpib28vSUg1jONdlACAJfKCjcBnP/tZ/ZCisAjsoc8Slgx0IognRg4frmUymUwmExEvwnqqOYtoA2iI1F8cTyZhEbNO+s+3WsaY4XB4eHg4mUxSHcQ2zNaxwXkXJzzZ/W/XQYxZZBKilfPeT4yDqNvktfldG6fRhK3SiIhoMBg45yLlDC3nMlUsZL7lXDvtqHlpOKCuax1sF0Whi/Ijp+AR0VrbNE3SLKdqUosjKaEqU2uvcy6svFo6nmQOs3Z1XX/2s59NjSN05UzqB0M1myn3ZS/R59WXTVKLfuNwODw4OKjrmoji0+qTIWi9dsFAG+gzpru4K6aiztdPq8E5RNS1ZfNCB2er66cjop6gmxTzFJHxeAwA58+fn2lxVlPX9bVr11TUnZ2dSKtQWwoByHkVrJCzqir1bJLkDGtsQzwvJi0RHRwcAMCFCxe0BsRU8U30qXJq+6KL/FanVasrbNG4ZjKZpE6vtKMfREQ8d+5cpJBKXdfe+/Pnz3eskYODWAucO3dOy5fIEJi8CH85y9qUWROOj/8tezKsTVyRe153GIOuzCgKKyw7l3bG9cS5RqfsrdqggUvb2zKNEyBTt8XuvkfHZleuXEldg6gNvrZpaztRjQJ69jrsNMbEt72KiOj6vO56xxgHUf2nnZ0da+329vbaXLpuonLu3DkN7axuD2f6l6R+UJ+/evXq9vZ2zDxgN6+yLPf29obD4dZoa22IdCYtM+/u7p5Mf60zY5owps6EaM7+/j4AXL58OTKjMA4JciY5Xql1u511tXYymdR1vb29neTIavxeRK5cuZK0F0f7ax0qxIwrQiReBzDdGcLI/lpEDg4OLl68aIuiMMYcrSpDCNPN86Mc/acOX3ReXKdEY+jWMF0AF1+QiDgYDIbD4Wg0ih82hch/Dwexn5zsWTNKchC1itd1XZZlqoN4MnIGD48MqSUnOYhqVHVdj0ajHtELXVZflmXXQUQkC4gCZVmadh3AqiVZmcxZRJfUWVOIEV3DBACIjsgUhQ27y/UHxGPrg7uoBZVlWdgivtHWtiIEkyIdxDBC0Mhc6ETjHcTQyCQ5iCIynUxYvwaxdRBZdMlNOwYuCkQ0YCIdRP1nUj8YlFnYQmcM1z7cjXTqYm5jzaIx2M2UUzuUENtL7V+S6kxwEIfDYVVV8UtIu7s3Qnd26+QM/eBwONQQXZKoWj8Hg0HkRqiunCFyGekgAoABE2ROGqTpRhTViVVns7vVYNnEQfefrfsYUb8XJ0zc6hviT0mrL49WH+KaEPdNk5MQ+ViSJFFn8j1VcnaV3y2C+BUtMwljRV2Q19F/CQERG9c0TeO4cZS8BiXTje3drKheXoN4s0AiQiRdKAqIre2qNS3aFJwn7TOZzE0iR1wyp5qYw3GOzkHM17ZlMplMJnMzsGFrzMwfeu+RzmRuImGao8eZApnM3cYKG2kD+KnTPnRs0iBygxoeZ+3zy5LH5LUw08iMNEKi5zOkitp7Jq1NSwmizuszVZknOuPXq84sLPfTJueymbRI+p2UrLMG/SbuGDh1BhXC4SE5gpg55YQI4oo4YrBzyucgZjKZTCZzM7D9HOFMJpPJ3GqobZzbvScE2F2EmE+Gz2Qyt44cQcxkMpk7n7UXZWUymUyXnhfUZDKZTOa0keeCMpnMzSJHEDOZTObOR/d7xV/wlclklqGXod9uKW45d/4XniR5+J7JZDKZ00Y+BWKes6KQpFPKZxCR7inXqWQHMZPJZG43+WjxTObssKHjdVbIaxBvJnp1z11F7F2CwjFHXmcydx9hlM5HW0na/2durUYYhAAZRC3p9kocTw+rlw5rr9rrIU/3B92y0z1LK/4qs6NULIIJ4mlASFjCaXOZTeitw5n++gyZ1YmRI4iZTCaTyWQysTDz3eDcZwfxZnI3xJwzmcwtBREZWETwLlgFnzkZ8hrEec5Kf73pGsQNyt3SwhvfV7LJwdqbJOx9xVC/7DZJeGIqPWE5e+dI4WTf9OzmRO1ciNSZ7vHMHvhsWHwmsxKdXwYAQ0RkANpbgsJB2UiIkHZ1UJi3TZPk+CTsraZ7lVmPtIh4YntLN+lfiCj8N3MW6eF4OeeY+WxNZFsWJiF1Udc6qt21F7rNO37tRbvworPUI15T3aYtctHbMTkNxefVlTPkHisni0aeI9eyzIvaT85kfabLeZQ2Ma8N1yDOLw8C0Jeg/iQi2s6yF+f8wBo4SwaYyRxDmAnNzAq8QFiDKCxiFpxYs6I95nZBY4IZ6pPdNXNrmWnQgosJEfNVoU2blzNG5ulB4GzALHv+aA0iCwDooT/B1XPOEVJMYKkrKiLqbc4xEJE2WY1rkFD/uTqjmQ6idz+Y2vx22/mktGGZbOgs1ibv9EDDFQAAIABJREFUPtmvm+jXDyYlPGYO6XIys97F3GN6ulvZ4ou+X7fbNi8iAGCrqvLeq9xqGytEFxHnnPe+aRpEJCKKnqQWkaZpqqpS6YuiSBK6qqqqqoiImcuyXJtXV05EtBS7HWcTOVm4aRo9b8wYY+36TPWj9OviMzphOdkzCxtjmqZpmia17Oq6ds7VdV3XdaphaFrvfOOadsCNTAJE5AUbgbquyVoii0gABNk9zJwxWF2nEP1GARRkRgCqqqaqKhhabbU9c13X3ntjTOF9sCb9gRAJjIbQ5r2cHo6CsIQ+hoWJj7f2S9r+mR40nLw4m3wOL56Zvfd1XWujFJqmmAtgJpPJZDIpy9J7PxgMln2R/qBSzauCYe4z518C4vxR/1KWZXzY0rNvXFPXtf6zsGvaUi1H71vN6A8iErMhciZt6h5KJGTmdmiRcgGPZ68+kPc+1CL90zJF6QPtB6bv9dSMQnY95AzSrpCThQnJWKMqTZVTvayiKIjIOx+RoiOq94jInslQTL7GGp6y9rtmUJPXom/NLwwuV4dAjTHGmJBkPB7H9/fGmBBR17RduVcTzEnZ399fm1eQ03vflXOtwJvIGUYY8Wm7Ddn+/r76XjFaPUk5EdFaqypVG54pkdWUZdkjehFE1c4ppNURN7KgAEhnaMUAOh2GgHBmt5NL4qxT6vEoZ/39p42b8r1tTJwZmBEQDPvFEcRlaGvuhcG7hRGm3d1dnLK2/TwSdjrhS0TGGM/eOeec6/51PgkRee91iK5Nx4rnu2guKiQzd4fNqe3GwcHBwt/P7mKee23MxDERWWv1SRGZTCbxJUVEod0Wkaqu1ra9Wr5N02hfpl1GTGvfTdtjchMRJ5NJcA/iE2qOwRnqNvvLFKVR1fF4PB6PD8eHSXLq2CCE6OJF7cpprQ0Ve5mcapLW2qZpDg8Pg48Rierh8PBwOBx284phMplYaxvbGGNiit5aqzbonOv6GDEVNchZlqUdDAbW2qTFEGFSb9kobQUq39oQ4AzM7Jwry3IwGIjIcDg8nXIGX7YoiqRQmYZFL168mLoq5YTlLMtSRAaDQaqcRFROSUqogxY14Kmo2sWiBTQMW+XQifciLAIeARDACxCcUR/xVi+iPOvvP23clO+deo0IRCIkpmAiAQDYHo6KwhY0AAAw4MEbIue9NcYWBXayn65HXNoBh5/PnTsXL5q2veqAFkUR32JolEtnUeOzC/tDjTE9ZpmaphkOh0VRRPYRm6DuiPYv/RadJwmpBWGMuXD+grFpromGkVL1CQCj4UjDUakJvfM9ir4sS0Tc3d1NzU412eMD+8k5Go2KohiNRkmpNPY/GAyGw2FqhRkOh50eMAHvfI/i01o9Go3szIApZtgakgQLiaffql7n3CabVLzzZChJgH5yhrUF/doL51x8BPEk5ezWCiIKcsYL2WOTio5jClt49sdFJdCgCwIi7O7u7u7sXr169f6/+syFR14wYDywB6+P4fIOXDqT0XKKJqbTph7SDyI46+8/bWz0vQxAIAyAIAaAgIhxZMpPfOQzXPuBLYbDYXdZIfbdpKKBvR77KojIkAnxtvgGnz179ihHOUZmrTG2HntNNAAZGdfpRhC999rEJTVrIRbYY7+CiCQNlcOiKe+98y6py9e0OsxOEhIAnHc9HERmdt4hYxhOxEQQdZI3fh6si6ZKdaFm5OwOolZEEINKU4UsikJ73j5+nvc9PGDvvPMuOD9JEUT9QKtT6d1XRKZPErSbtnfCuc0KsUl6jPI3/MDUJqO3Sk9Yzn6jgh6rZWU6tby0TjuGggDgcY997JUrVzzjH/3BHz3r4jO8BTBo0YCF1d0ndx3EU7SzrM9o7256/2lj0+8VZGDP7ASwIDvA8vCB/f/vtz5Q7U0eduXeey9f6S4RlnWbVJL2NUeJN13gcXNfuzrHsNckNWG7Wu5EBh2b9IPtarl89Mxdhi4KvN1SJJBvUsmcSUQ8AgHCk570xEd/4NH/73/8wJt/+o31eP+pT3/KpUsXL1+5RED748XrkKZv6DiIZ8poM3cMTFrxzM7W7nh8sH/1+kPX6t97/3/6zbf+xmc/9lfPeMazvvTJT/HeN74ui3LD+eywBvFmCZ/JZO5ssoOYOZMwtuGFxzzuc579nOf86Yf/7JMf+8Qv/+wvvudX/93Oua3CkGsaIrMiNN7d7HaaIoiZuwxkIGFxrm6qg0lz6Orr7pMf//So3PqSJ33x85/3vKIomPHuW92ZyWRuM9lBzJxJyFo9HeSvPf6vPf3pT6uq6r3v/b8//elP/dlHP+Scd3UtjpGElsdLuNdRl8sYDocPPfhg2CtqrCVEr3u376DwpM6PpJ6dmUQb5iI6OsWNE9YnhN3yM78XZiQqy7KqqkFRjMfjnd3dqw89dOnSJa+7IogAwN+Gk2wZjCAKERmwwLBdbH/JX//S5z77uc9//vO3tkYA4dS0o4VcPQ7Kbg8mS1zbpwuIGbnHlQqZTOZMkx3ETDKnoZ8QRJluEPjyL3vG7tbOIx72sI9/5GOf/MQnuOGmbsQ3SLjisjLprOBKOuVrydvkwYce2t3dQcRz584dHhw2rjHGrvBQzxbqeFk96ojZECUtXI6nW2Rh5bgsWG63mOli1wUFqt5hWZbXrl+31hS28MwibI3VjwqZ3qRPiYSJUEjIAIEF5ic8/gmf//lPfM5znnPlEQ8T74T17BtvgHSTyhndoJ/JZM4W/R3Es7LAVkRO7MrFM6GQ0O/2k/bE4iuICLTYdePjx2FbgM//vC/44i/8Ite4sggn60JUrEQAADb/JhF48KEHd3d2kZA9v/s97/7EJz7xmMc85gUveOFxwdfSFfp0Pf8LP//mj3z0I0984hNf+tIXRyTclNgSXJRwYYGSgabxRWF+7dd+/cN/8eHHPf5xL3rR3whJJpPKsx8UQ2tPemO1BgO7HJ0zYIgh+pqOzIlzVvrBzDy54NaSI4iZZE7sttOFcOe/pMceAjR1Ywogmp6O7sDrGWxrp5gFOw5ifwdrUFJhy6IYIIIn+ffv/a3f/d3fffazn/3CF/xXR49jxK7Mrmdzyp5///s/8Hu/93sH++OXvuTFt3ZFnIDo/zwgAiYuwFvR7BfWAMCvvfPXP/jBDz7jGc943vO+antriAQi0DTee29QjgKjMZke02fi891Ux71hPSjAMQMeu5WLIO8yyWQyJ0R2EG8mPe4IOhPMnJS57E8r6HkOIosHFhCeOy6v69ogwLnRsSNnhaanYC7PUNdvHZeICGD/sC6sLQaLneDu10vnFo3DiRvX1ZZsW4sA4MQdVgd7B/uyxAcL72HPnp0xZK01CF2vc2EYTAVmhqZpAKgoTGrAq6oZAMolHxjoVmWVhKyZNPWkqePdNQZwjQCAsWgWpVpoMIQgCFXlAaAsDaYceq6aIcIF+gQgBC9A1gjCcGs03BrqbicyYEt748G98/ckHNKrp7EHOZMOZ2cG7xgArCWak1NBoq7XqT4kghX2wniLpvgXiBo9v38TiZypmLmvud/5OJm7kzu1v76JZAcxk8yJTdlHcpLxzK5D2f3Z6LG5BglACI2u0TO47MjI7pmsoDeZ9Try/O47d/BWcvru/UPAmVPcT5v1ZTKZO5W7Yw3iScl5VtaPb7IG8YTP+UScjcvEuYPc3rUy/zjORCbmlcCA8yHLtYLykZwo7UuiHA5NiImuXnh5P1F7+dXtNyZWgDa7Ho5sv4SqGQSUpZO+2Cmd8Bimf9pGci4tCJz9J56yy34yR5yVfjAzDxImX4R0l5EjiJlkzlKDOOsOxtDPUeCphxHneMUItviZzZWf/nWtJPFe71x2SMmS36J4nrrvR//bWJ8nG3dctWwik8lkbh7ZQczcgSCh+DMfcVnoCqj7KZ39N/HuiQZjdXcOT/+5jGN3VbPM3H+4NlOavqQ9p4aFF82NLgyMMeBRQhDuTLNm9yiTyWROhtu5HTWTyWQymUwmcwrJEcRMJhkNaMVEs5YtHZs/3zFmclrDaW1ATkQXvsWvTuOOwDORuaU5sugqKxEJR0nz8kzDgrkZOUlkYZLFR5QTCLehSmHRf+rmjPYql+UbNdoo5zRmSbOiorAg4tGFKwzcObcpaalf+42LIp3LaPUjoBfE6M+MsHrTuoCoHgCQmUWE5Whrfzeae6tH/N1dw6uXmrBwqDmRL++xdmV+F/PqS3eOrueZBrZn3jZzS9BZWk5zO1ioam00gj5V213F3j1a7eqnu2l6WRU9bZqxzOzx2ELNFY1vvus9M0PMnhVE9Ox5Ssxr23lMYccsIkRG1m3e7K7lZ8/MHhFRlvaYWpP1CI/QjZExIuyZyfsZc1W7OHaDc8cbmH6eZyLWr/WevV92R0toIJg9iwB7RASi1hWYPrPA3Ai6PRyzp+jtEUite6EqirHlqbtFIsze6z8XFmLXgZuXU4SFF00xL2wouZtQ9J/qB7XPL69EItz6lCIA4I/r0xjD7PVnnn6a9x6M0eY76eQLMiQsIeFqZ6jtIKc+JbNXXTF73eCy8AApvUImfDUTMnsRFiFmlk6dnLbbt7Z97upnYU+hfYQag9aVI/c7wntN7V9mblRf4SC29j6tn6GFCb8UEfZMhrpOzN3m0KSyUNU6Nmg9RZyuSyG4CzXZ1Y92C8uq6Omsb9Y5NzsuXNSOd/HeN03TYzcrIk4mE/056UKOuq4nk0lZltr0xKiPiIKc8aPeGTlTR8DMrPr03htjIlVERJMpfs4viZGzxwUnk8lEVRQvZ2GLxjWTycSYI4+k+/MKOb333nvnHC079+U4wYoYQEQ8ubXVsmtanpk9IyEu30AwY4r6z/H4EBHZcwPNwoLQG3vnb/DTiJdIGxsSXtVXdXt9nv4X2TP7rlOoETtda9jeq4E09ZPaLHxcVdG8GtcZzqpLuvJ5lvYya8+u27mqjzWbxB/Tp7rmzF5dink557vhgBqd5qJyzkR0VlR2z8zsUYjJB1UHHKNnRiT2KhoTCrdmzlOXMRbveFpJIbjRyx7m1pXR+oPcibIsvE5w+jx3tEree6duOsuM08zOA4CfrhadyV3bivF4PJ6Mi6KI/0ZtfpnZGGOMsfZo0ol4kS3rwIBFRJxzxpgQgMCIG2HUp6zreqZyxkRcvG+HadqKzr953t67/1XPhh0TUnBxluXe7V9Su3NrbFVV1trIgEvIy3tfVVVVVUQUOTJXs+0nJyJWVdUdPy+Ubf6XWgRE5NWEVZndAd4cIkJE1ZQkOQEgJCGipP66aRp1Kowx3WqzUFfaOFtjG9dUVTUYDNZm0dXPUfvpef5s0dX1raoq7akji94a69k755xzqf6PtkhVVW2NttKmmPXteuLbssqxOnlImOTQUIfIjzRktM7NyBnpIIaESQ5iyEsPwYtMYsj0+MBN9NlVabycZIiYjDGp5X4y9Gj+Zn4jLERm9Xumel5g3q2H0bqGYai4wJi7rmEouDCBS1PZTKdYO/lSx4Fm9qtuiwl089LYiQdGXH/TjGdWjxkJPU+9UuZlCTtOLU9vcFb/abaKtlPPnZ8DBKD+duukdh5YPwvf+lvMIni8m+cQOiWUqUfP2l6Tl+n3rlXmkZyInlmTBF9zjXjMUweR1QP2vv0mXhRslqmDqCrVKBeLaER3gXt9i2/C7HZOsmiXPQoSUgiWqKNw6+SZ6VZDhGbZ8zzV/2IHUUOJeOydt074O4AlA2AJZRHGyrdDutvPsfZnWjn9ogH2/POnAVsUhQ4Nw69WdJDdKD0zp45ENZIEAEVRJClCRIopkSMhRAxzXl05I9MGOdMiiNNpu6IoiIiWz2/OZFd0SHIQ++lTR9tE1ENOa20PfQKAJoysM+2VCMKCICK2KJK2rxIzk0ekeK9RpmGZo1hditNJxre+M5GICT/PxxoBWv+y/cPxLBCRyCBhmDubmcjD9gIYZBEAzWW9i2+O+kIOM9Krv5G6XS+xOqxFYW1RrMg0/FbFRt+6aNaYmST6D+m4iceUIOKN16Gw/jP8afWXInpdsGiN1btGgiZJAwBWBsXAWGustcYgkgNnprXTmoQxMyIStVPMM3IuxQR3sO0krG01Q7QwbagmqNd8k2EL1lhjjJ1f9rCsLiBiMMDUdls7+7ZGd+rziilm5PakVSIKKo084jsse+3KuTTy1Pl2tmytnQlzrshl/pIY/boYOYMqevSD2vBaawkpKa9uT5EQQfQn3V9770OwTafsl7VmAWEhQ865mf4lPked4worBOJTIWJhC2PN2rqtDYsOeHrYkcb/rLWGTOpx9zrXp/11TNGHbl2/Lvw+Jl/teYuiMNZYouSYkNq8x1VTVMsInmhSWm0ONW28qEHOHkNYzWvqK8SKaqwJWacl1OkbY1NF7afPNkcyqXJqN9NPn1rN4n1fICAhxwzAJnVlFbUN/YqTYmZgAF0mo15+G5pd9NgygRERkQiApz8j0sL70HQ13szE4oz/FISf2Ygwc8wNUazx6opJYQxzba0Pt0S3x4+5QQAw6gMhGmvX+uutTIYM0wo5F+7q0OtDVHVkCBOPuSHDhEiGtNqE43UExACKGBE2KhCZ/5+9N4+3JKvqfNdae8cZ7pBzZlVWUplVlTVlzVDYWiIyaNsPCxoH4D0s27FFEFvl04L6HODRAs7yhPbZItAgTg1OoODziULDs8AB1AKksIoCmcTKrMrMO50Tsfda/ceKEyfOuWeIOPfmHTLX95OfqnPPiR177R17R/xi7WEhoQfvejGOa8Wvm2DnWPrDrE4VIZFOWwAZOQJbfmgBOudEOGMhROpVaHn/oAnW995ZqG7/7Y+KuAH/+oS+XB5lKqq0Yt8XFIrDkTnHpS17+yhS9QJqQh317r9CuBr3Qx1RmWEkrVyZtfIqrmC95+DG7Jxt7YH6ccjl17G4TBOuo951ZxuhyuvE1Q7oWtg51PdHDzGjFHeJGfqRjhEjYqETqlNu2BXzRcR8HHVauYYQFJT8CTjLKmb1kc4WUWO2VMUSh7Ez90dR2Fl3DH5mO5lZvcckNXxXmlDTFqq/esIZ7CwS1rWzeDss/rxw02k3d2BiapfSKdQAkMbgx8c3rnvrGi1oSqKvKKL2fl0gXE61WbswIyABMGGWpQCQJI1asYP1tqgjqm4HxqSrQC64HWUhlL9Pem9ZHGM9RzUA95RlXr1Tk/d+R0SNwYzYaw6jk/bVrebovM+yUG6KFdukPoBptEt7SkJEnCGc+i5Cl7xfrKUzdgLOuRDCFoci2yAk/VlTUzYIMIyZEZYhpT7leJHywETdLiXFiDHk/8qhMybDkWutVBgwWJhLnyuepzzMSoOasrC/rj0TKKb31YV0x4ox67J3EXFQICq75e5nW4VvOjpPbv26AcOYQN3bRbHjzwWzaPOZffpw3dUblwL2ArqJFGOgOwoe829mEGn9Eo2K3XI2nbf1sEjdS1nIoLp6CGl33JcQR69KMbYewtqL/IyLgI08r7fyWb+RxrlBnbYTl6MahmEYhmHsWC6FlwqLpLKZ1Npl15hMf7MoERSBOm9syEIC0NvGb91a4YlpRWC8a2fs3EQBEkABApDeZ5RxxyNzPuWsOHhMRuOWGAMKeKTq7sbitLpYthjRHsfA3ilqigDJ9ITr7cwrZ1RRxi1ORcTCTikt35h6HYv6JMkrb8jU4tLo1cHisEnXa3wBK9fnCDthkp3Dx3O+IJ4ASGjcjMXJZ2AGlsr7qvdNRWFkAmTEGol7VVJcvWomC6Mw4uBqofHDv+WTUnX/OyJyLJJLHcd9YRMC0KyzPwikmPZcPS8B2XI7ZyA3Evuzqae2AT1SetUyS44wOHl7OrpeoG9neZXYyPPog4hAGAm98Kh9ngYZmPErOLWAI9u5CCI6ERTOT1gcNm1GsUaSKh1UpX4E8zZjHkTDMAzDMIxaXAqTVm0O4mayA+fM7V6QcIYVlxcaGcPMJ9zInLnd0gGr7zywcXbLfQlpTBxqo8eWPX8R0a7FJYjNQZzKjnsAG4ZhGIZh7GR2xYvoBjGBaBiGYRiGYQxgAtEwDMMwDMMYwASiYRiGYRiGMYDXWJm2w7NhVGFcTynCkeVhlDWsWf2gotXNsD47M957LKFfImIR2XwHUl6vtSuuPiHJ9G1ARoCY96CBIlfoSeU+aGwjiL3Y9MVmXRfLNdGCrC9gxbRToz+MPCEKzlafiEhAde0s47c4AOVseZVv5dXPsP4ZUCvH+mbCDEaWE85g6szXbuaaIZqlwSBhrYT5kQQQ62a1Ubbm6VvWjhqifuPn2dwk5UrIQ9RT7RD1GjC+Yi7j7Kx7OYjIkZuQqtlslv/URdZE5P0s+8LO/BpAjhy5uvdujnnC2bKbIaEmmSlPmKGAW0a5ODNUKRLMUiMAM1Sm5iVOyNV+7dyInRfuFXeIfI9PR+RmyVFT1W1p5ICYit0ypibfsS15c0EC7PV6z8IkI57cI1fo6GHFvh7CUusdERGLSNW1VgBxD/1c5YGheZUTlotQ0U59clQ3lWPfSKKq4ZvWm1rxiThzfaqFM9gpIjHGGeozxqgJK+alMX+5FCa8Sqp+cs4jq6LUFtwxxgl1Mq68vejL7MCp1UMNb4jyT8ysmVa3s6gTvYLVEw5lPTmLoc/re1OVk0SOE5JMqOeRbbtKe2PmiHH9bU27M0cugqLm5YrsvJt5TWKtChlIGBkAiH2tB0/kWLS0utlFjpEj1XwbiZoSI9RRGtp5I8dic+2KxRTJnyzFtsAVt7wp98FKFsbyZ45Yr2aE85qpnqQgcuSovtJ6efUeMVtkZ69t12swItBTCFU3dtYjtYCz2Bm5nF3lVMDMgqJ9sNzGRp5HD0DKCygiU5tl+TzCMDWW/ZiNsqVufRYJWZiApLevfpX6EQYRiBwBwIcQRu5SNtJRr97RQiJErOfeQcJCl9Tad0qfoJpvjLHKIAI5Ko6PsW9nlbR9OyMj1dgiq3gWxhj1UVQlFTlSO/W/FY3cSH2qhXXtdN7p7Wm2+syplldZGqoqrTVypA/R8jcVkzvvJts5boCguILMHDkWn8eph3Id6jtP8TYyWaloVy1eRcrnmYqev3j5mZxRuUWp2s5LF2NFVURE3K+G0cePa7faKfJ7XOlaVNlqtGjV6lcoiiksSBhLNmm7ihxJaAb5W6s+ewXut8O885I4Qp52GVVM6CNNK4Sj09t2lWwRoV/wWFtZMjPmz5gpaUfY2et6Fd/WirsokxRJqtRtoZ8qFjDyYB9k5OjIwdRroc4nZullVyW3wbSRI0dCqlInRV75Fcyv/vSMtHnMbCdiX3jVentSSxGRSQiw0IsT2oCIEKDePOvaWfJ35NnNYKcjLMdGH2mnlsIR6osWRmSakln5POW35XFlHNnOy3bqCSfXp/ZBfTEQUS+em3D8ehtY8mbmx93XoowogZ69eEjUHg8VLHRJrff1/qNXvVDV3JblZ3bxZZW0fTs5otTxIBYKj6hWS+9rX6KKRm6kPoseVctOEiqeMcWXFeuzuHzRVcqrrA5zN2cdX/V6V2XF5CoUJtg5roMNNdGyBBlnYTltIWj6AQbHWYhUfojW6oOExNJTeNMyWu9BLF7SJpRrCLVz6CVtXC7DaXt2lttnlRtcIdPzP3vFFBFPXkSyLCsukKDo0bXKpdSqzx798qqFkSNGP7UPqphQD0SekPK3pir5ElJezMiR6j2BtTIxVmppamfudFQ7e36Eim21uHaRY5Gkyv2t0E8VCzjQBzlixEgR0VW7H7q8bXOsq2gQXdH2qtWJK268mh1HqJJp+V4xg5367pRLzDq7lucXIU/u9G1ff5owAlOu0lp2lruSZjeDnUN9cKSdWgqMPr9Z4HRTy+fRd93IUaXbyONHtvPidaLoEZPrs7hXcOQh91+V9lY8doV1kQrRev/KyFrWwwRFdUzd2VrFfEdCYqjR4HT6mk5ArtipkBAZdaywbgUVdmqO1U3VmUx5zRBWfGPOZ2Rjf5ZexVqduT4LU+vZOWqiZPX6LBewFsXVr56kvPKgup39ee7j7RzniSxqhpAYufznyOPLgrU4tJd+krNTXWg6bbloolWKls8E5XwO09SM1reo4kJUzLTcYMYdP67dam3kH0rts16+hABQFJOBtQhpmuIQNMXOcUZWr8+iBCPsxOnl0qEi55HFZSETkX73r7AZRZVrsSlpi+LoweWeWzFf6c/J72dX5f7Wv89UzmjQ7Dx4U5Xr2F+mMEN9Ur205bx6tVq1IwzdmurZWay6Q6zSxgoEpbgWmra4fBPuAzPbOVTS6qYO2jnwjBhpg5Zi6HJMzqJ8HgYuVl+Na2Mj27neW8qVM7k+e3YhEgL376UV+2CvmIgEXifIjxhiHlXLxYQ8Jp5hcn2xTpBcJdd6gbrWnHO9uagVRAmRI8fEQ9Pkq6Qt7NSaqW4qIfW80K76zDAtmnNOba5o5Ebqs1jIWctOrRDn3Az1qc/R6g1GRx5ZWH2BjlzdMIbFhahupzLZznF3hOIKkiMSyj9TpTnXxcGa+2RnZ2GA+j8cuerTuhGxeLubnlF5cISlaKiqsapkqu0z91WPOX5cuy0uwVD7rCL0867k3JA/Xu9puhKld3HydlWsv6k1R75WfeaUyqvXTpdxEEwpF0o+oOz1PkhEhL0JSVVemPPsyBHV7EpaJ7mx09Lmqw0Ay6nyn6pm6/o100uCMv2+ESnWLGD/nHnh8sZQrT7FseOKxw/RK12l99YiLyf5pa/SYEoTzma0EynvfeQqtbESjomRUC++MBaXb1x5URw50EVUM9RneR1VHVP7dmol9+0ZdQ4thXaloolOzqB8HpT+I35cGce1cyHJ7cSBw0bbqWtuAIhzh1qtPojiRET77yyr9mox1APqenSKg/veC6rWq3pOiNwtXLnNrXePVTdVQAr3Ya2E5dfDugnXmz3dTqlnZ+GFzSfACQ/pp8lnwEEqmTgYqbb6Rc9TI0WJRQFnuxbVs5uBwjDhrYtTPGyLUJSvAAAgAElEQVTDxAVYQ2MZM5x85OcJh437acuW9m+QumFPB6qIti70cF22rz4v9Plx5FDd1GsxtOXQhbNwKK8NnaduJ6LhP2u1z7LvGAlqjm/Vyqi0YqPmpcD+0MFw8tHVzqWEF+YpMfKEhKSurv6qpq26V1z867a3dBOf+q8+28VG9sfZbFvGZES2pZlhGIZhbA+1PYhlH16tPRTXexQuXKzr2TwW6w8Tkeq7wKz3BtX1KNRiE+tzqp0DkzNm3Z2uLrpVzUaE7IXQl+PsWTdJaMo75tDWLXWndRZJ6vpWq+c1YGHP01yeZVsrO+1Kk3MZZ9U4T89IdEl4uZjrz1a+VOWJVjP4BGpfu97vHGFwht40X1Fvh4tiu90Zds3tlbrS8Uq+tUfNtH0jqxewSCv9NP0kFVwm/W5XbS+P4npFjkNbc1fblxsQEQhEoO4+g0Vbq3zt1o0yVb6IG7Kz5PKYsPNLnROO+aHczOrftns3GcA6NcNh4OZzIbz4A8ZwaXnD+O1+Zj//OnRxgk5arXJ8YadeCvMg7vrsZmbnexCL7HZLlRqGYRjGRcO2zUGceVpYdcWgRxbz7arnNeSu2IhToZap5TJWz2vk58n05yBWs3NoDmJ5YXjFTMtOtapGwlgf21SQEOKAd6168hkWTc9AcX6BbZuDWIVNcfZvcA5i3T64k+uzjNk5Jd8L7L5A7G/vt1temGdmW17stzjU3ixzEOvY2T9splB7lUwadcKZQ+1tHPMgbmpeNgdx87A5iIZhGIaxXVxwD6JhGOspzbJCFJPChmEYxs7CHkuGYRiGYRjGACYQDcMwDMMwjAFMIBrGVjMuAPoOIYbasVANwzCMiwybg2gYm0Cz2fTea6zFNEtDCM65RqNRCEGOjNTfRLDQiMIiIgzsoOYeZRcMFnbgQgjvec97HnzwwRDCnj17VlZWHnjgAUR88MEHf/mXf1kX1THz1Vdf/bSnPW27TTYMwzA2GROIhrEJpGnKzM47AGi320mSIGKSJGVPYYwxyzLvvPPugm6ivkHU7JWVlT/90z+99957z507Nz8/n6apbnb9uc997nWve12z2UTEubm5xz72sSYQDcMwLj5siNkwNgF1DapMBIC1tbXl5eW1tTXq4bxLkqTZbDrvREQP27Eg4r59+44fP37ZkctarRYRtVqt4tdWq7W6utrtdufm5q666qpttdQwDMO4IJgH0TA2gTe96U2f/exniajT6QDAAw884Jz72Mc+9vKXv7w45vrrrr/76XcvLi52Op2y3tpppGnaaDSWlpauvPLKRrMRY2TmJEmKA5jZe++c27dvnwlEwzCMixJfN74FMwuLd76YUFUdEdGht3IojoqZzs3NOed0Lhe56TGgdY6X975uVAwd+Gs0GrMtJtDhOaV6GBUpUd1OvRC6qqBWTF5EdORYmCOXI+1OSKLXHQASnyDVGx5FRNapdnUKiIjkiYQ4clGfF26b7tw4lna7XQ42UzH5Aw888L73vc97v7S0pN8Q0SOPPPKOd7wjy7IkSRqNRqfTec7//hwdgy4SkqO6W6yX23bNUoJOl5x8gDb+ufbcYx/72I9+9KP333+/iKRpqh0QEWOMnU5ncXHxxhtvvOGGGyZ7Q2fog7kGdV4/1LrP5CP7LDrps5yvNqEQwvz8vPfee69n1okB+k0tI/VCqHQuYkBXTEsOPHjtEBLzIBCTd8MUziN/6AWqS6vVbLfaOuO1FoQkThw5xEqxYrUUSeKE3QxRHxBHRBivFhwZq0dgz49iAADvak//1Wvhna8eT7mcdn5uXmMHV4kxrSTeA8DCwkLeLyJMzlqvlDYYRw4RawVi1gImPqmS1xCIqEaWW8uE5BxBRAiQHM0vzKdpaDSq9kRhYC76oGDNuFSOVFSUjR9rrdZJ5EhIqmQ41gjfkoXgvHPezRDxWe2MoQiBNuV4ve6I6NAVf0KFmOYiICIs3Gq1YhAfQqgl15i5eHZWuXEX3bWQCOWgbRU7c5ZlIYQQgk7kIiY3sbEXec0QpS1fOjDr/LD1kfqm4shlPaonHBJbdYup17F8LaZG2xtZriqZ6lM5hJBlWd2YaToaWzfKIveoHmqv0K/E/TZZ3dpjx44dPHjw9OnTRFQIprJoOHjw4LFjx0IIqmCKa13Yqcp7akbCEjlqFhoVsPom29ovyt+sL6BzTouQhezgwYP79+8/ePDgmTNnhjr7/Pz8wsLCkSNHrrn6Gu2YE6hlpBI55v2XcXJnH2Kg7/MIgRhjDD205jmy806/qbWCe6g+qxWzf4CWceB+yGOTs/C6u5OvFQiRhUMMMcQZxHr+Jlkxrib37/nlPysmjxzVSHZ9lVCljDHEGGKIATGZerCekAef1RX7vj5Bi+eLkxrts5y2bmAqLZ2LDjEJMSBi9QZT184RbXtUXjxK7Iws3QRTtSOQkF7BSDFW7vIsXH5BrRfNtSQSymcYZ63WCUdm4orPzTIxRBGJIYZYb5uIGZ714/pL1ecgCwAwsT937pxz7sIJxH7M2UG/Wq3KXVtby7Ks3W5772OMOqlreiF3iUAkorW1tXPnzql0uFgF4tmzZ2OMtZwfGxSIqp8q2tkXiDSLQLzhhhs+8pGPfOELX/Dep2lafJ+mqTqVjx07duzYsbNnzzJzs9nsdrt6gA7g6qWfIZp2rYa6fu7jyH6EiN77LMvSNN27d+++ffs+//nPE1HZ9dhutw8dOtRsNv/li//ipjlgZvMgFiK4lgcxv7+VBHT5J22Kj/Q4c+aMrsVOkqTb7Z4/f77W3NBZ+qD0y8LMLKyacmofLN+X9Kmswzj6zlDR2kfPPtrtdtUtVB19IfGuqse6fM8fChpUJTlHTtMUCcvtrUoZ0yxdWloKMZSnQ4xDTzjhfWmCtcVwSP4cdHXaZyltXYGYhSzLsmazmSSJaujqDYZwln5U/Dkur5H3n7pPCu0IjlwWMp3f0kiqPiZEJJYcgITTRxfLafN3GBy+548rrGZXdm9Vzy4LmbAsryzXVReFnUqVMm5EIJZffvzCwkKtsaptEYj6uGq1WkmSXJQC0XvPzIuLi1spEIvBuy0QiFmWxRgXFxe3TCDGGMtvPhdaIB47duzAgQMxxpHDlCJy8ODBW2+9dd++fSGEJEmKZ1jfg1hBIK6v+brTEqYKxBijVsLc3FyWZVddddU111zzuc99znu/urpaHLa2tnb11VffdNNNe/bsmToyO5tArHWfKZjQ9wuBuLdEWSAi4t69e+vmVfxZrZglgRjXvaRNFCVDdyddC1/9ZqXSZH5hvq5AZObIsYZA7JVCbS7+rNp5I6dZijgoECuUMU1TItq3d59Ppg9QFptMjbR8qljXypxFIJbSziAQQxaazaZPfC4QKzeY2YRs8ee4vEYK99FPivGmakcgor5ArPyYEJYL4UEcV1gViBVf6obIQiYizrtaN5lt8SAWutnr/m11JZQOkBWTeKqjjpOps6DW0+l0vPfNZrP6gPjMdoqILjVotVp1VZcOt9XyBmmO3W5XFXCtNjdbfda1s1znnU6HiAp9U1XiO68FrNjzC0c3C2t2dS9EXYFYsLq66r2vO83rmmuuufrqq48cOfLoo4+Wv9eKOnz48MmTJy+77DK994mIcy534/e6os6Eq0jRtpMk2dw+WJYgzWbzxhtvPHPmzDvf+U7tDuXDbrvttiuuuGJ+fl6/GfnaoHbqRL0t64M6k0HbzNLSEiLef//958+fX1pa0lvzZz7zGfUjfvCDH9Suh4j79++/7LLLZrg1zdgHIwQMOres1vB7lsUYovMuSerNnOuspVqftRIKQ4iRAjnv3JSpPcN2AkGtJIr6g8hRlZoZGuFsNBpJI6lSwPIUvWKsv27NZCHoza16GTlCFjJgSJLE+cpShkHHJTudznwy32h4qDNLbwY7lW43A4Bms+YbRYQsZIhYXMHiMo27oMKABLAGqyurBw/ur5WdMHS7KQA0m41aXamunbmRvRzr9sEWNFZXOt75VrvewyUGCTEQUd0uH4P0nMeFF79q2nNnl+b3zNkqZsPYBIho//79x44dO336dPl7dVBdd911J06cKIvOisOCW8/Qa/HBgwf37dt34sSJRx99tDx0fvTo0SuuuGL//v3lOZc7kCRJnHPvf//7P/OZzywtLYnI/Pz8mTNnROTTn/70W9/61vPnzy8sLADA7bff/tSnPnW77TUuZlR/EJHgDu3+hlHGBKJhbAJEdPnll19//fUf+tCHdKasft9ut1dXV0+cOHHw4MFCIOqU/93C0aNHT506de+995a/vO66644fP67LsetOOdhKGo0GIp49e/ZjH/uYatxmsxljTJLk7Nmz99577+rqqnPu4MGDx48f32nGGxcZSAAMhBTFolkauwDbKNswNocDBw4cO3ZMh4+LUdqVlZU9e/aonNrg9Nbt4sCBA7fddtv+/fvLcxZvueWW/fv37/yozTrp8Ibrb9i/f7/OjlhdXV1ZWdGrkGXZ3r17syw7dOjQFVdcMTc3t932Ghc5SECUb/Q2w3YnhrGVmEA0jE0gxriwsHDNNdccOXJE5z4W05/n5uYOHz6sE/jyxeOExT9CIqRa+yBuJRph76677sqyTD2jIYTFxcVbbrllbm6u1rzJ7SLGeMutt+himtXV1VartXfvXl0ZpkvOiejkyZN33HFHeQzd2CB1Nza6dEACnZi73YYYxhSsDxvGJqDBRQ4dOnTnnXfmO7oz6xDzHXfcceTIEe/9bnwkJEly6NChQ4cOXX755czc7Xadc8eOHbv88surbCay7WidHzly5MYbb5ybm2s0GlmWDW2+feTIkePHjx84cKDuRtmGMRt6c9iF9wPj0sIEomFsAszsnDt8+PDjH//48r6AiPi4xz1ut8ip9ei0vPn5+dtvv31+ft45d+jQocc//vGXXXZZobGwxHbbO4zuknPkyJFTp06pczdN06Gdvfft2/eYxzxGt3XcPksNwzB2FiYQDWMTIKIYY7vdPnHihH6jvqtDhw4dPXp0tthoO4Rut7u2tnbnnXceOHBgbm7uyJEjt912267Tu+omnJub071Uyz895jGP2bNnT91dxw3DMC5uTCAaxibgvXfOJT654YYbrr32Wl08e+jQoYWFhVtvvVUFIo5EJyPuPN9bQaPRaDab119//d69exuNxt69e6+99tq6my9uF3nYceajR4/eeOONSZLMzc2JyOrqaqfT0RjTN9988/XXX68hbbbbXsMwjJ2CzbkxjE3AkSs004033vi5z32u2+3Ozc19yZd8SXl/6d0IIjYajf379x89enR5efno0aNXXnnldhtVA3IkInNzc8ePH19ZWVEtvmfPHt12eGFh4eTJkwsLC+Y+NAzDKLM73ACGsfPJA6A5d9dddx09erTZbO7bt++uu+5S9+Gu9k6pRrzuuuvuuOOO6667brvNqQciCsv8/PyVV155/PhxInLOiYjGtL322muvvfZa3St7t7hFDcMwtgC7IRrG5qChAYno1KlT+/btS5JkYWHhiiuu0Jh4Q/Pedh2IePXVV3/Zl33ZrhOI6kTUaHi6xly3zla34qlTpxYWFoRFY95st6WGYRg7BRtiNoxNgIVVAhLRvn37jh8/fu7cuZMnTx48eFC140WwLdyxY8d0ncra2prGUFkf6n4847TXVlSLzva84oorvvRLv/Td7343MzebzZWVlePHjz/+8Y+fn5933qVZagLRMAyjwASiYWwOIiIijhwAXHXVVTHGK6+8UndOERF1Yu1qNK6xdz5i3LQZe3qaLVmi0263r7nmmlartbKy0mg05ufnvfcnT57UEWcNbrEVdhiGYewGTCAaxuagmokcIeLNN9989OjR+fl5/eniUB7e+0aj4bxz4OoKRJQxWrA4Te97vpBOxQMHDpw6derDH/5wp9NpNpvXXXfd5Zdf7p3XnRHLG1gahmFc4lz8AlFEYow2/dzYSk6cOHHFFVcAQAhh120ZOA7dymeGhCSAhRCUnhZkAAYohCMBEADChQs6mKZpt9t93OMe98lPfvKzn/0sANxxxx0hBF22QkSNRqPb7dp22YYBAMIgLPphhgkyIiKS9/WpyfVIdeTXzwh6Ye7rDUUggrAAQUU7kfKqKHKsBW9gFrqwCErdC4GIIICIdS+fmioCnpk5cvVQsMKShSzLMt1X1rsaEjPE0Ol09HOthDFGfePXieSNZMq2w1qc2MM5pw/pKu0vxigiRISIuryglgdIjxwK1TAOHZF03hFRu93WuLeTzzz0WYVvYWd1atlZRiVCkbDK1DokDDHkFyPU6yWEBAgca08OIyRhEajdjZuNJgCst5OFCzfh+suEiK1Wy5FDxG63W1SU7rRX14YqlK9g9fZJSNr1pl6IofJmWVbs1zO5oRbmOXIsHGMGzISJEwJgQGDvCfx9f/4Xf/r2d33yM59ePnf+tpM3fPXXfM3tT32CzDex1ZQYmWPiEBE5pOXyIk67b4gkzgOARIY8CWr6RqOxf+++k1dffWDvvvlW+4rLLr/t5lsW5uZjCA4JgB0gsEjkgfocWbelZqDZcYiVLoRQcQaPToQlivQuxYTkvQvBDsl5AgDO6o2JN3zSbraSxEmdTi8iDogcIBCw6CzNKnaq5pcYY4TyA2pc2nKLavgEALRmqpdRAreSRpI4YJBqNww9tUennyrWTFFGjw60q3BVOzXtfKuNAiDT67PAowPkxbmFRuIBoEoZtdYlikQGAIEoMv0FT0REGJFEmEMAAPEJAo7MbuR9gDlyFhFRsFKOACAcRZzEKDHWap9IIDH27PSAruKlB4AYg0SWCAyI4svFGXlFtGaIHMcgMQKRYI0X5hgyYAaWWgUEAIlRIjMLAxI51amTQQ/AwCEws/NUtM+ps8a1zWRpigAxy3yapuy58LRNllD6qh1jDCEws8rEioVUyaXPszRNu9KtPiVco2OFkIsMfQBPQK1SC51zjUbj3Llz6hiYajAzi8hQtNYLNEQoIkysj/kQwuRctsCeGahiiUptZedYXpeyNFzfdIkoy7IsZLPp9RmYrT3UeNwOlld7n75oafefah4Tq7LUk3hyJIwCodP9vd/8nU995P7nfP03XHPHY0Hgwfd/4O1vf/s/P/yFZ3zHt3YePZfMtdKQFW90IsIsvVvbpDsyFXuP9xSJKhV1hDQajch84sRVc/PzBw8dOnz48GMe85g0TWMIjjmGkGZpUWrNVnj0/TBXq6QClDQjjhyn3tOENCEhElE/bX7fGX3vrXv8elrtFgCEkEmA8+fPV0xV5KvFFK0ObRKjqoUG9n/vt7S8Mnv/m5BQM1LvA3OcXp8lHFEIEQRiiCurq9UT1kJNJXLFE5c5jivXuLT57ku9ahmntIbQMOLMMUmSii9pABCZQ5YBgHPeTZsJjT0LvXf6HASALGSSCo/ygI20QUvliJCQ9CpO855pfiHGEOPaWo1rp5Wp7STLQpaFqXmV7YzMjigyiWQhxCLtuPuk894DROYsCyFG7+rd6vXyhZDVekZoZ/fOMRNXq88kSUKIWchiCOU4XlPv/857RxSyjCOHEP38/PwMw6/MLCy1IkDkjTVEAHDeVewSSpqmRLR3797CEVglLxWIzOy973a7Ffcr1qKxcNk3Vt3DWgth0SlrTWrqHHnvxzpItsCeGagoEImo2Ww2m83dG3Quv4+zFN61MoR5ARFxa8YoZ2sPtQVir7z6ZthsNomIkNbXwHrzdIdqIhCRJPEOHQBDhE+97wMPfOi+H/uZn4I98wAAmZx88pe/6Alf+ooffMmN115/3Vf8G0D05BiASopDtdFkgZhLkN6OQki9BzkiIMQs0/A2N910U+L9sWPHFvbsAYTO6pp3DgAcs/Pee5cHt+klHJVTSb0Kay25tq9QvZgP3pXEQaGoxrnj6x6/npCF/C3dwd59eyqmKvLVui0rv5FZl+0s36XLqnFcwrKO1C+da9UaGltdWUVEQECkPXsWa6Ssw6hr0ax4LerW5xAhC5G52W4AQNJMpo+OqFs0Qgi5QCQ3sX1iz6cq+X9V9TaShurgESUa6UHU2diI3ifowIXRacs459FBIzQaSaPWM0IFotLbcbaOQIzsHHmfIAERMednGysQnUcPFBxHRkTv6025icyNRiNpJLUcJZFZWLx3PvEA4OL0+vSJV5dcJKonEJ1HnzfORiPxaZo653RvsIpGF77DxNUrp4ikWQoALdeqnp2OR6dpmmWZ954ju2pXhYi88wFCkiT6NP2zP/uzd77znZNTce/lvGzeBZrCyMzOOe99lmVra2tENEEgboE9M1Ddg3ju3LnFxcXdLhD1lXrkEPO5c+cOHDjgvS/mUVxQZmsPdQViUV71IM7NzXnvqw4xOyciWdYVEdfwHp0TbgWALzz6vf/pPwFwZ+lsq7UA3sOeFjB817d/xyv/yyuav33Y7ZnrxIyxb0Z/6Acm9f2yUB56YjsivW+sra5F5ocffnh5ZeVFP/ADMQRy5J0PMaRplnivTXSCn6wM9eqTe2JxWrXSkG1ImM/0Gp+27vHr0VfrpaWlgwcPrqysVEw1TvWMyxrHv7RsQRlFJMvCgQP7syybOso0Mxuxs259DpGFwDG25+YS79M0m5pKs2OOWRYAwHs39UaxtLR8y623POXJT77llluIXOGiJo8kY59NQ4YwxxCj9ggEnJw2TxIFJXepqgyqCgKXBGiVvApiiDFyjEwU87lehUAc//6DjJpdodgqErJQDDLUSoghZhwiM0UhN1if427nCK7hEClGShp1JsEXiwWZRcQXr3rVd3kotF3djSGwP1pRzwEWOeosckSsvl2IiMSi3TgCgHe961333XffF7/4Rd3zYtzksPLD78JtjVZ3iHBrrKpLdWlCRLPNQTYmULclbOWrRW+eBjMCIyCzY57P4CtOnLr8uhtgYX5t+dGWQ4EYAbzAkcc9TkL44Ac/uOxYALjXJwakcJ1JPwPG9LwaOriDhJ988MEQ1a/m9Famao9LkrSqoKlxQ9spr3bGpUPRsNfPSXCOiIiZ0zRtNptJo/HII2dOHD9+442nGg03oPKHWm7pTEOdEoUIGRHJ9Rzw0/oHsrp+EZHqdpHyqH3fCVoBIucc525IHCzIqJMgAgoCAZFDDIhYy1TnvCr1+gUkJHREeX2Wy1j3cVota++TtU6HyHkicr3pFBclQ4rk4YcfPnr06E033dRqtcY9XMvfXzhBU9cDtDVW1aV6y1F/0s6RthcHtbeb2cKenr9AIgsCAyCLE57P4PSH7gfngXluri0IjMB6R06wE7MnPvXJuNg+t9SfJze4PGvGjRdU6iGSzsdCROd9DCEP1pxPmKGhaYtVF41Vn/IhJhCNraZo2CPb8+Lios5TPH369Oc//wUiisw6HcCpQ0fb7MiuMP72g+XpGdPuUkgACPmktVq3NASk3mzgCXZOOIH2eyztqDCO3g4MRY618hqQ0TWNpHzGy+AcgBmokhBzU8nNerfd1dx0002veMUrWq3WOFlW7kVbIxDrehB3o0Asr6IyNotdIBCBAdSDKCQMAV77n3/003//oRNPuavZaAHrmCuAwIN/9VfX33n7f37ly6SVTJ5ruDGzACq4NAzjEkECIAFHuffev3zta18bmTmy39ieoBexy+mS4pITiK1Wq91ut9vtLMvGzYfbmsZdN5ed2eUujlJcOmxx/SPm77yYbxeDQPBVT3/a773rj1705LtAEIIggEMAgd9+6+983bO+EdrNte7aXLO8pAzHfJ4F3VkEEYEQdMSNsL87Y/84/e8kD8nmGWUYW8Ko5qxuIiI8ffrM4uLi2XPnmGPtrfOMi5EBgVgnsupuJU1TZkbEiqsldmZt7EyrDKNMvplAPu2FERHQgcCpr3rKRx944Cdf8sNf97Sn33LLY6HRfOjDf/t7f/z2W2+//eYnfnm3uzbXnBs7FlLXAb2uo6BOYtbhJCyNEw15FvO5U72/p449GcYOZ8L8PAYgWFxciJGFRRdSIAGyPWguaS45D6JhGNsJAgA/64XPu+8v3vf+/+/PX/fTv5h105vvvONrn3H3qa95UrHetjcnaMPUPYdJPeNiZVzbxiJASG+LIhbmiOhtRtAlziUnEHV70u22wjAuWQQcAsCtT33irV9+F6yugfPQTIAQQhCO1GiKRBSAHbOXk2EYxiXIJScQd9QeMYZxyUEEAKGz5lttaHloLYIIgOgSRGQUiSKCpg4NwzC2lVwglmcfXvQzEc2DaBhbBg39HwAAsNXWHUoRhBD6m0wQQmTCOruZGYZhGBeAS9GDWHdjcMMwNgUGkNJ/adQNCCvvhG8YxuZSCmJubpTNZhfW6PjgOYORNGfOoB8jK49N3hdnI5tg3bwmnKQIlTqUYxE9zASiYWw9qg5VIJLKxslLLA3D2EJ0rcoGzwDFztJTN6AGEAZE0BUydYWUMPQjxGzE6ippJV/TIyxCFUwdvKcV4Zpq2SDCLILlmik+VLhn6gqkCecfBgEEhEXY4j4ZhrG9rL/rGYaxHRQxgdYH5TM2SJ244jsFr0vaiQkGpwlN8K713XIsgpvcjEZ6BId8gZubo2HsXnaaF3z9PXD9Oyj2fIcatqofPKpulC3DMDYVDemWR5vsP+hh3LbZI0XPhAjmFxSOQr7GPUQdpVQqYGH4yPJOqIfxeQxkN/L7DTHyPL07qgjnA6e9/Szr2n8pzkE0DGO7wEHJyLqs2XShYewAihdOc8RsOn3dvHuqttIcxIIZ3BVDEYTLXsALNwcx/4ml7OwEGvREstgAu2FcaNY7E8o9nMpf7Z77pmFcxOiO2Rs5Q98zl09om54jCuY7ddfJube/9ybcO6rkm8+VLJiWZMhjh4STFc4Yj6zoaG1FT+e65FyEtq9SRiQQzss4GGqvNO2gfJWoZwU5Kr9hsDDE6fnp2QiJhWOMABBj1D/Lx2guI6d9Du1cyHG4lCNPFTkyc84taEQAACAASURBVIxRRCJHZNTcDcPYRuy9zDB2JiM9iDpGOckXM/j8VUGj++GrOiyCO4+TVOXQz8yx+GaqBCNwg6YAx6piUTOqBXMkcMyROcaIRGPPkNtf+j3EyCpKwhQLh0odmdVUoohCPc03fP5S1ogOJAIzs4gui6lYnwDgOC8gc+wLRO5NO1ifgHteABQsPHO5bht/sx86FQOXPYj650AtlMo6pLJFhLnnD2SZYGrZ4IFUvRhCU+rGMAzDMIwS67XUhIephnLWRy8CMkcRYQ4TRgjLX/fUxaTjRxomwhypuu8zMocsU1M9u1DyH41ca8wijkgGGXdyWadnOHIuXziuL1eVsVAR3QFC3Xtj9RIAqTuW8yUmgNPqfzC7vou0LxDVpTcyfeFBRIV0HqsgIk1wcSKUfXuExJCfXxPyiNEnGHlCRCSiIvd8Sc3g+defRFCISO0szJ5aO4ZhGIZhFBC5IQWjz9KRaowQmfL1Lpp2pCQaRyESqh1M5c+IWH2IwpEwOUT0zjk/4InEUTqEhPsqqEd188gRR0BCIjfqSBhXn0iIXGSoJ+z57MboJcB8S53iQtSof4IiO6+KSxe3e/R1Lgx672laRCxX8gA7cDpYnCTJ0E+T8YND4eVrOeEkJAQAqiyTJNH/VszRMAzDMC5BEJHIFaoCEdEX2w0MMeL5S8HFGPIZcgRI05/1EkA1DSK5RlVhkMO5aCGHQOPsHAFxLnhc4gDBJaV8R55DnP7kyUdm79xAkpGUzpNAwhQTn1Ay3kIZqR2JEIlI7Rw4bPyZ0IOHJHeQ1apRBJc4nyQ+8X3hVUtjFl69OtmCyrW6SQDAuZotBiC/8D2p3nuVselPhmEYhjGCYrp/WQzU3RsFHVRcnLDNIKgOzmXWVPmD/Q+kzrw6Q5LkkKeOfo86Yd93iJMOG5GQAHSyYt2hUwRCBOytYq4rDYtQJXUHbXl6DY0gxlh+m6mYStemlOOmzJa7YRiGYVz0aAAV7A0q5tSVFwLFQGdFVMTMPA1swNrKSMynMHryQIMbLoz2IPYCPgmwCAmPdPgNWjbwuVhuMvrkY/Zz6C+ZFjd8wOSwLJwvMKpXqb0Cgmws1F4VgbgpofYmTgWtHWrPMAzDMIwhdCeT6RHh+glGnqTSYbXOOZb1ZtZJXtvJVTfU3iC6inmSkWM2Hh8bam8kvQL1duIhXV5clVKoPa+rN2okNgzDMAzjIgUJiUgXK2y3LcZ2YnPyDMMwDMMwjAFMIBqGYRiGYRgDmEA0DMMwDMMwBphdIM6whNkwDMMwDGPbqbt9zyWI1ZBhGIZhGIYxwNhtbjaLgf02B/cyvHAOSPNuGsa2UPuN0zaeMowdg8bvzYP/cm8XuZ3cSaX+No09ONYvGEIejE63bNx0lTF6o2wi5Dy7DeZYMbnuSUnmQTQMwzAMwzAGsTmIhmEYhmEAIhUxJrbblguOCZip+F6Yv+GaukB1N2MgnZKRQ2cogqZsno2GYRiGcYkiwjGyc4MysU7cPOQxsYN3+4O6F7V5hljMIECOHBHUqcwNxWJGBKARQ+EVok4PxGKuBSI6mhaCcGsZqTuJiIiKz8V/DcMwDMNYj85AZI4a4U3n6pHfJIfRuNMgAIAjcq6m6oI8IRQDotWFrAPi0lS7qepgY3UgUWXlNrktR0V5nopnZo6s0fbKpo+MxawfmDnEwMy1/HYaCpmZZ4iMzD308zg7yxBRDDHGqKliiM67GMfEyTYMwzAMA0Cf1LpaRSUjiKuuLTgKMyMKsQcCkOm6RBjQQQgxhDgyHvFkQogA4JxHV0MDcZQQIyEjJuhBQv+nkTvgCAMSAIFEiJERI3ENF1uMQRf/1C0gc9QIzsS+ks7DPJ4yc1StRZB79PJyTU5OAAwxskTwWZYVswmrCERCCjFkWcbMztXwI6oizLJM1VstgZj18N7XEIgxqp0xxCxkLKy5G4ZhGIYxhLqK+sOalM/giiFWf15H5hiCTmckcuqSnJxERIgphCwLWcjC5IPXE0IGAM4RMdWyM2SZygknPsZ+viP9fLnYIhdjCCGrO7EtywJzzLJQt4AhxBgDk6s4p06N1LzUZud4QrmGcM5rAUPIag8xR45cYurx1Ud1tczVHbB6fPm/QxRGqs2IWMVgwzAMw7gEUZfh+mUJ65et6Oizju0O/aS75ADkm+VI739DuQydn5yEEGMI6g6sRc+DGFWOVkzFHEOISKhatpzvOIHovdORdxahicJ3ZP3kuweNUiyT6lOKKuyfZ8LxpSSaHRWVX0WNFZmxiPfeO+cIqfz2MHQJi++pZ41zjplbrdbUzApNpi5DHeT13q/3IE6Qxuqt9N5774sB8XKq9agcVDsbjYb3noiqGGwYhmEYlyaoiomcbr+nLqURhxEUWwkOPYWJIhISoveJjvnmg7P9xOtOJ7l4SdO0NdesbTMhADSbjXxEuxoSIUkyRPSJB4KEk0kWQq8gDhCJI3vvvE9GHQcj68c5v7YWEck3vazzIU6oT9XrzpH3iR5W1Ofo4wmAQIe/C69nWV9NdsOhB8Qk8UniE09EzrkRQ8w4Yoh5BsoeREQsLxYZedpxy02cczowTY6qDDEbhmEYhlEd9W8h0oAXhsauzxi5eIXAORFERJfPh7to9pPREpFDckREOG2SXbl+EJDIkaP8PNOO738pzjnJs9OdunHS8fnFonx8X/Vh/ku1K4EOyBE5vOCRVAzDMAzD2C0goiMauf+dcUlh274YhmEYhmEYA5hANAzDMAzDMAYwgWgYhmEYhmEMMLtArLWR4RZjMycMwzAMwxjHyN2wjTJWQ4ZhGIZhGMYAu34V8wRnYS/EdX8HH/MsGsbOwnrk9rJDB4GMXcKo9tPfVVvymG/9wza9vyPMEJpP0U0EB041tTsIAIIw6E7Z04+vW97R9cksglLKrkq+Ar29tVnYDQTZq2yVeRANwzAMwzCMAS7OOYiGYRiGYRjjsBHFqZgH0TAMwzAMwxjABKJhGIZhGIYxgAlEwzCMSxKbImQYxnh2/Spm42Jk3bI0sTcZw7gAlFc1rp+RZQrSMC5h7Llr7BRiiKN/MHVoGBca7L+WRYFo0vCShJwjR0gbXb1h6z8uDgY8iOVVySNXKItICCGEAABEJCxcbQ8iYWFhZt2VB7rdLhERVm2IzNztdjUVMzcajalJYowxxizLmDnxSRYy51y3262SnbEtRI4OHIAMKEIcdGzYc8swNgICAAgDAghD/1ZPCA5Yf9dN1LjX8+xZf8lAiMISQ8iy4BOPjLD+JlzchwWE+1KBHOphusMJEeWNLQJz/vI/bucT5zwiCIuIhDRUN1hEYsxFSGeti4RUWZvGyCKimyUTOeZYmDdS4BI59CABYgzOkYiEbIqp5fMgUpL4xCcAELPR3pCR9RNCjDEwueKEUzeQGdJyzDxoyaQqQiQAWFxYBAB/9uxZ51yxuWWxxWU5g+J0Q8bV3eambFattCrsOp1Op9NJ0xQRvZ80OE5ERCQiKhD1g/d+aWmplsHGVpIkCXAEcgIiPKoFmzo0jI2DgAjSCzVWfkvPANIQ5rxHBNvE7BIkTdNut9vpdFZXV9bWVkOIAJAkHteFpRPhkc9xlVuIyByzLIgIOSpEG49qVTGEEGMjaQBAFrLTp0+7ic/3ATNYCvWp4qa68xIJXU8niAiR60udUa4rjqx5NRoNRIzMwlM6Sfk8mnx5eYU5Rh7tWRt5Qj2JsISQsYh3jshNznfkdRlp1QQDkNDPzc1579fL0h0oEFutlrbg6gIxhBBjXFhYUIG4d+/eWgYbW0ZIO77RevOv/8Yf/dEfLa92AIjz+Q9EbEPMhrGZICEAO0BAFkIAJpLnPPe59zzn2eypE9KmbxDZK9klzeLiYkkgjpYUhXAs60XViCoQNXkhaPSwIbIspFmqrrUsZI2kkSSVBaJIWWxRL3ZaFdRxKCJZyITFORqSOkMwc5qmIpI0Go6oylbQ5fN0u12VoYuLi0SjH2ojT1joriwLIuy8d2OSTzhPRQ8iM6tjVQ/zRISI3nkkHGf0EFmWAYBzruLxZaNLDajGuEWz2fzXf/3XZrPZbrcbjUbFfNV3qHl574losqw0thHnPADcd9999330Hx9dWhUkEALQ/9oYl2FsJsICyMACwAIRgEXCiatPPOvZz/ToxTt7J7s0abVarXar1Wq12+1yoNohD2L+vX6X350dB9H1hcwcYwCARiNx3g2sdJARri+XONclIlpbWzt//vxjrjxWw2IBigPOrHW+zrFwFOaISM12b9LaxJCADpz3SQhZCJEjN5tNl0x7NJV+d9FzZHLknKdxCUcJTg4SYyCi9nwrP2GVkIDjLRn7QBWg6IiiTgckRO+c885TnRuC9z7LshCCqq7qCRExTVMVfNVTAUAIYSiqcsXsLBbzboCLS/Mv//rwv5x+9OiVV935ZU84v7S2uLjIGQMAjXrvNAxjIyBwwzsi+bsP//W/fP6fz547hxydQ4AEgPtTgW0S8CUDkXNERI7I6Us7ADjvJkiKokmQQwAHABgpxtR7l6vDCrGYk0YCBEls6EBzHYuBALtd1RUNqOP2RsQYGVGIPQyI3TEIoIPEJwkn3W4qwlreijTbjc5KlxDHqsPNojdnlDMRYUQiVy1HBPTgwDlwy+eWF/YsmEfN2BGISP5qhHTDzbf94A/9eBRotuc5CwSAJhANY7Mh4MTR2UdO/9Sr/q+HHnogXVuTyBEzp157tA0ELjlE14n0xvpmxpkP+qLABKKxg2AgEOqG6BvNubkkMCAlKLYbk2FsPiiwvLLcnl9k0elYziM5JCjcKTbiYly8VB+M3r2ICG1g0yITiMaOggAAhLIoq+dC0vIxAAKQCOAkJyLayJdh1EEQUKA9vxA7q0tLKyhAAqSjgaYLDcMA8LomfbvNmJ3Jq37Ku/ZUWXNkbBeSL+UnANIHlW7cq4vuIwrJpFZKdmENow4MQAIpS7PZajQaIuwAkRDQATjobYloGJMY1Ub6s//HRejZRDbwPsNRWIR0W1DMt//c5LwGTygi+UY/F/SBNdLOcsykybkjgACLgJgH0dgJCGmTLXRe35+hrg6AkRsjKiSjfzXVaBhjEWIABmAU7SwoAEzg8+2ltts+wzC2GbsLGNvN4ER4nXFIwCga1IGxWrQewzBmA4H7oyu9/mi9zrjoqR52ZZciIhuZamkC0dipIJsX0DC2ht5SsHzbDlOHhmGYQDQMwzAMwzAGMIFoGIZhGIZhDGAC0TAMwzAMwxjABKJhGIZhGIYxgAlEwzAMwzAMYwATiIZhGIZhGMYAJhANwzAMwzCMATwzxxj1D0Ji4eJzcVDxpfdeREIIIYReHOjRElOTa/g0DXyHF2ZHyizL1n+peTFzlmXM3Gw2syzzzo882DAMwzCMkejzfyhQbRHPdv3xzDGEiISIRA6F81C3444HABEmcjGEGAMH6csG1RcXbDfrEKLmReIqBuMlhzHEGAIA4PhNqNeXV4SZI0cGAS3j5OMLYgwhRHKCSMVhs9XP+nxHFNAjB4khxBB9lmVFZhFi/0TY3yq1MJqZETHGqAJxwvUOEopfmbkoUqfTUVVXKyxymqZLS0tEFEJQG4qfvB8RLbAQiDFGZg4hqAgupLCxi7C9sg3DMLYLEWGOQ49sjSk8MhJJjBxjQEZCFCERKWIQj4tcwiJOJMQYYowxFOcXlgkyo6DTWQOAGAKRqy4tNCMVDM7JVIGoJnlxaufkQCzryxtCjMzMMaRhfUYT6ieEGGMQIdII16WYzuPqJ0l8CDGELITYyJLS98m606/HR5XqMXoNqk1EiEhISLje4VdkXwgvdRx658nVGKRGRNVzrVarrkDMsmxhYaHdbg8JxJHnye2MTETM3Gg0HDnnXbPZrJ6pse1oOOYJUZiNXYveNy5EwI7yHckCgkyCbI6RUY31A4BuvDZCQmRUdxciaTeccLw2xSKB5pUfX62Bxpio+iGi6tICEVUjFhlPPl6NRCRCJsTCnzeSkeV1RESudn3mUNnIyfXjE18IubIorDKQW2RGiD5JEtV5E1IO/UREmuW48eUJJD6pbmg/VZJ471VcDmU66Qp5BwCRY/F5pLvRMIwLz+C9Qu/hvYfH5p8ZivMrphQNY0YQkZyrfjxFUS3jEw8EIA6maTZhQAc+SxKf+KT2Y9qHBAC8T9DB1LwKVAepLCGHgFPSCgMSAAFiEiN77+qaGpmSxNdNpXY6Ip/4fDR5ahkJXOJU+3pfEohVJBuBJ+994n3iiWiyOlyPTkMUERXs1RMCQIihkGs1UoUQY4wxJklSDIgXxqw/vvB0hhh0gFu9njbEbBjbwRgNJ5ulEQdPW/7G3M/jYRPORgWwpquZAEUIkaCYITetGyICIDhH5GgGt7ZzBADoKuXVT+Xz8WhyCBUm82Hv5OgACZ3z9aqFXP7fmgVUOwcSVikjApFzIugGvqxmKzhH6KCvZFV4TXbPFuPfSsVJneXkxfG1EhY51k1o7AK0y23gqtokxZ0DliWH6P2MYPwrr2BZPtaVK6Ub7ZQ2YOPOlakxsmdcwuSDAKXPxS+sj2kGccMH7KQXNo4y5G+qk5axdQFsGglCZFZ9ucX4QnjlllQeop6tZosktdJiaWpClbkCI1NduJXUhmFMYdrwjWEYO5dxnXfU21ZfVEiv40/t+wKAwCLCMsONgoeyq4OI5GPHVYzs3cqYI1QZ6h3IiHW5zgwFFNaErmoBEfoXom52WkARELA5eYZhXFB6z5Cx8182w6VX6dVP17dN2m7DMAzDUGwkwTB2JTyTxJkt1Uhqr1HDABh6M9/yfyiMUnWCwTTjy2ceIEbGjUxiMAzDuPQwgWjsdHSzmwn/LikQ0TlyjhwRIgJLzDIOaZZ22i0iFOBIKISCkGuvhTlaPr8ELFk3VZml/7K0IzE8euZM4ogAR/5rtwkRm01aXl4OMUTmEAMirq6tkYNmk4hoYTE/JsRARKsrKyHLYgjkAEkkBpRIwK3E713wBAGQ9R9zYA4Opd2kdov2LNDaygoBcgiEQv39FjBNU+eIOa51OmudTqtFPiGWWPzzCbTnKM06kUP5HxHs2QMowRP2FC32ttQodtXA8nQUwzAMA8CGmA1jVyEiaRYPHvCdDmYZiFCr3VxbTQ8eaHU6/WPyT8jCuLwcFxcXAWBurhVYIjMAEIprNADg6NHDOkE3xnV7tzIvLevC/6TVbiGSd67bDYv7EWAuBgGPyysrzG0WWV4OSLiyvDI3P99s+tWVTtrt+iRJElpeWQGANHWRmyJRIOqrKRJ0Vjpubq7blW63i863Wm1mbjYTAIjMephPsNlsLS11yTkR2bNnfmmpG2LsbWvKhBiysLbWbTYbGjypJ/WIGdY6HhFYGJFsYNkwDKMi5kE0jF3GH/7BH/zTP33x/PlOjOwcrCyvAPJP/fQv/v0//F2ns9pqJ2trK8Vgq/PYaLgkoSShLMs4ZCRMwgjsHTYavtPJVldDlo3YAcp5124kzcRLDO1Gkjj8jbe8+Zf/62vOPZqmadps4iNnzr761a9+8MEHP/rRj95zzz3PfOYz/uqvPzDf8p3VTjPxDe/StdVX/9+vfsELnvf+97+3Pdfsdrtp1kmzTpp20rQTQ2i1m1nW7XbXGo2GT5wGyFxaPi+9IAeMMNeGLIP2XDOGcGD//Npqtz3X3L9vTh2lhBg5hJgmiet218hhs5kkidN/kcPKyrLzjpmZRQiFQAgYbQN2wzCMSZgH0TB2ByziiETkmmuu+e9veuP3f//3IXCr7dPMPfTQQ5/+1KfuuOMOjnFleWXv3r1pmuapOLRbjfv/8YE3vflNL/6hH0qSfK8EEfj0Zz7zcz/7c9/xHf/x5ptvzjfCFcpjrAsgCQv/4/2f+L7v+75XvepVN9100yOPnPnoP/z9D7zoRRzSvYsL3TQIp6vLZ9dWzz/21jt+69ffvLAwF2Ias3jukdOvf/3rP/CBDwThF7/4Jc9//vPa7fZrX/va9773vVkWyoU6fPiyF//gD95626mV5S4yfPz+f3zzm9/8wy95yUJ7joQjEofw1v/x/2adtW941rN8koQIIUbv4A1veMvbfvd/aBEB4JnP/Drv3W/+5m+Sc8UcRBJAdE960pNe8PwX7j+w2Ona0hTDMIyqmEA0jF3AgYP0yBlG4MS7W28+9VcfeP8H/vL/P3To0Etf+uNEtLay0mq1v/Hrn7myspr0tunPsvBzP/ezt99++8P/ejpkXYfRExMgi3S7a3v27Ln6xPFn3P20P/+zd1578oo9e/aAeI4+BHFECEyQ7dnT/tu/vveuf/Mlt958an5u7jd+/U1P/sonhrTzX1/7S//hm5575LJDe9vexc6ZL/zz83/h58+fP7+WdtMsffaznv2iF33vT/zYjz569tFf/pVfWVk6JzFwyOZb7f/wTfc8+clP3bt3bwgxTdMQsp946Y8nDjlIw1Mnyz790INPfMJde/fumW8n55Y7AQQ5zmH28PKjnbVVoqS7ms61GiDw7Gd9wzff89w/+ZM/OX369LOe9Sx09Md//M7v//4XffVX/1vm+KpXveqe5/4f15+89u/+/kN/8efvZc645yEtb99mGIZhjMMEomHsdFjkkTPsE0rXOhx5br79VV/91e977188+Ylf8ba3ve1Tn3roj97+jm/7tm87dOhACKHZbC6vrGTdsHff3k5nNcu6+xYXzj5y5syZ02lntdFovPzlL//wh//WNZJG0gKAZst9y7f++crKyp7FA//u3z7zuc/9lj3z84AcJXvowc998C/v/YZvfHa70fy7D3+Ys/CUpz7lUw89dPLkyV/4hV/4h/v+rtVqMfMjD5/+yVf+5OHDh+fn5lbWuj7xZ8+uAIAjJzGKyMJCm8gBBudp//59aZbGGGJMQwx79iw0mj5LO8vLq0H4wQcffPe73/17b31b2l1bWl779u9+4TPu/tp9exYe/sJnm94td9PEJ0QkDIuLc2naHxZvObd2/tyxI4djZ42IKKR72q3uynkModnwhHh+eSVptYFRR5adKUTDMIyJmEA0jJ2OIwKATieda7Uic6fTufqqq6656lsBoD3XfPef/9lVVx1vNPzHP/7xt77td77n+S9YXNiLCa2tLIUQP/7gg7/w6l88e/Zsmna+8zu/88u//Mt++CUv/uIXv/iHf/SO737e88i5I0cOPfTQA29685uf/aznHr3iJIgHBwLIAf/mbz8MyDfdcN2jZx55+9vf/pznPEdYPvwPH3n60+9+ylO/+siRg2fPLr3+9a9/ylOecsWJkyHtPrq0Ojc3L8JnHj37ile+8qEH/qk91/6bv/mrN73xdS/83hd01pZ+7XW/+6u/8tp2ux1CSNM0y7Jrr7+h01lttRvNZvMfP/6PB/fv+8Pf/71Go3H+7Nlf+dVfu+bkyW63e/r06YcffvgVr3zl87/3+1utFiEySwz9vWxI2HF3Djr/z8+/otPpEBE5933P+8so2Gw2v+yJT2q1mgEIhIp5hxaEzzAMYzL+It7fwSKpGBcHIpI0KLKLzP/tV/7b7/3+2xYWFl764z/xJV/yuA996EMfu+8jd7/4xUTUaPiF9rx3DkkcegBoJI0bb7zxjb/2+n/+3Gd/+7d/83ue/4L5drPZbJKDO++4/S1vect3/sdv/8IXPvuLv/iL33TPPTdcf/0jZ9YazcQRRKHI8YEHHvjKJzzp4KFDn7j/gb/9q7/+y/e9XxBe85rXHNy/DwDSTldiWDp/9l8+/zm59ZZut7u6ttZqtdI0PXL44M//zE8/8MA/vea1v/T1X//v77776SF0H3rowZe85AfvvPPOdrsdY0zTkGXZK1/xU0nDp2na6XQ+/c+fijFFxJhmMUvX1lYOHz7caCRZFjqdzvzCgW++55t/9md/5sZTpzhyjCFpNLR+EHih2ZBs7du/5Zue+pSnrKysvuY1r3nuPd986tTNf3/fR9/xrj+JMQjlEesFNxTX0TAuYiQP98EijAS5v31kgGPtRFT63KP/5NVU5bQTn8CEiIQDx1hX3VwqKyDvnPBMHkREdLOGBay9uS6AjlURkaY1kWdcgmQpE6KIfNfzvuuee77pjW/8790sPbe89Ncf+OD999//PS/4bo6sDsX3vfcvsix6509cdeJ7XvC9V155JTWb6VpndWk1TdP/+Z53v+ENb4ycra2tLS4s/v7vvm1uvgUAP/5//qij5vU33P6yl/4kgltdWr7vIx9+3/98/0/86Eu7nez666//rd/6rZXVpU998sEbTl4l6RpwbCUJJHLlkf2//muv/dVf+tlGo5GG2G7PnbjqxEtf9vKFhYXO6son/+kTzaSxsrS0vLL0Ld/8zfnDgyWm2b7FvcvLyy972cta7dbK8srS0tKfvutP0jQ9+8gjhw8f7nQ6HIJ3TkQWFxevuvqqf/fvn/2VT/2aH/mRH3nhC1/4hCd8xXve857Xv/71zWbz9JnTb/3NtzzrGV+z0PSXHTly4ODBNM2azeaxY8dWVla997pahVkAGYBUHdpNxDDWIz2FOH0913jZp8oSkfrfT+1vKkQRaej5Xq2jel1jV+xzWg3yqIOo6GsYqRk55+veRJx3GMn52gkBwHvnvBshuCeSF3AGzSWQJAlz9MzMkZEqOdj0AGYOMTBz3TWBiBhjBIAkSWqlDTHEGDVtaZOz6XYq+pmI9LNh7FK01+w/sJc5OucS3/zu737Bt37rt7LIfKv5iU/c/4Y3vPGHfugl+/fsCzF0O1mSJK7hE+/37d/3yKOPfvu3fcdPveq/vO1tb1teOc/Mv/Ebv3Fg/4Gvvft/W1xcbDabaZe7KaXdcO5s3L9/8eMf/6e77376tdde227PE9HZs2ff8Qd/+PSnf22apll37aU//mP3f+ITjv4Xe28eL0d13fuutfbe1dM5R/OAmEHM2AYMAiFAaADMIIwxtiHEcYid3CTvxb6+L/c6vi/Js9SDUwAAIABJREFU594ML7ke4ueXl+vYediJn4dgbObRSICYHBzHBDBCDBKThITGozN0d3Xtvfb9Y3f36TN2VUs6OpLW9+MPbtWpXXtXdXXtX6219lqUy+VmTp/+F//9z08+7ZRqtWq0QaUBYPfO7eteejGfyz3xxJPVavXEE4//7B/8t3Klws6FyMVcLtffP5g4d/nlH/qtW35r3bp1J598crVa3b1r9xHz5r66ft3RRx/d3d3d3ZOvViu1WlIslY497thbb731S1/+8jHHHLt06dIPX3fNA/c/tGPHzps+fn0O7ff/8R+/+rW//fJXvxbHsSd89lO/iUjsYcmlK/L5/EBsU1zgwwuSPGfCcHwL7HyYMcmp8cpk+rFmVGZnnSNkRIMKwA/tNsFxUIG1zlrXQenNkBuBSIXuUuKss0GQgCGNbRvWSzYTeAvWJsC5TIO0iXXMNkk6PkFtNFC60qQE4MElzjoXYdTcPG650xbYeWbH3gOzTpLEe5/SAxsMh9bZkI1WqWx2RERMkgQAlFKZBGLSQGudSSCGceZyuSRJtNKhd0E4qNm9a8/AwGBXVxc7N1iJATCXy9dsUrNcs65mObaOkHQuPzAwsPWtbX/4h38YRdGsWbN+8MMfGuWZ7dxZs19e/9LObe9dfeWHtNaIODBQ9qwAc2QUIm548521Tz5x48dv0LkIFbHHp5566o677rnz7rtLpdIZZ5zxV1/5Wi6XY+fWv/LKIw89PPeIY/oHkny+QFrvGejv6enZsXvP+pdfPvaYY3a8t/2un9z9+c9/7nvf/b4iQqRXXnntJz/+8X/43d8t9XTHSS2KorhSfeP1DVdc+aEXXnjh6aefnD939oYNG84597yuYh4ZlNY2SRTB7Jkzkpr98//234PETKrWO/YuqcaJKUZO5a694aaPXH/dpk2bvvPtb//mLZ86csFRL657+cmnf1ZNbLGrGCfyfigIE9FaVSixibO2uX3M/cecx51j52xoQkyt9sgJjkNM1iaJTWyS+V3O2qArKHSXupVzjXyr2rfXJEEpESnnbJJkHmeSWGaXJLaDE0xsXboQKeYxctaOQBvtrEsS65xtNcqmccDWIwwcK6P1iD9M3JI9j3jJaNvZ6L6bR8jUKmuniNjyKhT+k9nkKQhThPr9zB4JtTG5XK5aqT39zDNf+cpXoigqFAq9vb0AUCjkPvPp30lsQkS1WvL5z3/+6quvWr36gX//93Xf/va3y4ODjz/2yE/uuL080B9Fplqtrn/llf7BPgDSKk8qt+iCS377t/9Dd3f3Sy+9NGvmnHMXXVApV/Mzi/19g4+tffL4E0/60z/943nz5w0ODPQPVErdPXEcz5g1+53NWxJ2M6bPevXV1/7hH/7+c5/7nNF686ZNx59wQl9f38knnXL00Uf/8pf/ftRRx+RyOURmBiLjnLVxrZDPVZMaAHz6059OnKMP4K233vrQIw8NlAdOP/10hdDX39fT07WJMKlVFZI2GsBoTW+/veXIIxd0FUvVYskoVanWPv5rv661cswLjjk2KpUADZA+d9EFH/jgIlQqcaIORzJG1WpBaBDmzZBFYTzD05jl0ZvTNHuPjRk4/GmC4+CQczvzNN08fgfSon6mlKphOJvOxtk4v050iGefqbnnIdXU+h2l9xh4z4iojTFa6eBibkuIAiSkYJ8zxkywc92M5xgAmi7sCVzMo/dvGavXWhtjjDEjHOJj7t+IZqiPU2kVIgAmHrAgTFkQMZ/H/gE7s8ds355YDzXrlq1YueTipc193ty48fvf//8/+9nPHrlgbhy7UFLPWs8OOXHTu3tykb7hhht+8zc/+f/87dcR8TOf+Uxvb29PT88jj6xZ/8qbn/zUb+VzxSjK7+rtffyJJ045/YyenunOwe49/cVC4Wtf/xsAiOMkcRxF+XyUc9ZXyhUAYE5++Ytnf/rTn/aXB/74j/9k5pyZg+XBNY8+cstv3vLPt93WNa3r3EXnnnzyKX/zN3+zfv36gYF+Zl+pVP7l2We8d4PV8pe/+tUFCxbMLM2gWnLEgvmLzj/vm9/8xhe/+MUoRwyVrpLp7dvdPa3HGNPVlRus+CSJXc0dMe+IymDZxrXK4GA+n9+zZ/ef/Okfvf3W211dpfJAv7X2mSefLpS6qkkyd/4Rf/x//smCI48EhqYbySMCgAcvYc2C0KRR/BwR0Zi6MNBKEY00sDXcdA4AcLjnksmF4xhtSGEQK2H/cJDRvzjvPSk0iTFaa22azlB2qX6hRjsAUEpn+i0j2jAwY7TSakx3+YhBhsA+RNLGhHGOe/Cxxu8cm3EaTny+xiShISogp9rujxo06fAnE67nhNe/FWZHAM5aIqWJiBRluqykiJhSrjgJ4myobWOhyXg9jti/2UopRUSIOGK0Y+4/Ypzhc8dLZAThgGOdq+5JlNa9e9zmzZt/9rOnrr32mv7ePcVSqWkGKkSmVCiU8oW+vnKhUIzjRGmqVCualNamVqsNlKu5QvQv//LC3Xfd293d/dBDP/2j//rF9etfefqpZ/7Hl75eLHbFcaIVbN68+a233vn93/89j4p9Mm/utJ07B6yzW7ds+4u//PN3N28+8cTj/4//9J+OPGKe1rpYyJ9x5ql//83/edWVV37sphtNlP/CF/7LJz5x48orLtd5TYjsOLFJoVT8z3/0Bc+stX755Zfvu+++3/3d3+np6XHgrbOK1ODAYKmr9M67m9c++cTCU05d89jjZ33wHOIEFCWAvX0DzvvevkFjit3dxcHBWqlIzGbPnj0//vGPb//Jjz9y/XVf/tKXoigCgJ07tn3z77/5yU9+atbcOflCyfq6T4YQ2bOXuDtBSEFzbg3LI9CPMWWPs1xVKeURkRQCAba0HW/eR49AQIrqcYQNSKczXYX5XWGIvUsJeaW1D37bMM6JQY9hQTcpVESYIsKudfxN1TRBw/HOl0jVGyKkvT4EREopTy1JX9MoPQIVTI9IkgdREA4GBgcGSl1dWuP3vve9J5548q/+6v/69j9884PnnPNrn7gJkMkDANhatTzQz7ZGKooM2JrWRieonHXd06fli0VldKHUfdIpp959731K63Xr1n3hi18EoMjkfvXyurPP/qDORYzwr//6r4sWLZo2bbpWJo7jcuzXv/r6n/7pn5z5vjP+4i//Ys7smdVqOdJqw4YNX//aV3ft3mFtnDPRzt6dUS63du3jKlInnLSwq6urv7+fjLIMlTix1kYmIqPjJKnZpOZsbF1sHYPXJrLWAsDW97Z/7/s/XHjyqZ/85CfXv7L+Ezf++mf+w29fdtnlV13z4f7+AY/U1VPavWvQWm+M/n+/8f898MADZ5x2+q3f+adiMVco5JhtOS5H2qBSnhAVoaI4jgEAlUlqNUQFGcOmBeGwomFAJEyznEE4tBGBKAgHBaWuLkWUJO6kk04+44wzTj/9jC99+cv//MMfXrXq6pDGBQBQKaXUx2/+de99ZPLMbvnyFddee+1f//Vf79y189prr8kXu37vf/+D1197Pa5V5s+ff9llV3zvB7cp0iaKbvvn2//yL/76k5/8jbPO+sDPf/7zW265Zeas7sGBmonyyuCZH3jfHXffpZGq1XKUz913333f/s6tp5508pe+8lUAKBTzztpvfOMbl3/omu5pPZ/93GdnzJrDziPFXuVq3rPSX//a//2zZ35m8rnEWmQeHCz/4t+f994TkTHmD//Lfz72uOP+7M/+7LTTTlt1/fVV52bPX3DbHXc8cP9DN3zsJgCoVqtKK/BUrVbz+eItt9xy/Sc+9uu/8RuFYuSsr1arX/na3zxw/wMz58wuDwwgYnd396d/57dLxe44jnPF0umnn/6FL3whMhEDoIexTCGCIAhCneCMFoEoCAcBWilmBsIPnrcIABLnAaKP3fSpj930KQDgUYqHPFBjEcLffeN/ho2O7Ze/8vXmPkj1rGPMdNPNv37thz86fXrh29/5fqlUOuGE40NKKCSslOtr7hLwyhTKFb7yqo9cedVHqOHKYQDU8Pt/8F9//7N/FLbFYcmdLsYOEk9k8v/xD//oPwIwgFL1TIQegb0nxP7+/p4Z07/z7e/ccOPNFy25CDUMDlZL03KVxC+7/Ipll19hjK5Wq0rpeox1I2KeEQdjBwBg9O/9wed/7w8+F7arphvFEwBwPRbZ1a8SMgKQZEIUhEyk/sVMlChbOKgQgSgIBwEhIRmCGhFhE0TPiKgbbPyJhi9fCxkKhzWvNyBlALWyDn7rlpurn7iJmePYKq28D0E93FgAR0HbAQA3dF7L0RpuKWQAyBWKv/e/fS6KokocKySttFLEzIDgfVgfAkorZQqO6ZZPf8Y5bxnK/fG0afn+fttyWM2gsfmwwhH/34wurruPuXnWw/YQ57IgCEIGRCAKwkEDjUpLQp546K/Q1HwEDJ4blkVq2NLGPXLv7ri7O1ep1Jx1xWIBPXnvSSO74GtoBiQNDcATwfA8KS3HJ6WAEBjII5SKOe8hScBbzzjMqtDbX+nuLlbKtRq76dMKu3YNdHV1AQK06DkPAKj88KAo9PWVyOHz0EXwLXIZWarqCYIgdIYIREE4yMBWldai3YIYamR8GqEbw94UbHtD/2xY+wCgvz+eOT1nHTgLSkO16po2udEwDnXB46wL9h7iONY6X7MADN770QrVGF0p12bMjJIEQhqNfB76+3hYxS0G9GMXUB69cZjd1KcsOyAIgiCMRASiIBxktCZqaRWL9Xqm9X0g2Bcbf+Nm49YDNcnlDXmoVDiEENmknpp7vIxUrdtGur3DDh69h1IhHyIhw6FG601tDABUBuv/nNbVlVQhInLcckwGNVTYtVXgtuTvHTeVryAIgtAJIhAF4XCB/LheZhql8dTeJQ313jf9yEgTurdbaO40bDzeK6gvbZGAd0EQhMlBBKIgHMRkTfs8XAgyjF7h0slxxsO3fBq7wZjZdwEAW5zH7Bt1TyYarbiSBUEQ9iXilxEEQRAEQRCGIRZEQRD2O1nrHbfuL2+xgiAIk488ewVBEA5HSCYAQRDGR54PgiAIgiCA9559+I8E9QqgCakD7894yS/StO2sVbPH9EcY3aqz3gVBEA49WJb2CBOAgCE7PWbLHoAKkHEoM1Xq5AOEiIQdZCqop03NWNmPFIZaAvUc/GkaNroYKiSYGkRC9MMuS/q21HI9M9Y8HLZ/irYh6UQQS5o9k8+mEX2D9E1a23bWqtljSKg28QGxXmG2TvhMROGzMLVoVGwT8T5F6OxHevByuJ1vG/xQdk1xMB1u+IYJMRTDrNsRfcYylR6sc1oBeAWYLk9CuOu89zxewoOJYD9xioNxWjnvmAnRMyClaO4blQn8ULHQ9DSuLHdwgp5Dw9TXM5RgbXyPzS31H/aEc61naMotHcexcy6lQAwVT51zSZIwcwemxziOw4dMD+VarRbHcRzHQeSlF4hhnFpra61SKvQuCIIgCMIEVCuxcxYAlNJI2eb6aqWqtdLOaKWsc2339+yVomqlWq1W42ot+1CrzYNwamnhrA1jM9pprdo29OyRUBFZ66rVakjynx6bJI65wxOsVp3T2hlF5FLYuYw2ztkkSaxzzg3tn+Z7ZMfec6Vazefz8oooCIIgCIIgDENHUaS1pixVE4wxSilmzuVynfUaRVGm/Ykon8/n8/nRDSe2IAaLYxgwEXU8YEEQBEE4fMgXcs5qAFBajeuUHK8yE6JSmgwCgBq/pPsQHgChCFBLarlCNnnQjEE0OZMpUMnbKJhItdGpwikaxaF0pJld1nEabZgdO+7gBEPzcD1T5iYkY7Q2zlkdtbRIc3247mXWOa07WG4ypWIQJxi8LFIRBEEQhJQgIhI2Fze0X6QyznzO3lOmmLl9FYOYsrvQZ1NUpI9BhHoXB18MYoa+WmIQmZkdkxrSzweXiprAgjhaVko0uiAIgiC0p+NFKsKhglRSEaYgIf8GNT5nYKq93GStlSwcWHCKJX6R+0eYTBoGRKrbDoXDGxGIwlQCD7XUbAgMXh61Bwk45e69/XT/eGyc7EHlLxIEYTKpC8Tge216Zg86R7NwEIOjp0AGZPAA6AGA292J1BI40BpDMEXuYDq0JO8hzNT8nvbH/cMA5Kn+25l6slgQhKmAWBCFKQAyYMjLy4BctyMiMAAjcKfODpoCEacI3FbgClOHqebS3U/3j2+8dzUP7qeac10QhAONCERhqsHYKAPqERwSI/nx50j04Fr+2ioKp8aEN7UEh3Cwsb/uH4+APvxGWrqQlxlBEBrI7CVMRdK71SbQjoIgpAQRlSIJSRQEoYlYEIUDzsjVyi6pEVHB5HsHBkyhiNjGVdz6loPjbG9LCL1l7yldls1WmruFYt8d5BYVDm2896FAFk2Ze4MBAT0BxHGlq1QihUpFkKVigiAIhzYiEIUphzHaJXEt4e5CoWZrE7u9Wn3KrZ8zTcL1vA5EiIQE7FymFKPY6M15HpHIXTiU6ODlIeC9V+C99wjYQZrc/QEBMQIwR5oqlcH6Vu89o0dIU/xCEA5bELFZWOUQZq8EosyFwv7gueee+x9//VeVhLWJlA5rLSfyOLdaGGmc7RPjfchyz83M6lu2bE0/4MQmSa2mjekqlYqlUhRF8rs4hHn7rbfT78zsEDGKou7u7kKhMEXuDUbyQIyAylT6+9b96iUiQkWgED2gLFgR9gY/7FVqyjIVfomp8IDU4VARsV4npiPEgihMCerVwJEJuBZXHnnowb6BwaiQ9846aycOScRxjIjp7YijLUNHLFiQfvBaKSIVs9u1Ja5Wq+VKhZ3MsIcsRx99dPqdw5O93JtsebtarVarlWqIQziwMIIHYiQGcs5O7yo0/uCBkJ1YEAVhIhDJM+Ch/jPpRCAGK0vWynWtSRabxxlvt71ETJtTltFzY+u7zcqVlxW7et58exMDhfRsqp4jMa1AHHnwLO48bbRNbD6f37lrp01ssVTs6ekpFArGGM9tDrRz185qtbpjx45SoefUk09MbEKNcK4OfibCFKR5b7Bz4d4oFUtKt58ient7kyTZvn17IafMrOlz586N45gUaXXA3s8ZwSMxowfSRhOwJjzvvEVhkQrj2FWMqINlzlPDny4cSLLUR+7k4J2+cAWfUd06kLGO82Qy0n/Wdpz7bg4RC6IwVWCAT33y5o/feBMq0gRhQprkmHnv/dtvv/3ggw/edtttZ5/9gY985COLFi1y1rVtuObRNffdd59zyZVXXvnxj398zpw5WmkkbKssR9CxK0HYrxBR89747ne/e9ZZ77/uuusuXHxhGoG4du3a2267bXCw/2Mf+9iNN944e/bsWq2mtaYDvSKEAfwoW2Gc2JzRY76TsaS9EASAuus2hBQf0uxdDCJ7VNkitZsfxFIijMBaF2mVN2QbU5H37cuo7EOc80ahyRUY0HlMHJer8WAljqKobdsoXyAdVWt29tz5liGXy9WsszVbzLdvK0x9KnESRQZIx4kzuQLpiAFj69I8QGvWdU+bEeWLhVKX8wgAziNOgfxM9edxM1c2A6DPGe08SBE+oWM8HzSekIMiVtIPz62Rib0Ush0KxCRJiIiZ8yqftSEA5HK5rD0655IkyeezdSccFHjvGTDSKsxWCsB6gLRriPcZRqFlYHbFYgkAjDGFQqFUyKX0YDCzMXr37t2NYpVUzCub0f1xMDyvDkcKOWMZlKJp06aF91utTS4XpXlBzucL5fKgtUkcx5niDSYZ7+X2E8A5TmxSq9WM0da6+pMtZ9IfoZbUPHskVCZbjJ6zNvt4AQA6jvlOkgSRtM5wdgHnbBz7gs4mSKx11rX3R43ZkJTPej1rtZr3vgO5FXoEAL1z506tdTOgsPn8ar4BtG4P4dVEVCwWQyRiX19f6v6s976rqwsANm/ejIhajyFPx3zzqFariGit3blzZ5CYbQO8iChoSmYulUrWWqXUtm3bUo5WmExG25MV1ueqrC6tvYn/Z4Dg2u7r62PmWq1WqyWJ80StS1jaH4eInAejEGBYXrk02kBm6KnJiHuD2TEzp3OhICIiMXtEtDZhAK21UegOtCBDHPb7IhWqXspNePgS7m2bJHEca63qKkGr/v7+9O82+XweEb3zfX197JgUTWwAs9YxuyiKtDbe+21btyuV9sEfRtjVVQKALe9uyfQCppQuFAue7Z49vczM7Qx1iKiUBgClSGuDxAPbBhqpL4YyYIwJe6+IisVSUqttfXdrU02lHyc53NO7x9qk7TiJyBiDiNoYABgYHGhGOqUPYdJKbX9vh54+fbpSKqVAbH4gorBDGu9bgJmZOYjCEH8zZgjOmAKxUCj09/cbY3K5nLW2tWEmgTht2rSUoxUmkykY2OQnTKwjCFkhiS4VpjwN7wdqrRAx6Aki1d3dnd5r7L13jpldsVAAAG2MmjDcNklsYhNFFHqfOXNG+gFb65yzYWzd3d1KaUotLj17ZsfIhUIRCY02bduyY2ZX9yEYE06wWWRh4raVcgUJEbG7uztIt/TjDBq0WCwAFNKcIzv2nhEJACITIWHQlG2/RMfsrLXOEaIxRhcKhazhAs46xy6YADtoG94wMrXSSvf19SmljDEmy5XVWjNzs1WhUEjRSDjA0FQpoywI+5GpZqiTH53A3hOpfL5Q6urSSinnAMBoQzpLGBsDJtZ7UkqTQsA262q10ZE1iBTHMSLqXIbINx1ptlGtVguxHGSy/Kg8JHHC3ueJlNKYrltOvHPWOTbaZOpOKxXHsVK61F3KFhPowdZsMCViypWbHsADOw8A9a8g0K5fzeCUUs4FQanZcetCvIktiMHQaJ11zoUdxnQTj0lom9gEAEjReFlyxlScjp21NsQgjthhPAsiInKDYL8MQZMpRysIgiAIhxtIqLUy2iCias77DpgzBM8FG1uQld62b6u0AgSsoffe1TJ0RKSoEeZR/5DayczWB7OfUrqe0TBF+hjSyIzMzjnLHOqqEiIitZFfRGroOFlCkdl6x6yIUDW6mLh5o8QLIjI7Z4fc2WkseoioiByz0UZbZ5ue6TEb11fBNOyTiGiM6VhpdRyjrZQKfm1ZAX2IEe6kES9FNPyvBy+t55VmRXbW34f8FIR9xRSM9BAmH8+evXfOti7dQAKl0q6QcIlrlROoQfkUbbGuQ7ItxUAAboTW7e+HYUiugYCIQe3pKIOx03tPpNKHV3ZOo4em3DJR46tMcYnYekSo1Wq5fNThWEMEIWUv4IKd1qo3xqS3VgqCIAiCkIngWGTH1tbr0ddFRpZJm0hlnuUbL8Z7Zf3Jbn3KnD6mngGKkDBrHlPvWSkioskYZwuYUaeFr4CZAeWlURAE4UAgD19BOOB0oL0oS/rnfUVm6bwvxijPKEEQBEEQBGEYqZy2I6Rr000cQjPTdzbUMN2K6xENx2w1wUFGt5LgReEAkuZtbDIrxwiCIKSi1Ssqz6jDBrEgCoIgCIIgpMWzzxrbdzDS+bIPWU0sHMLUMxdgx6uqBEEQhKnLwfJkR0T2vjM16r3fmxT9h74EFgRBEARB2FccJgYy3czyOJUFdet6+xFfzASJske36jgLo7CvyPpGMvlvMOiBPJAf+pBmDDiiie8wUkfe2KYynd0bzSbhf9SS7VK+bmFK0dQDwyL4R6SAbv18wGfUTp+0QRUM1TXOmLx6Mhnpym47zr24JiOQB5QgCIIgCEJavOfDIARxLwTiYWJiFQ5PsJ4LVe5xQRCEQ5O9SUA9eSB47tC86b3fGyGrD4o4/LZpbsR3LAiCIAh7gw9uV++DsEBuuF/HEwhjbQ8NEWnor80Ph8pE7b0/HNL9dLKKGREVZamW2ELW6jQpGVPghnKArf3up94FQRAE4WCnIQ7Ze94vHUwoNBWRUtSB8FJhZqcJuxgFKQyLg1Gla9jcgYBIZR1nKN/cQUMAUIqGGmY9wYyqBxWgrxcS1EPFFofLrDFtcs0ifdZZZs5qt0NE51worJypLTcIn9MsUiEiZ51zLrRy1imtQu+CIAiCIIzA85AJkZ0Psyc5NcxN2W6RSmiI6Ik1EIBvbzj0DKjAWmetg+zS1FoHAEppVBmMlM4661xIakYaUw2SAAi8Beds1nE6Zx1zBw3DCSKiJg0EqZoTgK+fINkhc14adzM77z2HK6Ottc1owjQCkZCss0mSMLNS2eyIiJgkCQAopTIJxKSB1jqDQHQujNNZl9iEPYfeBUEQBEEYAdLQMubEJs7a+vaWObft/OuYnbUhjzSRCopz4n6998RkbZLYxCY267CtTepmNqb00sJa51y9L+3ba5KglIiUczZJMo8zSSyzSxLbwQkmti5diBRzezuXNtpZlyTWOUvjfHfj4Zg9e5sknHjNzJkcr44dt5C+YT3fY8MKOIGwS3m0Zv6a8W7T5iDDmJu9C4IgCIIwAcGSGPzOIxOtNLYrGkOQNRqybwlp5DBT89jztfdMpJIksUmSdKCfkqQRVJbB9uScDabH1pOdAO8ZkUixC0o2q0C0CTtObCcnaBu2LVLMLpWMsdZZmwTTY3NjmuovzM57H6S61lorpQgpvD1M3DKoN++9UoqZ8/l8moGOJpfLjT+4MU4+WCu11lprdtw6zvEUcZCDYZxRFGmtiajjAQuCIAjCoU0jByIhktZ1D6FWqlVYDCVHBGDnm1mHW3ZwQU4opUmhZ/De65ZWY0TReQACJEwSWyhlnqZJEQDkclHdo50Otj5YELU2qFPnF0QAjrz3WccZJYaZvecOThARjdHKqLT5GhF0TnMSOWdNZFq3t8W7uoLPFSJNREqpqZMoe0wLYhgkESEiKUrjYhYEQRAEoTOUqq9hVVqNlyi76b7Elq3odD0gTSMgIAH6Ay8thA6QVb2CIAiCIAyrpHKgxyIceEQgCoIgCIIgCMMQgSgIgiAIgiAMQwSiIAiCIAiCMIzOBeKIhUuCIAiCIBzmIB0ci0clzrItYkEUBEEQBEEQhiFRXTFtAAAgAElEQVQCURAEQRCE/cNUNSY203cL4yECURAEQRAEQRiGxCAKgiAIgrCPQDhYLHMkYYgTIhZEQRAEQRAEYRgiEAVBEARBEIRhiEAUBEEQBEEQhiECURAEQRAEQRiGRsxcmbu5v+SZFARBEIRDAx9Sv3jvvUcCZAQAQIDxpvqw/eBYkSJkRodbIfwjpeBrNvHeZ9WInWnKVhU74ggTHHB0K1G0giAIgjAmDXHI3rPnRkGUEfpv9Cw6agshIlJ9e+pZlxCRMP3+rQ2HOkrdfEgeUOqGjS4QM48TkRD90GXJ1JY6uZ71E2zdP0VbJACuXxkdx7FzLqV+IiIAcM4lSRI+hC3ph1utVsPnTClyarVatVrN5XKIyMyt4xzvOEQUxsnMSilrrVKq2bsgCIIgCK14HjIhVqtV5ywAaGuQhubc1tQw46WzqVaqWittjVbKOpemX6WoXK5UypW4Uss67GqlCgA5x0pR+gw7ztowNpMYrVXbhp49Eioia12lUlFaZxqkTRLHXKmUC5VCpoYAUClXrEm0NYrIMbfd32jjnE2SxDoX2ai5vfV7HA927D2XK5VcLicxiIIgCIIg1C1VWaPOhEMVncvltNaZPLBa62A4bH7IShRFKfYagojy+Xw+n8/U0HuvlGJmY0w4x3w+n32wgiAIgnB4kc/n6xZEo7O6KQlRKU0GAUCBat/AAyAUAWpJLVfIJg+aRk2TM5m8t95GQyeYRsj4+rnrSDO7rOM02jA7dtzBCYbm4XqmtFuSMVob56yOWlqkuT4MIbpA57RWpLKKvL1ZpNJZ8RXfYHTg43gHDIVeRrSS0i+CIAiCMCZ14yESIqVapBIYNa+y9+QZvAJMt4TF1+uvePYdLHnhZqxkyu5Cn015wICUomHYAQE8eJ95nA3fPXdwgsH1n+F6IgydYNZx8tCV0eyZPGWSenuzSEUQBEEQhClOqkUqYnI5pJEYREEQBEEQAIdCEA9908/hcI57iQhEQRAEQRAEYRjkWzjQgxEEQRAEQdjvhIw+B3oUUxqxIAqCIAiCIAjDEIEoCIIgCMJhB0kY4oSIQBQEQRAEQRCGIQJREARBEARBGIYIREEQBEEQBGEYIhAFQRAEQRCEYYhAFARBEARBEIYhAlEQBEEQBEEYhghEQRAEQRAEYRgiEAVBEARBEIRhaGZ2zhESACC1SRpJRN57dszMAOCcm2Dn1krYUhVbEARBEKYyPpSfG16A13P9T2GfMJtjq3FJpvdDFG2tBQBGBgDkNt8zIhKSdTa0ar1pRtP6p/AZEavVatuGo6nVatVqNZfLISIzt8rN8Y5DRM65JEmYWSllrVVKNXsXBEEQBKGVhjjk8L9Qqtg5O0Ighs9cl49+9ERcrVaU1kYbrZW1ExmSAt4zkapUyuXyYGWwO+uwq9UKADhriVR6aeGcDWMzRiul2zb0nhGJFDlrBwfLRCrTIBObsOPBcjmfL2RqCACVSlkbY7QhRey47f7GaGudtYm1LkpMcztie6cxs/PeDw6WTRRpIkLE+jtBOzsfISEhMhJR2H+CJqP/REhKKQDQSrNvf5JNtNZKKaWUVtqhSyMQFSkACGpSa+2910qH3gVBEARBGIHn4SZE9gAANNIfGP5JYf4dS3I4Z5TSQXil8R9674nIWqONMUZnHbZzBgCMMcHJmbJV80TCQFMIRI9BISIaozsYJ5MzupMTTKwJDYkUU3vBrY1uijpjWgVi++/CMXn2xgR9r7XWOqVADDT701oHpZie0FZppSCDVvPeG2OMMUor8pRGICJi8JgzMxGFW6f1SgmCIAiC0AQJEes2o+YciohKt8zXrTJhHE2lrdFaaaOBQFN7PeQZUIFO6rIk67C1NQCgtUE17pBG0zxBow1pbNvQMyAFuWyM6WScjskY3UFDk5h6QwLiFM0JlFHhC9W6RSCm0GvkvPesjSGDunknpB9reovjmG2zNmn2OGanE5swR7SSUEhBEARBSA8ijbucdZwZVWtFpOqtUogSRAAEpYjU+H2Nj1IEAKgAMENApNJ1qyEpTNMQG/ugAqV0pr4AILikhy5Lenzm6wkAgECkdLgsLRvbjxPQs1JEAEDNQFRBEAQhE1kiZQRhqkNNyyESItX/T2U0rEzyj6JT/cKuc/FDinx7T+8+Yu8E2t6MU9cDUnFoCG3NbEOLm7zPapPr7PsYtqIqe6eCIAiCIOwXhs/qjVXPDF7VTVZtp30PgBACILPpIQTw9eUy4SBZ5ZT33nPDOjhxWz/UY1jMoXymSLkQ3MlZR8jOZ7ueDX00JJl8BsnkeUjjZfaFC4IgCIJw6IHDQxDFFnOYI4myhUOWJNkHPoA0Ub17j3gqJ5l9c29M1vQpt4cgCJNP3YLYzFM44rMgHLzYxBqjyoPVwfJgebCstEJEZ51jN2aog1baOvvOO++88847tVrNOlur1VL2RUTWWQDY+t7WjW9s9N5ro5m5nicCwDrrrEPCXC5ntBksD86YPqN3Ty8AzJo1q6enCwCc9UrL724y2Jt7I0kS51ytViOVSrp57yvVirPu3c3vvvbaa7Varaurq6+vz2jTyCfHoYtcLhdF0Z49e6ZPn75nzx4AmDt3br4QeS+piIUDSutvIsUqZuHQQFzMwiFLSM3w2uuvrX95/euvvz5j5gyjTX9/P6mxrYK1Wo2Ze3f3Pv3M07WkppWOoihlXzaxpWKpr6/v8ccfj+N47ty5hEREzfQQoQQREhJRSNJZq9UGy4NHHXXUkguX9PQsBIA4jos6v+8ugDAue3lvKKXS3xuJTUql0p49ex597NE4jmfNnlXIFyrVijGmNckwKQr3hjY6qSXh3jh/0fknnXyi916qVQiCMMmIQBQOWaJI12r2l7/85V133bVz585QBMhZp402emRGTO+9YxdqSJYHy46diUyhkDblfXd3NyliZnb8s5/9LJ/P28Rqo21iE5s07UPB0Oi9HxwY7OrusomdPmN6UkuOO/64KNKFgqjDSWIv740oigrF1PdGV7dSKtgmn3zqyXAbhBz+I1K6hiqmcRw37433tr732c991hhVKceFYm6fXgNBEISJEIEoHMpEkZ4/b/68efM2b95cqVTmzJ6z8PSFs2fNHnPnkL+0q6trx44dXV1dS5YsmT9vfkq379y5c5cvX97d1d3X11coFpx1lWqlVCp59sH1HOpTOeviOE5s8sr6V8qVsvd+/vz5c+fO1UpLnNkkszf3xoUXXjhv3rwkcTpFcaa5c+euWL6iq6srjmN2HCpuKa1Uo1RXkInW2TiObWJf/NWLu3fvBoDjjj/uxBNPNEbVajafF3UoCMKkIgJROGQJie/f/4H37+7dXR4sv/TSS729vT09PRcuufCoo46K47jVVtTMqh9yEZjInHzSyYViztlUUTZz587N5/NHHnlkX19fcCWPSNVOSIlNcrncxo0bn3322b6+vsHy4OLFiy+++OIlFy2RiN9JZi/vjZMWnlQs5Z31adYwzZkz55xzzjnm2GPCvRE2BocyNdrHcVy/N37+rCKllDrttNNWrVp18SUXNwawvy6FIAjCmIhAFA5ZkIAdzJkzZ+nSpZVKxXu/YcOGXbt27ends3jx4jlzZlUrtXxh3EiysNA1jfnQM+Ry0dx5s+fOG9v+1OS9rdvXr1+/a+cuIjrl5FNWLF9x7bXXBs8ykixWnTym4L3x7rtb17+yfufOneVK+bTTTvvo9R99/wfeP2P6DHZgjBSRFwRhshGBKBzKkAINev68+dddd93sWbN/csdPNm7Y2N/Xr7S6/iPXR1HUTHdCSM1V/MHqR6mNNs0dPQOzbzqUmwtUm5kBnn7mmYcffvj1119fsGDBLb91y8UXXdxUh5OWUkcIHMB7o77Fe268EzDzM+HeeO31OXPmfPT6jy65aMns2TPZAYk4FARhciGieiUV9qwgw0Oo6SXpgBDo3QFJklhrO+5XOGwhBeywu7v7Q1d+KI7j22+/fcPGDbfddhshXXrppbNmz9onvTSNfy1WJQSA8MvyDN7DHXfe8cMf/HDTpk1nnX3WiuUrli9brrRiltQ2B4xJuzeQAAkUjfiiEV39wXvnHXf+4Ic/2LRp09lnn33FFVcsX7G8u7vU1zcQ8h8JwuQQXmWVIq339r2EOZuuaLSatAJ2wkQgEvgWC2LKtOlJkjTNIR3kSuys1J4i5Vx9FWFnCRrrcWAkJprDkWArcuyWXLTEe3/PPfe88eYbd951Z6Vaufbaa2dMn4HYar2r32DZyhN5CDfmCDdxOOz27TtWr1n90EMPbdm65aSTTlq+bPmFSy5UWmmlaaRoECaVybk3xqxOiwSkYPeuPY89/vidd93V19d39tlnL1u27OKLLi4Wis56UYfCJGOt9ewRUSk9VN6WhxnCRxe8HWFPZ3bWOqXIO0AN4FOkSyQAAGetdS5bbkUPQBDHMQDkClHKMtBD7/NKe8/MDhiIVBvHANV7rFZiZqeIMg1VGVXpq8RxDJitXHX4OgCArU8VkezrJ4iIiKr1fNt6Php19jgUm9ZGG9XyrtAs3hcishsHHboVlFJhOxJmMiWGXlTLoj9n074r1JKa1toYk7IhqXq1oOY6wSRJtNZJkqQfsHAoQQoA1Ny5cy+6+CJEvPOuu97YuHHt2rWlYmnp0qVz584ZnUYk05vIBDtv375z9ZrV9993/xtvvrFw4cKrr7p65WUru7q6gjoUt/IB58DeG48//viDDzy4/uWXTz/99GXLll166aWzZ89OGeAoCPsc7721ztrE5A0pA8MLrtWDYcKbUhAIoQxyixZApCiKSGFTUbWNrsbGyxchZgrFRgXegiICAG8BFfgUsqKhc7jVaOW9B57oRxfqNTdUGmUtccTsiIhIpbkgI0brhzWgicc5kSUudUNC9N7rxCbsOei2plGwHnCDDYHYEjRjra1n8PJIGIJzUj3ImDlJkqZEM8aMl5N2NORIKeWcC/ZLRWritmGc1tokSZg5iiKlFCKKBfFwpqkDli1fxswPPPjAxg0b773v3sQmS5cunTt37oj994l02/bejtVrVt97732bN2064fgTrr7q6uUrls+aNcNZL+pw6nBA7o133936+OOPP/jgg+9tfe+UU0+5/PLLL7nkkgUL0mZWEoR9DinF7OI4HhgY6KEe6xwAGG1aNUBz57opCwEAsGU5A3r0DmxiHTMhmsjgxIsdgokRIYqiQqHQZudRIEE+34jkRkjTvO4B8MOtaypVNnpEzOVy3vshBZwOH/t8vhBMpJnOET2GoTb+3X6c47o4Jm7oARxySMfqPdtEx3Ec1GHQUr5B663QvDmCxgr7O+ecG7ss1dhdew8AWmsAGBgYyOQsjuMYEavVKjOH/07cNowTEa21zrkgFpVS27ZtS9mjcEgSdMCcObOuvubqKJf7p3/6xxdfeLFSriDiDTfcsD96DLbDzZs29fT0rFq1auVlK2fNmlGt1HK5SNThlGLy7401q9c88OCD7723deaMmTfffPPixYtnz54p6lA4gAS7EbNLErtnzx5rHQAYo5vvsmNY3UYfhAiRwpTtPRMpNaFBxzl2ziqlmZ11rrqpmr5MkXPc9HeHDxP3FeAWH+mQzUwRTagrOKzYYEekgnEs5SABICgRE0WDAwODAwPamPTNQ7/Nf6bpmscRZhM3bMqq8F0YY3QQfEEUj/l9t4rF0L5WqznnjDGFQiG9TS6s66xUKiHfbHOZZxoGBweTJFFKaa27u7vHPKXRG2u1GhE557q7u4OLeURb4TAkBB0UC8Xzz19Ui+PVa1Y///zz//zDf47j+LoPXzdj5jRnfa1Wy1q1olXt9fcPGm16e3ufevqp22+/fdu2bQsXLrzmmmuuuOKKEFU2Qf4U4QASaivv13sjjpNarbZ71+5f/Nu/3X777bt27zr11FOvuurqy1ZeFu4KUYfCAaRuA9LaGN3d3T2mQGyakEZ4F5u6hB0zO+/9zJkzENFa11x6Mp7ThBQpojiOd/f2Tp8+I9OAkdBZG9ySmZYoBNEGANoYRdRWkzRW8OhgZFVKZ1rK45jjOLZJMm/e/ExrccI4iZQxuimFJ9gfEYlUUPkjRHOa6+OYbZLEsTVRpI0xSqmhrA0IzRy/Q77m4XeDMSZ4irXS6d3ErVc/l8tlEojB/pfP5/P5/Ih10BMIxDBOZg61rbTWQQQLgtI4f978kIV4cLD8xsaNDz/8cCFfuGTpJfPnzU///jom3d2lrVu2PfLIIw899NC2bduOPvroyy677JKLL5E1B1MfJCDYj/eGVrqv2vfU00/dfffdu3bvOv7441euWHnBBefLO4MwRUAkrVQz4n/0X8OUO3qRStNXy8oxK0TURgOBjvTQYo7x9IkHIEDEYqFQKGWpOIoAHlyiAEBF2RZNa6Od1WH5SKZS5wQaEZVWmVzM2gMhOmvJIGXJMBjGSaQyOaYVKKVVfYFRpnEyRCYKi36GddgqDYdtH75lKFQxdQDiyIY4dkfjEfzFY7aa4CAj6lh0tuxaOFQJGnHJkiVE9MCDD7z66qsPPvRgkiQrVq5YsGD+3hx5+/ada9euXb1m9Vtvv7Vw4cLLLrts2bJl8+bP2XdjF/YjTY24P+6Nre9tfeaZZx577LEt72459dRTV65YuWTJknlz5+274QvCvqFZQAgbeUCH/bVVcwTJ2JBnBKrehBp/bTfxsvWEyMyOOZNWg7AIJhibOFUQ4VCnzgd7EzlVD0Cc2GYV/koAHpgZXRuX9MjWDpzjuoUry/Ln5jiVbwjZiZvjUEPvGT1Rc1PGayuJsoXDF6XxqKOOXLFyBSn60Y9+9Nabb61es9oYc8UVV8yYOa3jw957771r167dumVrT0/PNddcc8nFl8ybP6c1VYQwxQkacX/cG2tWr3n44Yd37Ngx/4j5V1119QUXnD9v7jxJdSQcYnjPAISp9Yj3DF6NCLZL25bB1XWeJ5Up/xQ7x0jovW8sW2nTUV0Ze2DvyfOwtSPtu/Pe+3p0YJaz9J7Ze/R+qFXb5hh0M3vvAdjzsHFOPBM1Mt34IYGIo55QYmwTDgeQYNasGZetvKynp+fWW2998cUXQ5jsipUr5syZxQ5qtYlKrjVJEmcTG9Thww8//Nabbx13/HHXXnvtxz720WZHwkFE+L5mzZqxbNmyXC733X/6bsf3RmBgoPzwww/fc889mzdvXnjSwo9e/9EPf/ja/XsOgrAXIBIht0m8N45MCLoERlu8xltcuxfPx6H4OMT2VsDhnY5WPocq6S9w0LHcKhAF4XBm2vTu8xedXx4s33nXna+//vodd96BiBdeeOH8I9LGnCW1ZHfv7iefePIHP/jBxjc2nnPOOR/+8IeXLl26/8cu7F9mzZqx6LxF1Wr1nnvu2bhxYwf3Rsh29Pjjj99+++3VavWMM8+4/LLLL7r4ov08cEE4YPimnQzTJcoGAAQKTu3sxTSoHvNWP07mhkFZts0d09RYYahImfoKQW6NEM5MDYmQUw5y6OAYZDcjUuvIMzE8BjFjaKAgHNSECnhhXfO06d3LVyxXWv34xz/+1a9+df8D9yc2WXrJ0qOPOTLNobZv3/70M0/ff9/9u3bvuuCCC6688srly5ZPn965L1KYOsycNXPpJUuV0nfeece6deuy3hsbN775i3/9xd133/3Gm2+cf/75K1asvGjJktmzZ2ZKlisIk0zLYoPMwmL4gfbhoIRJRSyIwmGN997Zem6Rnp6upUuXOuuq1eqGDRt++tOfGm2WF5bPmdO+Ju+zzz67ZvWaN99689RTTl2+fPl55563N5FqwgGnqd68B0Lq6em5aMkS52y10ubeGB1s+txzz619Yu0rr75y+umnL168+IILzp8zZ3bIhTlppyMIgpAVEYjC4QvSyIzz3V1d5y06r1arPfDgA6+sf+Un1Z/Ecbxq1aqg9ppzv2dg9kpjpRw7dvfcc8/TTz+9bt26Y487dtWqVe97//uOOfaoA3ZWwr4AqW5gRgREzBeiKJq9fPny7q7u733ve2+9+dZ999/X19d34003dneXmq3CjZHESYhN9Aw/+tHt99577/pX1p900snXXfeRs88+K1TSk7w2gtCk6bfMtC5Y2N+IQBQOa2j4KjQkWHDEEUsuWhJKh7/22mv33X9fLpe78MILFyxYoDQ2S+QpwlDjZ82ja374gx+++dabZ5999vUfuX7FyhWtikE4qGnOVp6BFMyaNeO8ReclNrn33nvXrVtXHiwXS8WVK1aGHEZJ4giJCPOFiB1s3rz5mWeeuf3227dv375w4cKbbrrxkosvKZaKRmtZsSQIwtRHBKIgDKOuES9cwsz333//K+tfueeeewYGBy699NLjjj0uOKODoWjnzp1PPvXkj370oy1btyw6b9HV11yzePFiSca+nwgu3wOirJg9e1ZekYKZM2ZccvEl7LhWq7366qt33nEnAKxcsXL6jOm5nAEAZ71N7ObNm59+6ul77rln63tbTzvttFWrVp177rnTZ/RM6WxHYXGAWHCEfU7zpsq+AEU4gIhAFISRIEFXd9fFF12slL4H7n711Vd/+tOfIqJero897mgAqFSqfX19jz726N133/3C8y+cc845q1atWrx4sWTD3n+EmYUPkEZ01jFxhAYJuru7z1t0nmNe/cgjP//Xnz/22GNRFJ155pmnnXZKMCr37ulds3rNU08/tWnTpjPfd+aVV171wQ9+MHiWp646FARBGI4IREEYg66uYiFfuOSSi3t6um+99dtvv/3WI4+sdtatWrVq/hFzgzp89NFH337r7fMWnXfDDTec9YGz5s4VdbivabFpeYAksUZpBGD2k1C2uCnmFKHSQyGDiU3mz5u/5MILC/n8e++998Ybb6xduzZJklKxdNRRR4VsR6vXrN7y7paTTzn50ksv/fC19XyHzvrWcKvxoq1aReSkrXRm9uyBEJVqXPBG1yJqBeHwRASiIIyN0jhr5syzzjrr5pt/7cEHH3zpVy/d/8D9uVxuyUVLHnv0sYcffnjTpk0LT1q4atWqSy6+ZNq0HplH9wsIAOA8MIIxOiTcUI30tvtVPzVrxbcqOe9DDXqYPXv2kouWOHbf//4Pnn7q6d27die1ZNmyZavXrL733nvfeeedU085ddWqVStXrOThoyRol5SsZffU9er3FiJUYVwe2MEE+lUQhMMEEYjC5DI8pX5zKpxS4qqZHxEJZs6YuWL5Cq10rVZ78YUX/+7v/u7Ou+501m3YuOGDH/zgNVdfs2TJkimoDlslCcGUvdIp4FDbFVSLf7n1C9p/jCmQEMAzJokzRvX0dF35oSuUwp/85CcvvfTSN/7+tQcevO/VV19NkuSCCy64+eabFy9eHEXRsMyyPlvNiEkVab5eNjes3JI0jYc5zXprwmGLJiKlFBGlvxWa+TM7YG8aNvN4pxwqNuisR2HfMzylPrfmzB/zKz1wX511FhmNUaSgUMyde965cRwT0QvPv7Bzx07H7sILL2zaDnt790yprIejZnYevvmg0ogI7IAUvLZ507/94t/WPf9CeWBg167d5YGBKIrAt5wLjqdoMimdoQN678Px688Q5LCxWCwSkolMuVyu1Wr5fLRz586enp5du3Zt2LBBKaW1fvfdd7/1rW9961vfKpVKw55Xfqi6FyKOOf7WR1a9ZFlH4w/dtW3gERgBAI6cf9S555yzZNGiYqlY7C6ERD+CABM8iseZiuszb+oHeMjF3eF8jc1faPamWTOBDxUpydwZEiB1KEgwe+GWjkFEAAr5huoWxPAIC9prAvkVzs03ICSPGWRl8+De+/F0XnMkIzplZmYOH0Y9QNuMEwDYM/kMIljY94wquOQclKs1iky3aUSZ4fD9G/+tF3BHbjvb75vamgQ60h48A3jwNklmz555wUUXeOUrcfm5554755xzlq9cfsWVlwNAzdW6pnU58Bkeh/sd9uC9d94zIgESAdWNX5BNKU6+lhw9uHKl+urGDXfec/eLv/rV9m3bnLVJnLgkAQBFeqymAM27hbP+5Gn8f4649YY7jgmJtFaKmWu12rtbt215b/s+PH5qJjj+2DgERwAAxx258/VXX9v8ymsf+tCHTjjjZCAYGBwsFoqt89JUs5QL+49mQV52nmCcx1vzoR1K6zEMMz02/9ruXvYMiI2GmX6yCN7VZYB3gCrbQmnHTIihdxhf7zYHCQCoARgcMwCga+ODHRFP7LnlymQh1Eeu17ZuW7rQAxCAB+/ZOhcZlSmeeFgt5jiOnXNE1CgUOFH5au+9tdY5lyQJImIO08/H3vskSarVavinMWbs3cIDffhpKKUGBgaarxfB6jlxX81xMnMul/P1k5Y34ikEO+4pRQnA7v7yjO7iyAcQDv2X6gJxkgVNfQRoIgCYN3vOBedfSKiOOuqYiy66ePHixTkztHCBJzFcrA3oPQOBJ0JEFYSSA6+AmumfD/QQs7Fr564nn3xy7dNPlePqcSccX+zumt7dQ6Trb9XQ/NrH+HX7vTKCjbib2hxq27Zt1Wo1l8vNmjlLmzTRO9mOn502vwbyMK27pxJXd5cHK3G5b/vOdzdveeypJ4qlYq6n68jjF5SKJVJiRzzcYXbOeW55wDVLGDd/g60WH+dsrVYL8ksrRTTRZB2oVqukKI7jSrWa6X7z3ic2ieMYAHI5b7xJb6Jzzia1GntvtDNGE6mJ2zI765xy5JiTWg2iiKjds5SHDlitVsMJ2tgqlSG6r3k9tTOKqO0461OlB+/9kCQdNZ7xqFYr3vtqpVrI5+ujZOagnya2IBKR1kNNKpVK+i+jVdUxc7lcHlOujWlBrFQqwQkelF9bnUdExpimi3lgYMBaq5QaHBxMOVphf4FDbz+k/OZt7/7qxRdfeuml7e9uQw/U8IgxgmesT/AN02/j3p5o2ssW4TU+hMjeE6JjBwBaacfM7BCxVCz99IFHn37i2fJguXEiFJlo31OR4/YAACAASURBVBgv9xYGYPSOvTOG8oVcZHInn3r6CSeccOLJJxltiIIp8SCZ8z0AwMsvv/yLX/6yv1o9+QPvu3zVVQuOPfrIY44uRl3lWrmx23hf+lhOg33plR7Wb1c+nweoAezsL5vwnNynx6+z78avGGYVi9Wa3V0ZqFbLjz+y5uePr31z/atPPfeLI0858cjjF6SY2YVDiqbmm3hmd46bk3V4B2tVDkFKKqIw19dqCYd1T+PTKiLL5QzTdGgYBCs7jl3ctq8m3nvnWClCRMecJDbNOMN5OceuUk1UbeL9Wy9jx+cYZJ5WihC993Hc/hy1Mc7aJLHOWWuTMcczHkQKgIM3XOdyOa01UYZp1XsfpF4UZa4WFTrKmky4q6tr586d+Xw+n88zc8rReu+JiJnz+XzYMmPGjKwDFvYZTYtg0IjILzz/818+/8tf/OLnW999d8eW7eQBWya/IYHY+Jzi5afzINeRxyHyzOG/1tpcLjc4ODh9+oxyedAYkySJda71TXqfdLr3oA/PZEvAuVxU7OqJCsXXXnn13EUXIKoTFi7M5Q4+H+G6det27Ng1Z968qz686uwli6OomIDfnVRIa01quIoaeXbcEqjQhmHfYUuDVhE2TIm2Lj0BRVAGGAQggFJ30QLYESJt746/b8Y/Ag+7rUNC010y3aWVq6459thj/+lv/+7NrZvXrV9/2WXLPENv757p06dQfK0w+RApUsNdzK2Jr0c//DzYmkVEZRQgGBjbWzishQVUQIhJrVbqyViJiiGpJQBgIpPNheQhiRMA0NqgShWG6C2gBs0AAJGJMMsqX28BEZ2zOqd1LlNLSOKEiNJfTwAAiMADW08m2/TEiQ++aZ3TujUsdLT1bkyaTdJrtda2E+8w5hiq1arWuulfDiGMafpqDtVZp7RyLu27hbA/YKz/fq3nXTvefe7fn/3xj36wp2/H3BkzTjpyRneppFE5Z8NN5f3Ql+XBNdRPG/aVVmtaEINJ0jrrbA8pQixppRObsGMkDEOdOgKx6Y6vWdY6qlTtzr7Bdc8/997W95y1xxx3dC5nWh7paexMB15QVirx9u3bT3j/mWee+X5DUcLMCJHOIYbVtuM0C7Eqo//aumV0zGt9e6s4G8eMNvzI3tU3uHCzhgu3746/j8Y/8qCM4BEsgQfomjbt+JMXRsWu3l179vT2BkdVT09PMAxhS3JEiUQ8VGlYD+t2REIGAFI47mNgRImUEDLu/MhFFe0e3cMWqWQNgRmxZCR1c7Z+5CKVdrF94ZEDCIqI2SluZ2NvGdewRSpZzpGtp1DgNX1BGqw3dM6SMiO2t2naukiFmdkxqWwWxI5Xe+zNMpHmApf0+8tC/akDN+5qB9A/sOf5F5576VfP2aRv3uziVZcuWfz+908vFEulEjsH7JEQ0SMSIIfnlWre2sgTKMV9ZkFEDO8h1BSIjVDdukBkRpyKAhEAPNJgOakmvHnrjjff3X7PQ49t2bX5l8/9fMHRC6659roDPbrM1Go15xEVGR15IEbgejwlwEQiCdpL4L353tK0nXLHH2YHIu/Bh+mKENmxMzpnjE6shfGMQ8LhyXiP3HHukPrqe69S3kLDFqlkH9tQq+yLP5q9p7IgOkAN4Ovhldn6al2kkhFmJoL013NvGLZIZb/3JggtWAAAKJSKL774/IaNrxrtli5ZfOGi0+Yo160Gi4oxZ1wce+/JA7NH5vovqmU56gSRwfvOxYyePRIGHWKstc4pIkQkrXWSOGZEVFNMIAYvvAPfRdQzrdRTnDNnbjco96N7H35v6xvvbn37oIk+bKFWs85ZVEblC47AYf1lY4yLPmqTnyrfzFREA5rggkYAD75aK2ld0prjasjRjR2l8xAOXhDDM27IkHigRyQcSEQgCpOKA2DnCirXu7tvx/be+TO7Lr/4opmRnWl0BAxkAVglAwAhOQtASKaFCBM5ylrYVw80BKznDfYAQAgReghxKsorAOX80KimzFNUIQCAshY8K0egdHeeTzhuTk9Rv7ll5549uw9cNePOab52a62rU+ZSHwJ4BAZQjeCNqk20UqTQWuu8FT+yIBzmiEAUJglqaBMPDEC1qrOVqMfMXlDsKfl+cszgwdXIA5AeitYf8xV2ApWQNe/deEuP69mqPDQjsJqJmZiBCIiAGym7vB/3OJNMGI9WESjvnCbfnYuOXzA/n1PluDxYqUwlNZsWY5Rz7F2iwCvvQ4BoSOMz5v6tNtJRQcejb499ez0OpuMzQKLAeSAARjA9pWq1XPXWovMtv6PWyyyqURAOH0QgCpOKbuSyJtbgI/L/i73zjpOsqPr+Oafq3tthwuZlWaKAkjO7sAssQUGCuwRFTCDqY8CH5xF9VXwMKDyPoI8JM4oJFSRI8AFhSbsLipIzuySJm9g4qcO9Vee8f1R3T89M90z3htnZmfp++rMM3bduVd3uW/W7p06dowOGoBT5inpn94rDYZPTXwOZI/qXaLZAL33qGkmuroIEjGCBhcQiWCwFsNrqxCEAgNIKkC2zgCUhKT1ocMl+O+DCV2v16g/rBIDs9+bGXKKt7/zOiAgCjMAACdlYTMU3q+GAIR6PZxTiBaJny9BwCh7PhkPiFskJAEC0AG1168sD4CpjNANQdWRNqCGQmv2dDZnzcSN/uFv8/IPAvX+U8wrSCDGNezyeYccLRM/wUcp6IQCAJETNm/s8G8houtRYUYeqVyNuXjb308wWOb9Xfh6PZzC8QPR4PLUZpuTwQ8Plf5mRGEtLooNo3q1vq3YdmtX1TXfcG/I9fR66PJ5eRpFdwePxbFKqnfaSJHH5QIvFojXD75vWZ+oaPKeOn+WaQ3qtiYS4cdmrPaOKUmDCEfKcuKnZyCA+myqt60hmwy2IDaYz2YK4JAG9c4l4v7cRASJWguaXc92gj2c+klm/fv0bb7zx5JNPvvDCC3Pnzt1vv/22dIs8mx6BcmKJkT2wezYBDQSHGAP6p4om49JLs+EyNoKNCUiJiMIb/lWO8iVmRpCKRUGAypv1auDTBng8ZQiwYj60xr7xxhuPPPLIbbfd1tPTs/POO0+ZMmX69OnD3aLKvzJilr5HHUj+UW0MUQkewWyVIpI+JhUBsCJKRu3kuJEKeCw8R404gVjzojtrZfVHlVFskC9JABjBEBSB01oBQ6FQ6Mr3GI3MjIQJgAKgSlqG0f91b3346WqYobLbiVNhuVzutddeu/feexcsWPDKK68AQHd3t1trHtZGAQgQQ5+dTuXsx4P9Qjb3culIM7JsfHvKyccEAFgYRY2BeXAswgACzAAMaMEqCHI9uZgMB8BsElMMKcXEqaQcM6Dmb6tWkCWXpxSqzS5D/YT65GJu/vdWkgFNTuJspJx+uk/76xcoa8rKYUNWVy8Xc5N9bE6MbrobdqSNb5sYARAEa02uWACClNJTJ0wy3TkiIiI16vvv8WwQFmzCsRGTy+UeeeSRBQsWLFmyJAzDcePGIWJra+uWbqBns4BI7B/JxgzONsLAgdIA0JKK0HCSK0xuG9cWpRHAxU8draaTjfVBHAPqYTT7IDpQoEWHoABibkllorydojLQbSFQpFzgZm87HFYqfk4O8j6IIwkGLsZFrRUArFy54o7b7vzzn/+8cuXK1tbWMAy7urriOPZf1qhEQFxyGvSxD8cMCADGkI6AIRulJlJKh63UkYciUwjaAgMo5Xe7AwBUh1wdzjEQCVBow3aPOWvuhlhlAQBAM7PFPnsSBxkdhiF7N3ONq2CtZWZmFhG25VwbhADg/rdfm10jhVkso2XQAAxPP/zw0tde2237HZe+8K+fXvzfs2bN2v+d74CRuMzu8WxJ0mEaAJ5/6flFixbdfsvtK1eunDNnTjabXbp06YsvvkhENW/SYcM5Fns2Bwg4nN73ni2GAGFpBZh0BD2FJx56+C833rTi1dcVw8Lb79x52vS3Hn2EthIrUAACUvOuw6rkTBUBw2xZhACEy6mw+nkxjpgHkI3SM5ujF7VGVrbCbEWErHJmy8q+k5qiEakUs8iVQhQAVd3TwW2fIiwiwgIC2hjTTw7j4DEkAKy1SZJswCSBiIVCodyI2sMQUY22W2tNmd56LfR+wX3b4pwKmJmtUQmDif/yx6sff+7Zz3zuc3vtuTcAvvjQo/Nvu/2ll146/dxPMDBpxX652TO2IaBiUujq7po0ftJzLz6/aNGi22+/fe3atTNnzjzppJO6urpyuZxSass6hko5YFuVP+JoptnAC1tnMkXP8MNO4ZAwFOHW3//poWeeOPX00/ffdz8AXPzQI3+97dYlS56b+6EzdSZa29nRksn0+ym6QUBBjQHBMpskcVMzMSGS0xz9yvYpYlkpKhaLhUIhKSTN9UQkiWMACDisl5+9JsZYaw0AaBNorYYc1lhEWLRWlrlQyJMaevypbo+17DpoY1tPPtXUP8xsLZd2YjCWwg+VHSgHHo+MRIrZGuMEIirVd8/GoGHKXCljEpvY5qxnpa+cyHWjZmcGL14puFnnGAIgKb2UwKN3LvjX04u/dvGFkA4EBFWw62Ezdt1/v+9+9cInFyza94SjCiDhyHmo8XiGl4pxIApS2IavLX39jjvuuO/ee9evX7frrruecsop++6777Jly+677z53mLVbNkfvZn+ao3I1Hs8opDz3EjIIPHPXgpeeXvz1Cy/kSEE2C4r2OPaoPWYd9v0LvvbQfX/f/tD9dGvGMlOtGdtUpeuu2J6ZrWUmRFta7uMhHVtFhKtezfWGS0WEhZsZGERKDXPhHoduZCmjfcnE1oitvbo9fYvWLsu1hla2XLYFolssHbxqJFQiltla40qJ9LMgDqZ2XF1u1VYHQaCUcoaBUuH6Gtx95MQvMwdBMEg1NYu7qSUIgqYEotbalQqCoJ/0rq2gAUEgYGaEkHnR7XeeecYZkMlABAWQhJOWSFE6c9Y5H/7T9dftfcJRKZd51OPZEPqNSQylzARVjOxMdxUPFSNm9eo1d95xx8KFC5cuXbrnnnueMu+UGTNmhGGYy+Uqx49uH0Qq2+2oKiTW4JKR6xxDA47prQKwvAsbG7aFjubL7hlu3LIvw6Lb7njf6e+GTIayYQFsLIUsoGqJznjvGVdee/UF847rkiSgQNX89dkaoUWYLRmLhIEOSGG9ldBqWFkiJSxhEIZB2Fw/yvWGYdjUkrElIuMEiVZaDdlIJ+2UVsqKMUkYDt3O6vawsiIcxqEOtWrmEZuVZVYsEuig5D436AiMiKhAWSBEFiFEIqoO6z34VbJEIpIkJggDTURKqaZsgUSklbZoN2D9vqJEmyqrlGLm5syWCACkhRDhhWeXTNtnPydqOzFOUYoIIJHJu+326KOPNtsFj2dQtsqMVQRkwa5Zs+aeu+/+wx/+kC8UDjnk4FNPPe2YOccAQKFQGFM7lysBUwUgBIyBB3E44kGFmwJEgESYsM9DQ/XpeoNseAXoGU4EQOCFZ5dM/to+AJDP93SnKcK0CgAMT993n5cuvggRUxjqei53VWuQledMYu32H1JQemfIDb9uqTqUMAxDbHJXAAKGEAJApboG0UoTqUrBIRuJgAAKAIgwCMNmq1OgQgnDMAGEpvqoRJFVItJ7PRtY8EQNGoKS3VE14TGpSQtDEGigDdqgISKW6y6iD84WcW8PwwCUBstFTCgsK1NEEGHmJIlNEKT9ErNnY6jYCHtlQLVdaYQiIAhIQADy3JIlDzz4wDV/uiZO4pkzZ86dO3fGjEOSJAmCIJVK5XKl4FDDsFNti9Absq2s0gpJMQiiEIBLIRhrqDouWWEAQVCAmbNK9YAIiAJEAbeYQ1aKnKTDSAAStl35XHu2tdp2iA34VA7lHO7xbCiKAMueY30/scZaTQIN3POVHb7sTFwMovrPq3UegcQCKrDWWGuaNpQLOFdCUkGzcRBdQcQAdQMGegFhQA3AYI0BbsDSWZ18xfZ6Pdatq2b7pWS87L2egze1EurclQJCKe/sa2A6cl+fM1JS76p4maFPMOxUt02k4daKWBEA2W3PPVY99QQgpMOoDSIFFlhAw6oXXzzooIMAwG+L9Iw1CIiATJIkSQwAry19/dFHH50/f/4bb7xx8MGHHHfccQcccEAjayijBjeolmQfgkJsDVIRoACE4DZy9r6cNKx+2GUQsKwFGUADViZGazlOEkYIdWCstdYqom2zrc4W4ZazveHQs2VAAIS37rXH6qeeBIQoSrdBCiEGtqBp7QsvHnDwQSV9Uu8MUuPVOzvLgMM8g1PzenJpZ3HNT2u/Sl9b2eOx2mrBQ5R1RZyX5Ig2b2wsCIJgEY4+6firb7wecj22Kx/FNmsUxABrC1f+5rdHHDUnCsJCITeqL4RnM8IIjMDEpReWVicZiEfw/cXAAKCDgEVefu3lu+++644771i+fMWs2bPmzp172GGHTWifMKYinlBZrgmCIBhmZSXFkBguMhsQC8LA7mWBpUoiEkAAFGqlEPP5gk0SsoICFsEqwiBARQowpVSklAZcVcjHbEFAcWkvnZuqudbLsDAOvu/Q42kGrIr+SzDnhOP+dMP10NMjXT1RnGSNhhhgbe53v/3dkUfNUVr5+XHMMpq/d5dW0hDs+fY5b9l7j29cfNGTjz4GCUM++dc/HvzZpd/a+a27HXDUnEIuPz7VsqUb69mMVEKM1t7SNODNyvGDOLz2HoMizMLsHsAMJ4k1guReDOSiWLlTGWs2LN7ppkKg93Gyp9CjQHV0dDz80EO33HLryy+/svPOO5955vtmzpzR0pItJoUoiNz+MBeFdAs227G5Azi7NWJgYQAF+Pj9D3zhvPPj9V3aSAAYAioA9woAXJT9oCrWfpIrfvkLF6xZtToTBBpQCwQMmmU8QBrwtv+75Z3HvfMDH/rQ0uXLU2Fk40QzKIbAvSwELFpKr0oQBhJgY5AB2SI3tnLi8QyJeyABAIQ9jzvmLXvvcdHFFz35yGOQCBRK8+Nbdtt1n6PnJIWinx/HLKM5SLR7/hYCCODksz6wzX07/PRHP8p1dJtCcc6s2XPmzNnr2DlAkFIpkYZcLDxbL8xWKV3ZAlYlARUi5vM5pbRLH1L2sjWVzXTVkq6yF8z9QYFma23JvsOlpUYEQUWIbIwiZcQIi9ZALVlZt94CE4pzjt4iJEmiFIUqyqaya9avue22v/7xj1cVCoV99tnn1FNPOeyww0rRCQgq6rkS10ZrTUTDnouZFVGgUBMUN18dUPIXREQN2N3Zcc/8u/bZ5a3TxrV35vMKw2UrVpx//mc6OztdMFeXrfPoo48977OfibJpaznf1RMigWURaFH4wx9ffvO11yOLMaY7lzvh9HlXX3V1dlybBbbWkJVvXnLRP+/7O8eJGKuU+sAH3nf2R865/Je/uOaaa0AFqAgRd9lt10u//S2llWFGUlT2ROwTudaPXZ4NQlzG9QBOfP8Z0x7Y8ao//OGSr1+kiXbcZvr7P/iBvd5+DBQLMMCNsA+NuMR5NjmD3/Hl/NcuHjQiNZpsegCjWSA6iw4j5PP5dDp98OxZV13zp5deeeWI2bPP/a8LABFUKXlOKfiuH2ZHL5VJFMMQrbEJO5EnSMbaTEubTRJhEUIA0IHWCiUxxWKRVGlfhivO5VtNEQFAHBetiFIgRCLGLdoqCoXRMusgIkDNEttCPp9XSRxFUaFQAEXAtr5G3Lxh+MrdkX+9+q97773v1lv/umrVqpkzZxx//PEHHXRwOkwbMe5II1ajBgBC0loz86pVq+69995ly5bV39S8sYsSlVDPKEBCAPDII48oTWvXrROWzb3mESoVARQAlr36+r0LF0ZCN1x7zb777//ZL1+ww7Rtr/z1b+fPn792zZqPfexjcRwvee65m2/6v3Vvrp6y/XStCJkLPflcV7cYXhfHhPjJT3ziPae/O4qgaKFHmBUKIQjZJEGAENV3v3npjAMPyIRw0823L1u5jONiSPiFz57/9uOPa8lmHnjk8Z/98nI2iYgVsSJU8S/yotCzkVQ8JNDE1Jo+4MgjcsXCdddd193Recw7j9tr5sGgwSZQM/yhZ4yw4QKxlONvxI9TjJBOpwEAMoFORT0hmLYUtEcQs2gAALT+AWj04Owr/QY1RLr//r8vX75i3inzyCSVH60VAEEdpZLEaBUKiRELAIllNKwJtVbGWFCkXARQIABiIAIuxIaZg0BpIiMJcCIkAMBiTWK1DnUYgGU2xgXoYraIWCwWU5m0WGa2XEsjMlJpQ3T5xqJNvSQdBVHCyfMvvbBw4cI77rhjxYoVM2fOOPmkkw+ZMaO1taXfzWCNVVqRoiiK0uk0M7/22msrV65MpVJ1Tr/pBeL6zs5isdjV2Skim/UxjgEMQJwka99YcdGXv/r9y36w/1v3/OUPf7TLbru2tbV1FfOZltTarnUQUoHjnlxXrqfHWjN1ypSly5Ze+JWvrX7ljVxn15IXnsub5Hs/ukzSgR2X6UyBAKAGC8RSijaMiIBIbD933nmpIEiSODbJGR88s7Utazj53o9/cOkP/ldEkPTue+xh2TCCBSHl+j+a/YI8w4wFQK3FxkoF3YX8OojfLHbatpSNlCIwBAEPGpl+a546N0a9IFIl390oZjRbECuTbBGYrARK6XSUCHebIjMDCSOW4hp5RgWMIAhJYgMdQXmPiCADgNHZmFKJRNlsS6GQd4cDUKACJlpw7wJFNHv27PJeBfjlFb+cNWvWHnvvpQLF1nJvzBptgRUSBvqnl33/yDlz9t5rL0ZSOioNlULG4hW/+vXChQvCAP/9o+fMmjWbMq3EUIzzsTVFE/7s5z9/97y506dNFbG6VyOWhSACChAo3kQ7E0gpEVFalQNo4coVK5988on77r33zTff3G/ffU886aQZhxzSPq4dEbmfQGSrQCFiEAT77rvvypUrM5kMANRfZd7YIbM6NjUxAcAbK5Ytf/55yyyCbl1s87lDJmyBeeHChWtXrfn0f5wXCmJPvlgstv9q22/96PuTJ0/85z//+elPfzodRpKxq9etnrr9tFQ22im7/RVXXLHu1aXfueRbF1z41QlTJxds8o+HH6R0hAAFgMB1B4ncsgYACQRA377k0jlHHB5GcNW117+xfFlijdL6gs9/7vAjj0ylMg89+sgvf/Wb8uVAF5N4M295Zp80YOzgQrYqoKK16TDsjgtMqDOp1d0dncXc+Jas+BXksc2IE4jOt6aftHfWymbdbrCccC8EKkISiCoksRRilTARAUFpLkR/A4wGyr5ZnFj+yje+uXpdz/rufGwSUZYtK5XKZlqu+stCjUQKAtLr1q1uyaS//KUv7rH7rvsfPPOHl1322hsrzjrrrGKx+NBjT951/2Pz//GUIAFAoFDEpqNU57q1F3zx8/vvu7cVWLFi2fru/O5776fC9OU//fnf7v2nkArDMJ/vzmTT//3f3/j4Jz/Fha5MhrgYr88bCTJsTUKZl1bmVqtp6Wm7d3FMwGi5ZCZEBrYB2EAhEBixm2pLhlbKJSKKooiA1net//v991977bWrV6/eZ++9Tzr55MNnz862lPzQBfosCyhSbqFgt912mzhx4qGHHtrd3V0sFgfu4CmVEtrI3SQDBeK1f77h2X/9K7FsmEF0E5lHNggkfN9ZH5w8eTIX4xkHHHTlL3957rnn/uLKX5O111z9pxkHHTx92rTzzjvviUcfm7Ldthd961vdbCLSqOHBh/65eMkzH/rg+y6+5JuHzDo0RMx3dyZgU6CKSSGLgSZa39MVZTJKIZD81xcvmJzVb3bkOvPmhBNOePPNFZ8977wvfvGLLS0t373kWwD0n+eff/mPfmIDyjMDqJJ1vHRxal/hpnM3b4IL5tkaIQJgYPd46jxJsi2trWE2xz3MmEpl3XFSPzhfv78rSx0uSAoBCJd9+ysHj6QVRxfir5QuWZpTAqUV1C3en0HiKZbD3ACwsCoZO3uTNzXEiBOImxYnEBFAlwOToYDq94S8pb9izyaBBBKORWwmyn77kks78jxx2g6vL12Kgfn5Ly5XlFm7pkMT/ttHPzJh3LiWlkygkIBNkrdJPH7C1C9+4Uvf+853X3jhpVQq9eyzi/9w1dUC5DwOO9evS6dSlvn2v966ft16AGgbP+Haa689dNaRAhoxOPGd8wr54CPnfJzB/u63v373e+aOH9/62muv3XfPbeecMZdS6T9f8+fr//JXBUZlJ7wZR0T6yb8vDE0OkJ00dKvTCJwO6Oyz33/0nKOsiSkMN5UDkEuD3t3Tvb5r/XXXXXfzzTevWrVqv/32PeOMM2bNnhVQaOtYK11CeqcRJ06c6HY0G2MGPqSVHaFpI9duuHdtvVfuuIiMli03m2ahSZAQbCnSTRCEiTGpthaDkkmlbrnp5ilTppx55pnGmB9/9/thqGOBZR3rXAzazp7uxYuXTJo06bQz3rNo0b1v23MPYPnxZT+89NJLtdJKIDQQac0Kd9jlLRf+98V/vfGmO66+IckVMu2Zju6OUJHbo/zuU0/TQTB+3Li1azvuufNuDoNJ06dd8v3vT5g21ZYfaIfFLWy0L555Kt8xC5bXMUiAmKs9PRhB+SlyrDKafRDdBFMd/9aN+5UZyJkYS08BI7cfnkaJtAYNHHfH3TwhOyFZ/+azj/7jrgW3ffLT5z791PPLl6068Z3Hf+973ztmzlEnnvTOQr5QKOQChYHS3R2dmWzms5/9f0kxf8MNN86ZfagqdgCys4dNzSprc0Cw6tXn23fdtS2Tefn5xWL58NmHv/rqGz+87Efnf+bz06dv//qypTvttEO2rbWQxOmWzN9vWrDzjtsTERh72onHvvf0eZa5q2j+92dXfOC9799r2jYpGwOa6s0oKlCglS3kLMfpdARcHeF0wzHWklLW2LVr182fP//mm29+/fXXZ82adeyxxxx8yCEBhdzMhhhEdLFvBpr5N76pW1yYkPReiwsvvDCtw5YonP9/t+68Xh+b4QAAIABJREFU845f/fJXuns6P//v5332/P939913TZw06X0fOjOtlNgkp+yKFct68rkondrrgP2efuG5u++4MykUz/3EJ0874z1xEves7/zJd77/0Q+fM2X6tjod6SA466yzP3v2xyMhifC5F5/7ry9+YerUqZ/5zGd+/JOfTNtmmy984QtJYg1z1NKSR86L5JMYA01A6K60N/15NoZaliQuh/6omKJRgHFQ69pW/jukDR21kFBcOKxRjSYiUjSSdd5GMsjTduWjEWAp9mwCWIASLhSTzLjxv77i97fdteiD53z4gi9/RRC6unOFuJhtbfvGN76xaNGi0959xjtPOO60eadEUfruexZcffUf4kLx/WeeMWXKlOnTt91j990TE4Obh4VAeO3qVW3jxmtNgQ66u7tuvfX2tx97bBCGt99++4knvmuHnd6SGPX04iX77L/PNttu+/d/3G/5gFWrVp0274RcEmciPb41FZukyPzYQ/9McW67SVlNKBAJqWoPcEJGEBVqZa0tFhQFICyl2CsbLpxEWBEZa3q6u6+99tpVq1YddthhJ7zznfsfcAAixrYIAEoN8azIzC5uNpaS7Y3CO4YAEJBZGAUALr300t12fstVv7/yc585/7IffC+x5q577n5m8bOfOPdTbhv7T3/1yxyYb//g+1N22v7OO+889rh3/O2ehaLpA2d96Nab/7J85YqZO+9gmY2xYRgSklJ6QltLR6Hw6LPPXPSVr4adxaQ7zwEcPPPgP/3pOkAOw/A73/nOKy+/fM45H1u9enUhLiaAbVMnXnLZZeOmTvTbUzzDTMmtqxw2pe9nAL2mF6jOZYxCUL0iUV2wkWGj2aGleopvpmyNQWzw4gP2Pg5dXb0Dmmon9Y1pUb1qX71w3O+AmmFumhxCNOGwqsNROa94RgKMIEg9Cd1w68Jbb7v/uBNO7eTUj397zXeu+FWYihAisPjXe/4h1rCJtY7uWvTP2+5aNPfEE+bOPXn3ffa5d8E9XfnC2w86AACu/NN11/75emYhrcMw3GbK1PPPP18lUBQ9afr2K9d1vrp02Te+eQkAvGXnXffce6/f/O63Dz74GJC69fZbcj3dAsX5d9wKUnzgwQePOnzGB977nlSoGPTry9fc9tf5H/3YOU8++cx3L/tNunWiUqXdHszc1dU1Lqs/92/vPfLQAxApsQaIq7Jq1ojF2CCK1Jo1a5j59ddft7Hdffe3zZs379BDD21ra2vqPM6zsBJLcpDbeWPsngOXmEuxoVlEhIAtVMbLTS+YFKIBsNYkSVIUDMJQR6EhiMa1Ln7tX48+v/gHV1y+665vvfLK340bN/6kE09UWutU9PCzT765YuU+p7/v1ltuUVG4w047fezj/3bRRRdNnDQpRVqlqbNQtGzTmXRPMUGl9tprrz//+YafXvyte/46nxQ98MBDRx999PHvPP6/vvSly3/+ixtvvKl0ARB33nXni//3W6lx46wqBeJCQCyHbKxx9XwMbU/jSH99IcLl1LtD3cMDZV9laY6x1zJXU1wObIgICrLIhv2AN6yUG0dddxtSJlTKUydcNj02I2cqw1jzDS0XZ0DV580af1e3V2HJ+7CZkbI01LKAgGZhkhoasWaw/qo4wwIAwiLNOEUjYiUfQ71kAAPfr+xQaTyLQHU7q5vqMxCMehLL73nvmae8+99efu3Nl5evOefjH9Ep0GGKMEVCBIzCSTH/y8t/fuCB+x9z1JHFQi4ThVEqEEJGcRufGeljH//UzMNmt42b8MLzz//spz+2qC1qAxqDcNKUbb5wwVfCMPzSl7540tx3Tdtu+tkfOed9Hzj7sh/95NTT5k2ftg2pBNGCJAJ2fFu7JIVIw5qVq264df5+M2ZP33b7t+0+4YCZb9eZCczc2dmZSqVuuP7aP11zzQEHHrzPfgegCpIk0VptqmDI1btJoiiaO3fuEUcc3pJured3WBN3G25wGzYhCEybbSOzFSEiE5vOzs7//clPJ7SPz3d2LFy4oH18+wknn3j5Fb/I5/OpVMQAgpDOpNNERcvEMnfuXACwBJZAANasWWON3XbaNAOSmMQkiUmMSZLquqIouuyyH+x14L5CeMtfblq8eLExZvz48Z/+9KdPPvmklmz2b/944CdXXO4OJiDe2tfzPFsXUp6OB0kkMWCristK4GSQk319jt8MBqLezTFNxp0RrlKWjUTQqhp0WISEQYZaYt4k/ZUqXdSvnTWHhIr/qBURRiECbNqOCwAA2hhTUz5TrSvtTAjWWqfzLDYXhgOpJBAry1UDcU5X1bUjoS3DlgceMHg7XRIIy7Y6IYRn9EECDJwJ0RY7U1qvW/7Kc0888J+fuA+0YQaxEaIiYQSjFBHInrvuGCpJhLu6ujKpkI1RgbvbCYT+8PurfnvlH6ygiGy77bRKgGZmNmJR6d/87soDDpyx01t26ezu+u73L1u85F9hkHr+pee6OtYhJUgsYizINtN3+fz5n9l+QvbRxS/d/8QLx03dBXQ61GRzXUE+zuXydu2ar1xyyXFvP/bmX39//PhxCpN8d2cQRGITd2PSJo2Yvfc+e8+dOzefy2/Cc44mrDWB0gkXV61Z85Of/Wz7baZd+etff+pj//b73//uiQcf+fTHPkak4tiYJBk3fvxPvv3dpBCffuYZ517wuSKb/Lruchpu6Ojq7OzqnDx5cgSIOoqjEkAoBIgADeS5ruT19ni2ICKCDDWTbVbbGSsixjILSymUgZRkivuokdUPTpqzOlXqFREwTTzHMtvqdoqta7cqn58RyUktYTENPGDX629TfSxvRobSBWeo6nKNLwWRSCFbSUziOqi4jxGw8TUoXc8mZ6VG51GQkHrNcjK0E30fK4hgSa5ZO/g3Ue01T0wVWyCXr9TgbvUuOkY/uyNXXWXP6IMEAMEmcbZ9YjGftGfDQw/Z7wMfPqd1XCZXKIKEULIgAhJ877vfy6TC1SvfbB3X3pJJrV+7xhoblASisyB+cuas2dlM5qmnn7785z8vLWETq1AZ5ocfeCRJeO7cU4yN09nUxRd/fe26wk8v/8XZZ509ZeoEJKtABBIrSqXb8p1dL768+Mqrbzjx5FN0EGTaxueK3akwQGTgoi1277Td1GOOPHR8ayrXtYbZWmOjqLWYJLrkobixiAgp5QaI1avX3HP3PQceeCD49Kq1YMuk0Vl228ePW9fRocOgYBLRtPvbdr/tr/PT2UyxGF/+i8snjJ9w+qmnAkCQSa1N8mEq6iZwlkUGuHvhgpPe9a58Pp+KUgxsmY3YuHq0JOxJip/63GcwpIQtsj3++OMl1G92rLvxd7/5wc9/AkKCsMOuO7t9daV/tvQmHs/YhJm5r3ml7GSiKn9zr4gREQF2C9ZKpDeTO9ZZckREYSUswsJsh3RiqS7oanSCr6mFDsvct52lqushIkQAokoSiIGHChpa3V9EdDIEBAZWNEh/KwvTzmTAbCsarNrhp2+litmyZWdBrHzkHMillrrrV6OIgLhNKkQDDXI1lZ9Syuk81yzs4/1YG1TVurW0/1FrXe9bdAqynwWxAiE5adiIBdG1s7qs94AcxbBbdTQIOowiNFC0NrGSGIsJUyrlEisTCpjEYBAY1OMmT+npWsdGpTNpUpQOo3QUWcEkNoWYjdX5ouigpW38xEISj4/aV69+M04KAPzCC88//NAjf//b/XGSm3PUYWef89Hnnnvp2WeWfPmrX0GSXL7HJsVAB6ecesq75p7S3dl1z8L7//0/Pvv68hWrVq267to///GqP2Yy2TBMFfKFtes6xrenHv/sBd1d3emIWrOpeSedMG/eKVqHwKbSu43bpCKB1oiYzqRXrlxx9Z/+RIr22WffbSZv4z4HAAu9j0/1bpO+z6Cj4Vbqd01RIBNFxvKLL76YmGSXnXdYuXrduZ/7THdP9+pCrn36tGKgErYY6rXFQnsmFadCIooRwijNAFEmIwj5QuHxp5947pV/nf7eMzItLQDQk8uRVgXgrqQwQTm/cWAFcVpd8vMfHXjA/gKw6L5F999//8pCl8mG/3Xp/xxy8CHZIHpyybM//enPrZTNJGX/I68RPcNMv6CnFZxMKOmBigURWKwgoRu1EImoNII5i1fN0QwJkBAJXX6pmtKnRikXTYWwstOuKTOQM7CV24n1059Cr7kOy/0lrHdZKn3s118nQwBhYEWD9FeEgbn3Old5eJbP3y+gBJFCAEWKndHThcJFpEZMub3nRNBEpMrWhWqo1ihU0YWuG1rrQS5QTdzxg+yCrFRR/abW2lqrtVZauexbDQXKrgrE45rq5KlntEIC2dY2sDbJ5znOPfLg3+67/15RUWJZlBBoJxC1VoGivfZ8a1fHGk0u5jBqgjgpEKFGjAL64+9+/ZMf/3DK1GmdXevDUBPbfFfn+PbWcdlsRPqcsz581vvP0kFQKHan0iSMS5559J1vnzN+0vhjjz1G66C7u+s73750vz33yGiCdPgf/34uEb3+6stZTSeedOIpp54ax7EOU4VCz/q162664fqPfvjsKVMnoTEKDIDYOLaJ2YQSLAgCEWlvb0/p1LPPPnvttdcmiTnssMPGt40HwO58VyqV3nS1bZW4R30X6eP+B/55+nve8+a6DgH42sXfWLhw4Qknnpga19pjk2wUWJDWyRN0NmUDqn4SZxFUyiTJDTfecM5HP9I2cUKhWMzHxSiKunu6QZMBcVtwGEFY/vMLnw9JGwADduYRs+ccMceAfOTjn1SgAGA9F6duv+3/XHpJJp0GJAtgKnl+PJ5hpJQZstZcL1XubNXipuJChgQIKFx+tlG1FRjb3rJUbVRqxF2Oq47v7203GCJYCemPLoSBDFbWWRlLxyMqosEFZb/+1utjNTUbz5awvIOiXwcrF7bPScgJOFRMUrKTUVlZqer95jWxvXaJ0R4o2zNWcBGngcEayBVUkkxpCQ8/eN+PfvxTGEYqioxbHxEigK6urst++IM0FtLKMluCAAEJDDC8+soLTz/1dKgKH/vwqYcddpiImMS2tLSLYCFfUEWjEptW1LF+/Ssvv/arX/2qWMzPOfrQww8/YtWylz7ykY/cdcfdry5+fJdddrn6V7+YdeA+u++0bWjz4yZk169fIyzbjG99ae2bmouZlO4pFgMRlEIB8pJfmyajudC5fl1rNm2MAeBAkYAAbwI9gIg6CKwxkyZNmnP4UT3XXvvQQw9HYRTH8VFHHTWuddyQMW5GCFhvgWrTUSgWSdFnzz23uxiHYSgi3/j6N3L5HBEVCoUJ7eMAoJgk73nPe6Mo0kCmygcgk81c9D8XA8BFX/16Tz4XkS5CMQg0ALS2tH71a1/LRGlnryUomRBiNsxJoAME7Ih7lNYu9WKRjTC0ZsdpgAQ4BdDt4neP+uSvnpEDVhlifOjNMcnWMTF4PEMgBABsTFzIA0Aq27r9jjt98lPnYhjlYgvMiGiNRWAAaWtN/9cXP8/MCoWRSUEcFwHMddffHBe6z/7whwC4u6czFbHWIdvIFJJ0+4TXX3q1e13XtMnb9Kxfd+N11+Xz8be+eWF7e2sxKd5w4w1HHDpz6qQJ73n3KT/72eXfuPCBd518/ClzTy7mczpUnWtXieV0KrV25TItJiRBW4y0CgIQS2GAYk2uu3N8e7ZtQjvESbGYJyIVakSUTTEqE5Gzpre1tc2bN88kyeW/+MU/H/jn6jWrs9nMUUcdlQ7TRky94i74wJZdU2ZxK0GbXSBmoogAeozVUWgS6zx2dBAAQFtbm5FSVomJLS22325CEcMchRGDFOJCJp0GgCDQSmsCjJOYEC2wKhdi4MQkoQ4tSXdP9+TsuI5isSUMNehcUkgHKSQdgy3GSRhGq3PdLZkWOxpW9T0ez1aDF4ieUQIDgU6lJk+4a/6dv7/q6nWdRQkiizofJ1EUAQCbmIQVCpIYY8GC0vDBD77vtNNOjU285IUlX/36F9+22y65Ys4wT5g0OZ8rdqzP/ebXVz3w94dSqZY4ji/6+teiMA0Yn3X2mQgcBqpYXH/f3x54c+XqufNOf+Hl1378ox+RUvNOP/XP190YWzn7Qx8oFArGmPaWbGKSdKTyPawJrbHLVrz53R/+4OV/vZpORx8+6yyrgoKVkCixHKZarI0ZiBiAcPBVj/qUY+YRIiFbS6SEhZmPP/54pfX111+/dOmy3/zmt52dnSeeeFIURgL996tV/2+hUMjlcsuWLQuCoJ9PUh/vGafUNyIQYqW7KOD8STo71xMiCWvCeIPP21i9FsACKK0AABUBgBVA0ki97uhaadcMrFoSEhCtlItEE4Qhg8RgVdmnpeQdxSKElWg1RMqwBcB0uqUHbEtrOwDEYMMgtM7TGhCCyAqk01n0i8uezU/ZVx/7+KiVYv7VGIj6WLTLS729Lv9Yuj96D6szmLkjybnXNTngIZWiEiI1Gyib3G1daudQZUvuw1h2l8QGPMOrzlneC9F0AMWKS97ADtZuQG+gbKwU73PkoLWXwmsTAnqB6BlFJJZtd9cRc46eOftIDNMGQyvoBCIJsIkJDKIQirWW2QQKlVJJnA+0/L/PfzbUqrU1WygUUios5PKBCtpa2v/zvE+r81QQpeNc3i1hMzBBDGDAJjaxr774wswZB3/kw+ccMvOwi75xEQCPb28/+fi3v/j8C+d9+lPTp00979x/z4QqVPodp8yD7u4kTkgF202bcunFF4epdFdXV2LibCptjTHCCpDRBkpvkv3LDkQSEZdVGQBaWlv33nvvXE/P3ffc88rLL//f/92SyWQPPuigiRMnAfYNO4DIhpVWRNTZ2Xnvvfc++OCDuVzOmSQrhzmxWN6oSM36ifdjoEB8dsmSVDpkkQ3Oi7UJEQCiiijsZRDrpq2KD7LBsQzNyOi+x+MZO4w5gViJejNa04WNZQINIRKSjbRas3Z126QpDKTYppUlYQaDYAhFCC2xZatRicTGmEjpVCawbJNiT6gVWCux1QpNoZBuSYPYuHNlmInAArutI2iTpJA3JgwyH/vw2UD60N9fUSwWhUAEqdg1qSU1beaBhx14GSEmcSEES4Cwfg0AoDEERhjSoOKuNRMyGcTA2hiBFAsAqD6xZzdxFLwg0KGKdt1119bWVqX1X2+99fnnnrvxxhuMSQ6deajTiNWwMDIS0erVqx9//PEFCxbEcbzddtsNpwWxu7ubIhWmUs1uidscDNB33jPLM2oZeoqstpBVpdoj5JLVagTPsVuLAEACsVtmnBlzAtEzWqGSdYZ7Otdmx01IKVC2SEjaJppZCRtOAJgQURCsQTZRREAqMcbaIjJykqSzWWHJ5/MRBUicDhX3dHV0rhk/bRLEncCKIAVAIBxqijItUmTQlFu3PjMuY4pdLe3tYAXCAKyVYi4MAhAhrQjAFntUKgWWdVrH3fkkjlu23z5ctx4gAR0qAWBbQ31s6hEsVCEApMP0lClT5syZk+vpuePOOxYvXpLJZAHAacSajo+dnZ3OE3H69OmzZ88eGPKmWiBujAWxb6o9AoDHnnj8+ddfm7B9G6ICsLLZ0qh4PB6Pp8KIE4j1AkX2M/gNGbPNM2bJZrKcJOlMim0CACkFYoosTACADAIioBCU0mwSAEBkhYKIqTAAy4SoQQgFrAEE0jR+wmSIGSAqu4ExACAFYASVgiTOtKTAcEs2AyYBACjmQQAJXcAAUuSEKRgLAMCiEcKWLKxbCwBgGawp+ff011U05KYMrvPzR5BSiiYupzHuDYkvFjgTZaZP3/bU007LZLNXXXXVwoUL8/l8JpM99qhj3QG9jSBy//b09LS1tZ144omnn376tGnTeuvqIxCxRj+aYWAu5gu//t+LX3k5ymSNsHPM21T+eNVCs/TVVjcdS82oDtsB0C8RcjnFTqlgLT+tOqmx6r1fT/76PMuezQOWn0QJhECo9Adshpib9cYrKvnMYT8fxM35k3cjY1OeGyUrKbqI07Tl7aM1G9Drg0gA3CdcdZMNHnEC0ePZKKTsbIxMfXzEuDLZOypB8Kk0IDIjWDYadRAEJFAdpxoqwejJLftS7/vIpX9hMB8zLLsAgkkoqEqRIm4JYZjmfgapGAitZWdHzOdzd95519NPPyXCuVzP7NmHT2gfb0dSjjcWISRhYb3Fh2SPx+MZE4w5gcjMFR/ELd0Wz6aEqx92B8ot5xtXVooANR6OS7Yit1CN9Z+dXRxSp5/co1n9c9Zi8GOGz82OEBWoHXbY4fjjj0+lUrfe+tdnnnmmUCgIy+FHHOE0os9OORBvyfN4StSaRSvZy3o/HamT7dax8QthSymWMScQPWOdXmtfP0qaryKJaq7eVtkg6yi5fqVGsJaIghQAKFDbbbfd4YcfkU5nbr3llieffMr5IzqNWOmlLqOUchmJBuR36g3fsElGMhpktdXj8Xg8mxkvED2esU6ooh133AEAurq61nd0PPXUk4hIig4//IhxrePcMdQXtuyCBQ4zBGwr5ttNZG2tPkv1rqBS8r2twcTg8Xg8mxwvED0eDwjLbm/ZLZvNhmH429/85uGHH1ZESuk5h8/JZDI8EGGXMnj4QWDyG5k9Ho9nM+MFosfjgShI5eN8W1vru971LpMk8+fPf+zxx7q6uxSoI488MoqiYl+2dHs9Ho/Hs3nxAtHj8QADu4xwUURHHXWU0vruu+5auWLlTTfdFIbhQQcdFIZhGIZEFIahUoqGTjLl8Xi2MkohsVhkU4fo92yN6N4NR0NRHUqt4qXe+OYaV9YlcnURd4dtV441loXd3DY8NXo8WxUCAJW7Y5edd0mMKRQKixYteuKJJyZNmhTHsbvrrbUuLCKSd83zeEYbUgUIRKkQ3PAg/ZM6lZ4Qq6N/Vm3IU0qLiFiojh04WL0MiFCpt+qDBtrMpcACwnVyE9eBFCIGpRZK377ULgAgIAaYbb90o41grQkCrXUAvJm3dZf7QgqhWUcgAVIorFpbWsWANsY0KPKcNOyXqrXxUNVVcXqhOv90IyRJkiSJUkorbdlWf1TzJM68YdkaY6y1rnalVJIkDdbo8YxhcOeddgqPe8fECRP+cOUf58+fv2bNmsmTJ69du9ZaKyJun8qWbqTH49nESLUJ0Uj5TYYB6ZGwavcWIlUOq5YKJYXAWDmmHsyWRBljjbGVeqvPOXibrTEAYImwyT1lrqkD+1ITZxFjti67uhIhaUJ+GWOR0FpjjR38atQuW6KhgvWu25DF+33XuqOjQyk1wgViLpdLksQ5PzH36XnNk7g3mTlJEmYOgkBEoijq6OhosEaPZ6zhopYJiBETBdFOO+6cSqU71nVec801jz/+eCqVCoKAiNyttAWaJ8MYInIMQyM4MJNnc4OILkcIIq5Zu8a96dII9ReI1ck2CauzDZWlAjs5UtIJg645sGVSVCwWuzo7SfXe6H0yGNVBROIkBoAwCJu16pUE4oC+1IQQWYQtM1sAIFLVTR2SJI4Rsbu7xynFptpZLBYJUeugwYL1rtuQxft917qlpUVrPcIFojP+pVKpVCq1YQKRmaMoam1tbbBGj2csk3ACAK2tLfPmzWPmW265Ze3atZ2dnZlMxhnjh7k9JKXMeygjN+iuxzOaGNfe7v4oL+D2FYhVUsOFm64EkK+IjGppOHhIamtZKXIyqFJvg0HphasEYpPCyzV1YF9q4iyItkogqmYEYhzHiKiUbh/X3myA7mKxiIg6CBosWO+6DVm833etoyhqUCBWEBG3Vqu1bnalye1/bNYC4TyfoigKw3CQ55iB7SQiZnaycgOcBjyesQFS3yyB7tE/nc60ZtqOP/54RLz77rtfffVVa20ul+vo6GhraxvG1nH5Xx7OTDMez1gDqwhSQTEfA0AUhYAD3AFxwN/lA8SCtQYRVaAafJwLXJZ1xDiOg1TQ+0Ej9mwBJ9SCMGjq6ZGNWGsAQOsAFdTo44CKACAgAIGkmCilqZnMn1oHxWJRKYrS4QYkUEBEHeiGOlg+hhNxdlxS2O+jQRALIpLL9bS0t/hdzJ7hg8vpSsjN98gurN1wt2OwZCqbmiEHnc3UAKHS6RCEBQVAiBpwWEZAl9mp8s4222xz9NFHO424bNmy1tbWLfGgxSiVXIguCKK7Vl4vbhg1v0Hy19Pj8VQYcwLR2RG9KXELUqWXmErqsK5G5Cadeas9qOr7K2+gIYpkQ8Rs4zUxbojiGdjN0kUQBizN+SKiQBFWC8T+upUAoWxHdDeIiDgPjR122OEd73hHkiTr16+fMWPG9OnTm23kpoYEoJwuezju5YEZVjbmPI2fQQZ0bvCyTZy/355NoVKScdHEXiaOUapcEEf/b2CrkQGyxZo65gSiZ8vCABZIAVinRtyr9OPvPyRtQJYzxpI82hwZ0ionb7bU5qPuyQUACIRRGNiSAJYsiARg65QZcA5hYUTCMAx33HHHT33qU5uw5UPCAM41yOnmUheEsNoOvdEMoqX6PGxsirqqqxv8h1T5WpsVow2ev1QLQElTCpCARoosKe61I/polx7PWGbECcSBu4oqzqED98d4ti7c9+dCDRUCFmIsaUQAUlxD7GzIvNyAIKs37dWrrvd47rM2PfT02dA8XdXgxiygjUAgDMgEjGyr1/Gx1kJzVa8QAVwsMiJCkM0a0aaRLzgVZYh0T76wds06bMtApEmHVN9y2OcaNnD9G9FqBCAIiMAIhI0GMiMAwyXH64BU9eaeIZzv65ydq5rUr+X9vqQGnPsBCS0BAWiEEFCJevP1lSGE6ag1nU7HcewDx441nO2QyotspT0NWP/n3uwYVednWTcO4ubEhfNpdr/ImGLECUTP6IZLRkSwVDIfCpJURogBUJMB/euJrYao7ZjYd1CrPmajxcfGH1/3JNJroGWwAExgmn2sQkAaAQGxp0+fPn36dFM0jz3y6Kxj5igMCLWxFlXvprx6l62Ry9m4lc4CiAAbEGgo1YQIBKTcnjy2JUNdI3GDK1qPJx9oAAAgAElEQVSQar1Zae/Ac/Qe38D3xlg6ygoYIz1rOl5//qViT5EQW1vbvTr0eMY4Y04gVmeO8SbJ4cctX2FZ+QkQA4EQiSVudOlzsPNvjMCqW7aeKNw0C4/12rzhfXHry8iAxm1QFkhAWaLeBg/edBxJsWS23XbatlO3eer5JX+5/noUu+12O2y33XaZ1hZUxEDuVyQIjOD+rXbd46FMiPWsoy6qTuUrcCIyRAQABQiAiEPv+GECZuGEAYAUISIzi5FGbMO6b8NrlqjXtwZtz0IQRapo2OQKcT7/1IMPL7h9/huvvnLE7MPe9ta3JlYChbGxWvf21C85e0YTW4X5ULi0iDr8VY85gejZgmCvQKzoE2LQFkmh3Qru1K0FrChAzUAsKECMICRbY6SYfffbZ8nzz7+x/I2lr7x8+403tbSNy2TS48dP6M71MIIgMUA/gVj5eQ05qta7Fk4dOoHo1GHpb4Bnn3q6wZa7ZnT3dLdkW8ZNHN/a0jp+woR+W0/q2byr7Zr13q93nnrvD2xelE0Xcvmejs64J9e9Zu0bL786vq1tt7fusv8BBwRq6AQYHo9nFOMFomf4IIB8XAxCLcDtbS3Z1vZY4NXlK7ebGEYMISodRaC16enpF7zUz1LNwMyWACmVBoA4L6+uXNtTxCCdybRmty516MTN1KkT5xwxOzHFx554fPmKFSteeT2Xz5skERFxKRx697L010ONZGIYRCNWCMNw/bp16UzGxklra2uSJMYkLKJIDeKjKQguK1fS2bF2+dJisehSL1iRSg6GevujqyPIqVKgyv6trTYDb4BAdC5fRJRSgUZqTWX22m3X/fbd75ADD5g0abw7P6o+5ZvzwPV4PFszXiB6hpVQIQFbMDttv8MjLS1dPV33P/jI7AN3n9LeHigKCQMgTLVBabNEma1hIWCkgMw24djohAoxr+m0i59fFttw8rRttt1hx60xEUmSmH323WvKtCnbbbftc4sX9/QUujs6c/m8iwHbRwwNKNuIp2C9pfzeCDAAAGCsjaLozTffXL16dVtba1tbW7alJZVKqToCsaLMcrnc8uXL169fv+O0bdrbx4WpiIhchN7BLIhIFb2oEKt7R3U6W2pt3y+4nkAkAREBZiIVaa1JvWWnnd6y266zZ83eZtqkigfrVvdr8Xg8mwovED3DCSulAQyA7LPXXs+87dmH719wx4J72zLBjINmKNChDQPUznborIZuetswD9GxkFV2wPTvdi4r4iTpNsuXrf3X0rV3LHpk1Trztl133GH73bZQMzeKKNC5Qjx54qRT580zJ52stdJaVxu2qr/nft/5kPKwrg/igPMkiVm+cuWiRYuuuOKKg2cefMoppxw2c0bSgIVy4cIFf/nLX55+6ul57zrptNNOnzRpkiYw9VtW2jeNvQZF9/MfsqambhKqaMBKWBsDwAJBSYyK+Ocyj2dM4wWiZ5hx24N4++123O/AA5598rE3V66+8++PLXjgGaWCMAiV1rmqJebSstpQkVbcVNrPdrIxAY23FgYEUmYAVgKhYIhBLp+sXlfoMKpl3MQ99t5n//0P3ELN3HDc0moQBACglI6CGkPWwKRf9f63HkMeliRxFIRRqLt7Ol3SP2aTDLWtyj2itGUzkVYt2XSgKNfdiRPGAymxSe9hVUUqRruaD0j9ngeogY0sdW8EcVuyGUQBEiBwnFAUuI8INzLKksfj2erxAtEzTIgIgCAKACnQE9on7rH7Hu8+8wOPPvLAimVvLH99udtPwMIbsF1r8wXH3hqxsWFjwjBsbWlPZbLbTJ52yGGzjjr27a0p7YTBVnSdXJyeSh71msFfBgHLJ2nksEEIlAYAGydJrqAYlIAS0AxKD72XOS4UFVK+uwdYQh24Ik7ylihFrxEA6LWMuh3Tg7ds479IVlASi1BShwyAINJ7bu8A7PGMTbxA9AwnBOxMJBoA9t//wOnTt99+x52feeaZpUuXVnQhM1cVaI5hz+u8hal5fYQFtYqiKJ1OR1G0x9vedtAhh4yfOHkr0oXVbO6Fzvp7TGq/jVJ+NRwLkxp3eOgTdHPzy/nqk0uft8eA/d3j8QyGF4ieYUWcOcIZCy1PmTLlmGOOOfTQQzOZzJZu2qiCmSvr8iLiIvBB1WZYT1MgExCQEAmVvfYIpMHnF3ckgRDVjJ6Iff4D/f5v2Ey+dervr1k9Hs/YwAtEzxZDaVUoFJRS1erQGstNZk/xVKOUQsRqr01ELBaLiOhzY2xxsLLfxCstz8hDWESYy4ltWfpalQenX4QplzSvMadgEUFBFuFq54aGWgyVdgoDqibuLHczus6WUgMMVVYsIA2ay2iQsiIuuV+zBXuLMyA1vKwmVTEcmnHNds107dTMzJax4YRa1lprbZIk7uJq3YTENMa4tKSIWK+gi1vWNwYeElFPTw8REZEL3FWd1XQgpS/essM1u/KvZ4tQnb2m8rfLQlbtdEiKULDfzmWf52Yjcdd5K6X6y9/a3eFq/5KHXEoenuVef5ONeUS4pGKEQUrTsVNF/R7bB3qmVg5gti78J9lypmOpfWSfelmJU4imuTYz21I7RaCZfAvWGmMsIoqwWDWwjwMaKSKsRAmDtYxo0TShf8R1jwUEpBklwmyNtaUGWMChfO2RSkOKiFhmRQJGNT6HVn4DIKDjOGbNrm5rrZQfHWrilBkzuyONaSK7KxEhopNocRwXi8VqV7OqxslAcZDP50UkSRKttbW2ZsFqSgKROUkSpxGTJCGi7u7uBlvr8YxKvG12y1IK+e4tiJ4RiVThFIYTKGzYmBqipnqmrigHpzCIFJOVBJnZWu53TD9cOkdmy2wLhULjDXYB55ktACQmcYahhjvLzKyUFhFrjU14yLJaK7KK2VprrDVETYhZrRUzM1ux0FQfXVMRickCgDF28H2cWivlNtUx275fWyMpJ7RWLOLaqbPZ7JAxRGo1V5xjU7OmHaftBss9MEAgujQGSZJk0plG9gxWn8oJxFQq5Vyy2tvbK7/+DWi8x+PxbDzCgN5i5xl5YBWApYlYaaVIBRA0cAIAAGAoFmNCVEqjAoVqyJI2tkTKvdItqabazIk4C2KgAwqauKnEQGVJU2mlh9RBAmwEFRAoHQTNVmdjS0REChU010eGJE5YhEghoo4aM1syKCYKAq0DbMaX0MYWXV0KdBzHSinnt9SgYHIGuQ1zaYrjGABSqbpXp2Yboijq6uoKgkBp5bRdI3W5hWxns3SSdPCFaY/H4/F4PNW45xm2da1W1e5DFXteL9y7dNtICDNOmvCocAvE5ZOzGNV4lDRmKyKkCJGEAXiI5pUrUs4Xzlqzwbs4mupjxSOwdAENDt5OUlh5+GQRa01lVbrZpLW6sqZcqbJB+SUi1TslGyxS+aMp610+n68OG9ZgcbcIzsxBELimeh/ELU6zVltv5d20jDQfvuFpTzOD1OZsxyjAX5+xhxMV/YZi92a1aqwcUHPQLvlW2NoH9NkMg9jv/IPPAhXR4/5ofMpAxEpKdFTN+QWW033VrWtg+wf2cfDjK4gAIXLV4ioiDnF9ynGqqHQ8DdwDUI/qdmoiUtSEA6PH4/F4PJ6xAgJg7XCkpGu8S6CIq/bPVpWteTwAoBASICESVkeCqnd8H2yvMK0ZRaoelXaW1tMV4IDMVNUI956dEKlO0Ko+VVS3v8q/sV7BetdTRJxwK21AGfT46gMQ0Um8yv8O0eK+7RxzYW64tIW/OROmx+PxbDxulUpEgPuu9vjRyDMCcKYmJEQkQGg8vEmtUzW7nrnhbEw7m69sA3MLodO/hBsWhp6a3TWBbv296ZoQCYBdO0faipPH4/F4PB7PcDCcQnarY8xZED0jH2/c9Xg8Ho9ny+KVs8fj8Xg8Ho+nD14gejwej8fj8Xj64AWix+PxeDwej6cPXiB6PB6Px+PxePrgBaLH4/F4PB6Ppw9eIHo8Ho/H4/F4+uAFosfj8Xg8Ho+nD14gejwej8fj8Xj64AWix+PxeDwej6cPTQvEDUjtt0nYVPUSuZSGPleHx+PxeDweT21Kqfac/BKWIfNeV6SViFhrG68JEdkyMwMAWyZFjWu+6opERFiGTM5NRK46V6M7Q1MN9ng8Ho9nrCMAAFJr8iwpB+HqN5nZGEuKyAoBAkDfz2vAbAEUW2bLNSsavCxbBgBWlkA1VdBaRkLXTuEh7FCum4oVW7GWAYBsc9WVmsr/n707D5Pkqg5Ef865NyIyq6q7elO3NhBakACBMAi0ArLkj00CgcUyg2G8zvMY+xmP7W9sz4znM2PPw8/z3vjZfjPjsedhkCxjMx/YmEUSm0BghI0NttiEJCTQvvRaXVW53XvOeX/cqKzM2jIiW91d3Xl+X3/1VVfFzXsjKzPi5Lnb6CdkRcEYGQCIGJWqpLfQgTKICLN4D7D0tFQpK8Kqmtq5vBezirIwACiv+xwRkfdeRdPzmGKv9aRjVjQohWiiInFl2TWPX2qxlKGhqoqKCvBGx5d1CYsIM6tqGZhu2GBjjDHGrKA8FDxpCgJUEbEMBgZ+m268ACDEKTRJx/fv16vjsBjZOWWO6V//59UCmrK6yOTrdDbGyKqqrKmd/Uauh0UIEWIKvKKq26B56aGIqP99jBwjM0eOvLqi1ccPVc0xJe8IZfA5XO94B545xsgi7Bz1n9Iqz2d6WlI7/eAv0h97g4cgpBXHr/jJkLUeJj342qXWb/mKJpXFNzxTXIWwUuhtjDHGmD50ALx890RcykitdSfnyJEJAIgcuZRBLI9fChNXFnFOadlyWq7iLTsV8c4hUvWbvPcQIyNhaqeK2zhATAFSqovIkRtq6oYFIZ2jc+UJjqpojaoRyZUD5FY+6Wsc74DUkRNVSUHk0pGjRxU6p6Lpz+GWA0Qk9Og3LAj9jwvpe+/9YN1VZFkGAM7XSMwCQLPZPHToUL+dFStNdaWDsyxDxPS1PwZx8I9ksaMxxhizEgIgjIoOlrmsvL+Tx5TH6YclqOvdZz05dOyd9+QHjqlwW3bivEgZV9S5jSP7Ms/lERCQNmgeAACoUwH0ZY1ENNTU0bxz7LxHP6qiVZz3hOicR6r0nAACefTqVoZblar1pJLaWf7NU3hUqW8bcc3vK/Ku8qtswGDyr1al3vs0OiGVcq5eYGqMMcZMtCq33IGMWOqPtpzLSWAoFVex8x5p/FnAIYYQwxilBjN/FalqCGV1afRhjLFCOWOMMcYADAd/Yx5gTkwr+2prrSZzzJa8ERnqRz9eS+0YY4wxk0jX/2dOUifMQtmWrzbGGGOMOTZOmADRGGOMMcYcG2WAmNY0Wv29McYYY4yZNJZBNMYYY4wxQyxANMYYY4wxQyxANMYYY4wxQyxANMYYY4wxQyxANMYYY4wxQ8bZ+O6Epkvq7stijDHGnMRURTV9EVBQsfVMJppHxP7WeRUDpiMJrY6kYN2yY+zOZ4wxxpiV1ryRrg4gEZAABRGp0ibOqRAiIBAiHeH9uk7pNdo5qjjS8mFErl51WEZbddsJAFQWBsDKZREQiVDWOH7DR0BEAErt9CdKFNVfmnHzN9UYY4w54egA0PK2qwy4uq9xvdyigkoqKKBLIdTYiciRBY9TOMAsWXF8qh7TWH8ILyLCgrQygzi4Vnb/54ioqsIiIog4uD9yFaoqIumbWnFes9lcWFgoiiK1qmJZWQIAqaneT1yXujHGGDM2VUXFodgCB772CagAAIgwixAisSsjy1F3bBEmcMzCvFbGaxRJgWzNosIqIohK4oEAZMTxKfAlRGVgjqBFrXhLhEWYWcbYwJpZkJBYyzziSAQgkKrzvPzjsuyGtYuwqqZ2+hBCP1xbL/Dq/5yQREVEYoyqGkKoHiMSESLGGAGg1+v1g8UqWq0WAMQYY4zMPLIgETnnVJWZmbnb7fZ6Pefc3NyciPTHIFas3RhjjJlMqiKRRHjgJ5rCsjRkEQDIUeoJTdEMcyyDCkYACCFuXAUiOicxhhhDe6FTvW2p1zaG0O+HrV6WRTjGFHA555lHNDKdrlcnIiHEOOqkVoiRQ4gxBg5cd7O6GEM6tYrnmE4nhMgcnVsO0qqUjZFVNbXT19pYj5VTEjEFWN776gFiv2D6noiql200GocPHx6sd2RdhBQlpnAwyzJVJaIsyyrWaIwxxpj+5JXBn6Sk3WDwIaplJm/pRi+qLo2dcyPu9cKSiovqyIMHOaIYmUVSZJNlvno8k/pCASSFTTHyxserqqqkgsxx5PErMMdUKjLXnf0TI6ehgIJUMQiOkVN1zi23s0pZ5qiqqZ0+yzLnHCEBQOpoTgZPoP/zFOT1P0BkPnPeVT9JjpxiO0euVsEYY5Zl3nvvvYoije7dVlUPPuUpiSjP8/S1eqXGGGPM5MABgGU8kW7WyEP3XI84OBRNVRxSGT8tdUh655x3KlBkI273oRuIiJ3zzhWNGrdpZQAAEQcAeZ5h5fgp9TSqekR0mQMEn48agaagAugBBFSlMVVvEKLEnMixSNHM63YxIyEhep+V81RGFwCfew4+MhdFPvjzKu1UFVEtmrlPvbGru5gV1xiD2P8+dfIOBpRVkCuzhrU+IiRZlqWk42DDNpA+tZDYQo/GGGPMuBDSFOM1fqPlD4WJHAIsh5KI6LyDalOZnfPk0LF3NecJoAMH3vk008BhjbwTELiR3coTziZtGGOMMQbKRe+oXPyleg6I3PpH0hHMYjbHlSXYjDHGGGPMEAsQjTHGGGPMEAsQjTHGGGPMEAsQjTHGGGPMEAsQjTHGGGPMEAsQjTHGGGPMEAsQjTHGGGOqQqRJWLtn4gLEtCW0bcRsjDHGTCw8UcIfXXuV8ioIUWX8mk+UZ8gYY4wx5vjDIwu8ThTj7KSiUm7FraIVN77r7+Pc38q5v61zFSKiA6rU1d8yfLCp1Ws0xpjRtNrWqMaclNZ68Q/u5rzysM10BxYebg1uruaN7+m7IlkG0RhjjDGmKqQaGa4T18Ttxbz84QZg8A9soxKNMcaYCXGi3PRVoFaP66BUEMdNKloG0RhjjDGAhIjlRM4jepxxi6ucGGk5QtSTehAiIYIMZxAHQ9QV4aqqqqio9IcDIqKooFZ6HagoC6fHRMQQQkrjOeeqFPfe7927d9u2bd57QhqZ3VVVZmbmEEJqsIgURVGlLmOMMWYCabpbqqqqBM18hojK5W/7035TaJSO6t+LnfPpAFWNzI7KhWAkqkj5EOvduLNGBgocY4whdEP1BhMRkXNUtmywrpFYhGNEpEyVyA2ey5qc8+gBBLrdnrCQqzergUW8d945CTUaCQAhxF6vh4RTTSQd3c70W1k6RlW5/xfcMHAv/5xSBniddtcfOnQoRWkrZoGs1/3a//nYOc8xtNttVW232yGEFFwSbZT7JCIiUtUUIOZ5LiIhhIWFhWPTYGOMMebE0um0O530pb2wuDC4usqK2GK9u//gCK4QoqoQOeeWAri1SgmLCDvnRThG3rdvn8+yig1Oyc4QIgBkmU/hTfWyqUkxBAAgcuRG9KkKSzojpNop0tDrEdHC4mIIsW7x9BQtLixUaWfKwg6Gav1fbVxvekKWRuFRCNFPTU1571ePydtUAWJRFCLSbDadcyGEtJbhBsf3A8QYIzOnALEoitnZ2WPTYGPMyarfC3aijGEyZgxbZrasCCnWixf7wUC/k3ApQAwAkGWZc2Vf5ZrdspE5ZfJEeHGxtXPnjlrtVNVerwcAeZ7XeksiUmpSii+do/UST7qULE1v/xTv4lI4VbG6drudAq+tW7dmWb3pHyLCXD51G7Sz39p1A8RRGURVZS4zyADgU7DlnUcakZYbfAgVrXj8irLCgrQ8TaSioigef/zxoiimpqaq9xSnzuWUbkxf6zbYGHOyUhlzpdyyB4drdBKlDqZxKks25Soh5uTTaDQbjfSlmULDNYPCpdiIELH/JuJYviNYJHVT5nledsv26RqDylzmJGYAsLC40As9l1UaeNbHgVMjELFWWWVgjojYmCrKt9jG7y8EUIi92O12e73e9p3ba7UTO/3cXL12cuAYuUY7FfrDAFauBz4q7FIG51RVInPmM++c886PzKwuPz6iqkaOwJBlWd2QK8SQAr5apTqdzvT0tPd+xWeUkU1NsiwTEQCIMdaq1xhz8lEBVSAHABACA4Cj8nq98bquRVH4LEvDsav3nzjnRSSGIMIhRgCgDGHFVX74eiZBlw9bbvfAV8tdmqPAuXJIHzkqGnmn1WXQRrMYms6qawcozpdvImLt9XpZ5n3my4I6UHYtqd82z/L+yMVShde5886LDDbgaBFQAV94n/m8l3PgWnFesznV7XaRsGjmtT7pEbksS8k9QKrwnBAAACJwYFUldeSqXi/QATACkHCgJk7cMjfGmAmHBJ1WtzlVCENrsbX/wP7+r2jDC/dDDz303e9+d/Uo7Y21WospAbBv376HH3o4jQN33vuBKXr9PEz6rN7tdgFgqtlsNqeaMw3u8eqEjTFPu+UdKY5sNrGrnHJaVdBikk2BOU7iOojGGJPisK997Wv33nfvk08+ufzzdW6LLCLM+/bt/9u//dt+p1vFWG3Xrl2NZqPT6Xzxb/5mfn7htNNO7Xa7qtpoNPrH9LtEiFw/QGxONS+77LIXv+RFqsoiRXGUEyTGGDPAAkRjzMQpiiwEvv1zt3/m05/pdDr9n6/ZxSzCaQShqnbanenpqVp1LS4ucozO+/379n3mM5/evXv3wsJCuQ5Iv94VAWKvzCAuLiy86Ade5DPvT5p9wIwxJ4g11kG0qXnGmJOeqp5zzjmnn3H6N7/5Te+8z/w555yzZ9cpLLJtdrbb7dJwAEfOqWin0962ffslL33pBRc8Z+mB+getXdHZZ5/9spe/fNeuXd1uN620NdhPjISOCBEj8+LCwvz8/N13f2dxcSHL80svueTyyy8XYefcybNRrDkJbBgjbLQX87pFCAmQEGnsXT/M088yiMaYiaMCee5f/OIXA0Cr1XrggQfI0a5du6666qrTTjtdhIlcGoWTIGJaSrfT6RRFcd55583MzFSsa8+ePS+86KIzzzzTEaWFP1YEiAAQQ5iamv7+97/35S9/+f7774+xuPDCC1/+8pc/4xnPKIfeW3RozKYhqm4ChgNPXIDYH4Nbd6kdY8xJQxUQ4JxznlUURafT+fSnP33//ffv37+/1Wqfccbpp55xKujaaY+0C4JzPsagAuhGL43hcnfWOWed9ayzAEEZRHgoQERMQ8L37dt393fu3r9//8zMzKmnnfbKV73qmmuu2bZte6WFLYwxNSEB1Fur6vhAAo1jvv9TqDN21RMXIBpjJpwKpGsmR52dnb3hh2+YnZ39sz/7s3vvuZd7McZw/fXXx8iD6+ojARCAAnkk9Fp9vay0JkgqLoAEZX/xsNjlz3/+8x/5yEfuv//+s8561jve8Y4fuuaaoigmIElhzIlH5YgCrxOFT8s2pv9MwgkbYyYcUrmKLBFOT00hweWXX97r9W75xC13f/vbN954k3P+mh+6BpeiOo4MUk4fScWRIMszqJLYU1gePrhiveul1ODjjz7+1a9+9WMf+/gDDzzwnOc+9003vOmySy+bnplOIelSo5/2p8GYlQb3YgZc2kZlRQ578KV4Iie2hYdbfyKfy5B1ej/GYBlEY8wkGtz0a/u27VdecSUiKfO3vvWtW2+9BRGvuPKKXTt3FUXhvFtrh7BqNr5SKzz+6ON33HHH7bff/sgjjzz72ee/9jWvueKKK3bvOQUsd2jMZqWqk5Ddn7gAUcpPRxORHzbGjKQCRLh79+5XvOLlKOK9v+uuu1hEVS+99JJTTz2tMV3AEeyTt37FZXT46U9/5tt3f/s5F1xw7XXXXXrJpUPRoW2yZ8zRccLEAAiiSmO1Vo4skJ24ANEYY/pUQVWJkBzs2rXj6quvAYDHH3/i/vvv/9SnPgUAV77syjObZxyNqvvR4X333bt79+7Xvvbaa66+enp6Zo3coUWH5thTKPdT0ZOnW/npoiqTMOrDAkRjzMRZ/lQtMLh/XaPReMUrXqGqH/rQh77xja/Pzc0xxze9+c2Zz/r5hsHu5tqfzhE0AhIszC/83d995ZOf/OR37rnnWWed9aM/+qOXXnrpjl07Vt517GZsjiFNu4yL6opBFVpjDGLqo4PByLLCXswqTkVVtO5rXgUk7X4p9d6PK9s5ql4VUFVUTN/Ubmc6vXSCtc9RhUBVQapttokACuWfsub1Ku20mJ5SCxCNMZNrxRWzKIrGdHHllS9bXGx95St/99Wvfe1jH/vY9PTMZZdddsoppxx5n1TohKzInnjsic9//vOf/OQnv//gg8+54ILrr7/+0ksv3XHKjrXaB2BhojkutNw7o1zOaeDnZkJYgGiMMSX0oBF27tzxqle9aseO7YcPH77vu9/9y7/8sAhfccWVK2LEMQb3hBAef/yJO+/80q233nrvffc954ILfviGG656xVWz27eWRzx9MxCNMeZIeBFhZkISlfR1g6OdcyoqKmmqBwAM7kY1iJDSJgExxnRJTQ8uIgAQY1xR1+rjV2BmEUmtVVVHrr8JQTr+hBlwaozZxGIMiLjn9N3Pe97zrr32uk9+8rZvfvObU1NTALA6Rqzr0KFDn/3sZz7zmc8+9NCDzzrrrOuvv/6qV1y1devWfqZQGdBZjGg2EVUFxrI3dkl/gffVx7OIsJAjYkXB1GWZekbLm/UEzP89OfgYIwAICgCwjlhWnJmJiJnThlH97ZtXixrTb/sRpKCoaqqOiNJ/Nzh+0MLCQiobY0yxKTP3a09B54qWOOdijCGEdHyv1yOi+fn5+k+RMWaCZEW5wOHZ553dbDZDDAcPHvzOPfd0Oh1Vvfba6xpTRa2eX4lKGXbbvf379t16222fu/1zDz304O7du9/+9re/5CUvmZpqMkfvfHpAJJsQYDYdVRUpwwPEFPOpDNxzy+ksAAAgkrI5CLNk/dIAACAASURBVACOSFWZpT+4rey2Hr5fx8jkqNvtzi/MT001a7VNVEOvBwBZntea6ssszBERsyxzzq8Z7K6oSEW9dyzSWlxcL/hZT4zc7XYXFhem56fqlm13OoTofYaEVc4xnU4IITL3Qq//8yplmUVVW61F75wnIkRMYRmlyjd8iJThS7Is875GJ3U/rCSiLMuqF5ydnd23b1+/rCNHbsRnEEQUkRQgNpvNPMvJUfXtU40xk2j4un3qGae+6pWvmp6aSnucfPSjH11YWHz1q1+957TdgJUGtvd55774xb/5xMc/fuDAwQue85xrX/val7zkJXv2nIreVsM2m93gzrS4FKK4dTrumGOv10vhCJEjh/2b/Xo9lMyRyGU+E5bp6Xq3aVXtZT0AyPO8VnZfhCNzGXh5GLk9UgpwnXfCSoh128kcs8wDwPTMdN11VZ3ziJhlHpGqnGM6nRhDjFwUxfLPK5QV4bQO4NTMlE/W6yleLcsyWsoV1wryUtmU+cuyrNYfMhtQvTc5haGpxrThfa1w1hhjdp92yitf+cput3vbbbc98MADi4utoih+8Ad/sIwRK6AMH37wkbv+6Z9uvvnmvXv3XnDB+a+77nWvetUrsyzDdEGqE2gac4zg8vAt9ODAVSgDAODJpwxZCryGHnKdQMOTB4JMfJZ5rHmXRsBMfXqj1Sro1KV4K9U4sl4EBHWAQISrT20kT55FsswD1e5kzzKPiC5bY5fOdVvrwUOGiGM8LaCQZR4wbbXXX75hVNpzaQBBWYQjj8zkDZbtpypT8epZ1larled5SnauKLjegxARRw4xiEiWZSEE51z6WGOMMVV0Frveu5nZmStf9rKp6elbb7nlO/fc87nP3Q4AZYw4aJ0477GHH7vjjjtuu/W2J5984sILL3zNa1575cuunNoyFbtxeUqKxYhmsxodzazYsk4AEYncUAil6x5fxhLkYuQYue6i9CoQmQGAoqsVeAlr6mJO4enIetPqNuRRGZgjSDGiwDCOzDHGyGMscxMjI2EZzlY5x7RHKMcY2bnlP0OVssKqKukpXS5Zt1N8DP0q6m5k0g8N+2sX9f+7Qe6THJGUv3XOEZFzVT8DGWMmnUKjWQAACDzjrDMd0eHDh9vt9j/9013tdhsArvmha07Zsyt0gqgWzRyG+4i77V7RyB/83oN33nnn7Z/97Le+9a2LLnrBq1/96ssvv3znjp0g4IsV2ZVjfX7GrLAUggyHIaO2i4SRg2VX/HbVAyISEiAhEtZ9IyCVQ+tWjt8dWXDJ8oe0URWBICAgwXKpGtURIo1xgikrR2WOrfI5IpR/Shr6YYV2IgClp9QvrxVZfyLwyAGLqw2GodXLpgGFg+20OcvGmKNr+K52+jNOf/WrX71n9+4/+qM/fuCBB2699ZZWa/FNb37z1m1bVhflHmc+e+qJvXfeeectt9563733vehFP/DWt/6z5z3veWeeeSa54335slGPpq6NF8pe9UJSldQhO/RbS5OfUMYfk3eCbmeckpEnYsuNMceLRkAPp+zZdcUVV+zbt++22267//77FxYWp6amr7766t2nnbLieJe7Q/vnbr31lo9+9KNPPvnkM57xjLe85S1XXHnFzPRMGR0ex5U+VvRw2bXQrAnLheROVkgAIxZumXQnxqSNlEE83q0wxkwuCUoei6K47nWvm56Z+fCHPnTPPffeeOP7W63Fa6+9bs/pQ+MR9z+1/wtf+MInbrll//4DF130wte//nVXX32NCB+f6HDNlI+tyG2M2dAxDRAH5smPf2Vab61EY4w5UrjG96qqpIiooC53027qJZdcLMCf+cxnvvSlL9326dt84S+//PLzzjtPVYXl0cceve222z71qU898cQT559//mtf95oXvviF4LQoitqh4dMRw8lSWIgAhDA0M8YiRTOe9SedbLQX82YivCmbtZmcMBnEYzCHxmwi9tc2mwZCWj2h/K/z7tTdey675BJUOLBv3+OPP/HZT30aFaaKxunPOHPvU0/edsstd37pzsceefSC889/0xt/+OKLL96+fUfmMxpjktwRvhEGIj8ppzYOx4jGGLOOiRuDuDxxadwZM+Zps8HNzwJEs6kMvyDJu1NP2XP5JZdwL9x+++133333LR//eO7cxRe/5Ktf/YevfuUfHnno4YsufP5111338itf1mw2M58B1VjDbL16x7E6RsSlGNGYCWY3/ZEsg2iOg5WfLla8Ty29YTanwRdt5nbt2fOGG96oCAcPH7r77u/8P3/wB2ef/az77r2v0WjsOfXUN77phquvvhoAXJaBGys6fPpmkODqcY+buO/PGLMZnBgBojnJSIy33XrbF770hb179zrvyPtutwsAsvp2qIPLcVWYqKQ2PtUcgXVeYyoCAFhuSVq+TEMIqthqtecPHy62TovI3Q98Fzz2SN1U430fuPl9H7g5He+8I3KEKMBaZ76dat0IcejB05sBFQCAlqen0JZts5deeunb3/52CxONMeuxANEcUyGELMti5Lu+/vUv3vEFVe10OnmepdH9T0cNFiCaI7H2i1BU+6Fhf+2PEML27Tu63W673e71eiI6O7sNAOb27v9eu9y0Ke0Ij4RlgKhcqzOkfsfJigBRUIEU0lcAEKRieiormru27widbtaotxuEMWZyWIBojqmUEMmy7MD+/a3W4ml7dj/3pRdv27I1trtlngOAZMXqW9UDx+Ho0LKJphaU9V5sKarrb02bfpj2eQcAYWHhbjccnlsAgK3P2bpz587+r0IMaZdRIhCNdQJEUhk8eOTrWVZlQIUUEPrRITDSV79518H5xdjqZI3CcofGmPX4wUkbxhxt3mcpibh929ZtW2fOOv3MX/qZd26f2hI6XbfUEYZKy91h6Ya9cefyuoGgBYimlnVfbMMBYjkZOYQIIIjoHDGLCHiXpcyiiAyu6uW8d0RIqqI6cnHegdezaM0AEdbuZe4HiIHoV3/rN+YWFtrtBbDxvmaYqqimL7I8mmLNnegGBycM/2rlFnZVdrFDBARCpBVb2NkHmONqnAwipc/CYxmvoCPXr7T6IyCiIzdYry2guBmke+3c3Fy33fGgU5HcfCsH7AeFCAIAqryiyPrWCx9tcXVTCw18HZIyeUudy710eSmvngoQOQNQYOAeAHhUcCBavvwICbgLnG64y9NF1v9YHpfrHXrlj3w9r93+gf5lSJfBbujlWW53X7OCDjjebQGoOEkLl+7sNW/v6IDUVd+LeWm9KwACqr8oATkkRy41tWZZl3aAc3UKIhA5pzrG04KK6Sn1IiIs6cI3Mo+YZhMLCzMPbo5cXeqUqVswcmRmZk61kxt9xmnzlcgxbcHCkclRv0vIHC+q4CgDSHc7IZBMuACPsPr+t/zf4Y62Yav61Nb/lTEbUgKgNcOmMoMo2H9R4cpLtfRTg+lg0v6R/esVIbj+46+zj9nQi3bwY9Lo1/M67e8v4ujKVKIIipBY7tCsoAMpRFBgFgDIBABXbbs88DLT4RemCLMIIRK7Mts+6oYvwgSOWZil7ud6FYjMAEDRYZ1gSFiZIyJ68uUaoaMqUlXyqAzMEaTe+F2OzDHGyCv3uqwgRkZCRELESudIAALMMUZ2bjkPWKWssKpKekp9CKG/5kjVAFEk9aF4XzsBGUIAAFdzwdiwxDknIiSjz9KRixxTO4uiCDGQUKrdHF+C4Ja+gXTbUwHAlfc/HbhZ4gbvp1Vva4sLzXhQ1u9yVSiXuem/ulb0q8lg5Keia13IZTiwHB0gQq3X83rtH955WREYLbtu1tCPQRCRA8cYACAGN7jS3OpVhFdkfJglBV4AkG7WI1NCMbJzEmOIMcQQNz54BVWNIZT5+TqD5ViEY0zvU+c884h6U+Ds1YlICLFuO2PkEGKMgUO9mWoAEGMon89q55hOJ4TIHN1AQq1KWRZR0RiCBK0X4aXMswyoVTzN6et/rVVqjEr7x6d85xj1mqNPyn8rX7gyfFurc4805ois+RJaa7DVmK+3dULMNR3R4w8+Tv/9RILSny5mzHpSPNQP71ZHhKJKiLIq1un3UIsqLpUdXAdgvbqkzF9qf/Rt6jvaOJxSlRDi0tjHGilEEU6ZuTLKjCM6GPvZVREOMYSaASJzjDFlumrNVIOUI0unVvEc0+mEGDjGwZF1VcqKsKqGEEMM3nvvnKNU99pdHsvSyFMRSZm8RqNR7exWqluQiLrdbqPRaDQaIlJxKKGqpnZmWeacI6KxG2yedjSUIJRVN0tZOwtv8Z85qtZ5gS3d13TgU/jK12f/07mqpiRi+fOh6+rgEIgKMVrdUTzrvUGWokMbmGs2gAOc8965lI5anUFMVLXsQx7oZpalDknvHJFLh/lVeccViIid886lLlFfLimVqtyw0QpZFgAgy7NaoyZSTzEiuswBQqbZqAKgAujL91Bzul44IVGd86LamK69egA5IkTvM6Sq4zIzzfKQReaiyAd/PpJy+WcqmrknIudcxS5mY46adH2hge9XsejQmNr67xqbomdqQA/OewAgj4CA/ZzzwOejcsCEpgGuS79nWpq879KLrl921cjdPk8OHXvnPXmLQzaLiVsHsT9Fyxb32VzKT5aDX405IaV0y8gOGWM2m4EhiON/nEBEUXWb/vaKBCOXnJpw9pnSHF/rLk1sjHlarX6v2ScxY8y6Ji6DaDYlWfXN0miV1K282T+LmgnydC0Rd6yWmrNxh+a42qwfQ4Q3a8s2DcsgGmPMyc2u88aY2iYug5jW9+4v/Wg2ic2ycL8xxpgjgAQqtTfwOPYsBhhp0/8NjTHGGGPMsTVxGUSzSdkSNsYYY8ymYRlEY4wxxhgzxAJEY4wxxhgzxAJEY4wxxhgzxAJEY4wxxhgzxAJEY4wxxhgzxGYxGzPZdMNPievMLl9vzvm6j6UEALJq3TGyTT6MMWZT8rjkeLfEGGOMMZsFpcAgRQcrYoT0X9vf4KTm07Yi6T8Vw8QjiSnHLtWvsfojrC5lcbCZdBvnC6sfv947af0bhiAoDj8myomw4YIxE0pSbKAAOPDWXv3eX/UTJETEtSPLtaSDCZH6perAfiBbpywSoCAi1WgnlUcul6rTSEwnWK2uQVQWrnOOCIhEKEPHVzxHKQMn3+12mbli/ISIqioiIQQRGSPe6nQ6dYsAQK/X63Q6WZalvfKIRt9TiIiZUzu9873QI6LxajfmpJQ6fGmsHAAhpptH/5uqNeryhZXKSNF6mY3ZdEIndNrlHXPwbZ5CnMF3vcrKK0Cn0/He+ZB571hGv8E5RiLX7XZb7fZMu1ernSraCz0AyGOOVCMmERbmiIg+Zt65yDyyIlX13jFLu90iV++zLceYTnBrJ1S/ZiaddgcJs5ClGHPk8el0YggxcsHLz3+VssKiKq12uyiKiRuDSETWpW4m1mBQmPJ5ArRBjCgoK4JI1LJgWRwHMgtrPc7SuENSACjLlhdWAXHWRWWMMZuSL4rCe1+rBzbl8ESkKIq69aXu7LoFEbFYUjGDCADe+9RO511BBRGN0WBjThoCpAjMnKPrx3ZeAR31VBTLCC+FgwgQQ3A+TS5BAGACAMgYRNi5DFT7vQrp8RUBneOlD+KKZXS4QRCoqmP0KBljjrasyFLyqShyoI3fxsP/EwAA753PPBD4Ch8CJWbkEAl7oVc08noNVXCOACDLs1oXE2VIGUSXOUBw6kZWpALoIRMQ4brtlJghUmTOGtkYYzcJ0fus7GUeCcGpS3nEosgHfz6SMqSOYl94wgEVG3qEYxDHKGhjEI0Zh9LQP4AoLKALCy1V/NBffeSvP/4JBQgEf/25T/3u+/5ov3Q+/sXP3vjhv2hJcNPNrnBQLgcOFv7evY++69d/7dv33UNAgvCBv/jzD/zFnysCq7Kq376dmYFQEVyzcM3iYKfdI8pnZ7ugxbatkLmDc/MABCDdbrvXaXc6HVYRoKV/1tlszKaBgIRIA0MJB//BWj/EVAq8d0NjEEf9WzkGsea/5biiVimCcmRfxXauHoNYv5FUv53pmRkag1ihqUtjEGs/n0tPC445SUWXjPGSG7tUv0ZVHaOdqdR4tRtzUiAAUI0+y5o7Zg4fPHDPvffe8JY3K+FCu+WLfHrb1pnZreeee+6t3/z2H//xH//s//bTzbzoctdnGSjMt1v3fO/+Lbu2n/nMZ2CjARrTgyIic/RZ1t63V1VbnbYSfve+7//ir/ybxRint25pLS6eeeaZv/yLv0Ssv/87v3v40KHFxXlEzJz7hXf9wlWveJmu0zdtjDmedGlwoQ5EhCvyhWt9pBNeCg/6BUe9wVUVFUVVVGtn13QgrqhTViUVFFAHWKmsCiClGqVuO1M0sjzvpw5RpX7tVWDZyDGez/S0pKd04mYQDqYVdcDxbpcxR1fqUHbeO0Bg/spX/n737t1nnH56UFCBGd/clW1psDv31Gf+zDt+6tSZHV/+7Bdjq12Qy/KcCQ4envvm179x2cUvmZmZSZc3wfLf1MwMq37vwQc//NG/zrfOsMfvP/n4S19x5Yc+8dEP/NWH/uv7/79dzzwjm5kJCs869+zf/b3fu+1zd9x0081XXXWVqAoQKCn2xyZO3BXJGGM2p4mbpGLMJMuzvNsN84f2ffYLn3/Lj/xzAggxTG/d0ouhF8Pc3NzM1FTT529/xzuQSEJUUmg0er3OwYXDj3zv+z/5tnccPnx4S3PaFVkIMcs8Ih6am+t1u+/9k/de+fKXxW4vhDgzNfX1f/z629/2tigiCKeddlqv18saxfcefPBnf/adRVEQUAi9Zz7zrBRoUpo9Jlp3cp8xxpijxAJEYyYCKQiCRBGEr99zL2TZKdt2/c///j/v/Nsv9zxyMzvcXnzfX34wJ5cLtuYON4vmVVdc+WNve9sOhEOtxU/cetvzn/eC2eaWaZ+Hbk+CcJQso8WFtnfZb7zn3c959gWvufpV2JOdMzvyHr7kuS/4Vz/3c40tM/sO7P/TD3wAI4PCBc977u+857ezvEEK/+OP/vvWbdvzPO/1ylUtEBEsQDTGmM3BAkRjJghHfmrfkzf/rz9v5sXWmZlf/ZVfixrd7PQf/fmfdjicdsruJx9+9Efe9Jamzzut9s6ZrQDQXpx/4KHvf+Fv/uYNr3ptf32cXgx5nnPkxdbin/zJ+3bv3vMTP/HjmfMaBci/9OKLX/zSi1u9oCxFUfz0T/3Lv/qrv9w+u/1dP//z937nnt9892/96q/8yi/+4i8WRYM7Le9dr9NTVU9ENGoioTHGmGPCAkRjJgUpdHu9m2/+s0svu+yB797vACEEBpjff6h9aOGZz3xmk4rHF3vYiY3pRmiHgwt7t0xNdUP48Ic/UuRNUkAAARCEmS1b0dFDDz30m//pP51xxhk/9VM/2ZieFpGutL93393v/s3/ONdaiM4pQo9ZVSHEjPzNN96Y+wwR3/3ud2/bOoMKN7zxDW++4QYAaDabHOLxfoaMMcaULEA0ZoI8/thjZz/zrB942RVPPv6ERF6cO9w8ZRf04qEn9l516RUP3H8/BSnIaS9mzk/v2q6t9tf+7stnn/2s57/g+Ty/SEsz8B558jEssru+8Y03Xn/92976z/K8gCDKQQFOPfOM995806HF+ebW2aB84003feKjH/vlX/rl0O3+t9//f3/jN3/zooteMD8/77xvON89PN9abE1NN3rtDjnXX+ig1o4IxhhjnnYWIBozQc4444w3n3P2Qwf2hRAcUSMvVKXb7mAvNtBRL26ZmprZuhVYejEszM+h6PceevCGN7zhH++6a+9iWwmzRsPPNP/H/7r5Ex//xBuvve5Nb3mLdnrQVYjsGjkCvPf977vl05/0zUI9dTj+h1//9de//rrd20/RbrjqFVfdeNNNv/TvfzWfyhkBe/xjb3jzj//zt2kvAADp8poZg5t3WbBojDHHngWIxkwoJXTNxt79B+65757tW7aeuuuUR6dnnnj08V6n0+l0Go0GIpLCG9/4xnzLdI5ORKaaU/fdd+9v/fZ7Htz7eGOqmWe5QyyaTV1oo8uBxXv3zp/+6Ze97Mr/+J7/g0W1G379V//t1pkt/+YXfnl269b/9gf/df+hA1tnZ1q9bqfb/YWf+/lXvvilEqOIkHOgoksxIlZd78sYY8xRYQGiMRMn9RQ3Gk3udn1G//S1fzjvvHNnZ6ZBOHOYZ3lG7pFHH/3DP/zDH37TDRdddFGn12tmuUe6/XOf+93f/S//6p3vvOqqqz7ykY/k3udI7V6nuXV6ce7wTTfduGXH9uuufx1049WXXvFTP/szUfnw4cP/5T//3zuaU7u2bH3+uef+xL98j+auOd38nf/rP2chzM5uW5ybbziPomrrZRtjzKZhH9ONmSD9/YRIYW7ukCuKxx559InHHj//3PNYZHFhYcuWLd1O5/Dhw3mWNRqN3bv3OOdQtNtqb9my5dJLL/ngBz/4+muv4043dLoxxLnWgt8yPQ+hN+0XnJz2zDNFNc/z+fn5VrsVIzvnAWCxtdhqtxExhrC4MN9ut/I8R0TuhS2z24Ql2AwVY4zZTCyDaMyESL23gojtxfmZ6QaAHD64/33ve9/rrn/9GWecAQCzs7OtdjvLqNuFxx5/dHZ2yym7dzAHRM1yv3///unpmcML89BsNLduWeTeo0/tp20zhz0v9LoPPPjA39/37UuvfsWW006Ze/h7t3/lztt/4itFs7HYWvTofpg02zL15W/84+3v+vJc6zA18sB89vnniUhcbHkidtatbIwxm4gFiMZMkBDDzFTTAc4dmkOkG9///jPPPPM5zz4fER3R+Rdc8N73vveDH/xzImKO73nPe7gX85k8tuOTTz7RaDYOz8212i1C7IXeNVf94K/9+3/3lju/tMi9rbOz7Xb75Vde+exzzu202iBy6Usv+dVf/3ftXjfz2W+9+z9KiL1u97yzz/mxn/zxnaee0o699990Y+4zVCAFQPKe1t7Y1RhjzPEwcQFif/Pl/o7MxkyOoig6nc5iq4UADz74fVX9+Z97Z7vbbW6ZBtXdO3e8/0/eG2JIG5w0t27tLC5I4Iz8nl2nPPzww82isXX79vbhw9OYPXvPmX/5vptdnpF36H3odLM81xihJ5ed/4IXPuv8rcWWvQcX8hx/59f+w3TRjN3eb7/7PWFhntBps/nLP/kzykJBBcsxkcYYYzaPMQPEEIKq9nq9PM/rFgSARqNRt0ZmDiGMUdAY00fkEOHiF7343LPPmXbZc86/YH5+Hh215uaazSYLxxCbU00AaLfa3W53244drdZiURQvfeklV111lfPZwsFDnihzvtNpTW3fARyhy9CJGQB3Fh0iOJ/lRZYX4cBczjAFnpnjQsuRg8ML2cxM+9C+otloz83t2r4zQPd4PyUThdb53hgAAFURkRhC+m+M6Zui7uOEEBDJZ/UCjNDrcRxnLHKKK7I8q18wIqLL6m3g1O32InPdugCAOY53gukv4n29E+z1Arlx3ubdbjdGBgD/1FNPee9TLm1kRk1ERISIpqam0qMcOnSoYpUxRhGZmZkBgEceeYSIvK/66ul2u865GOO+fftijCOTf+m3IhJCEJE8z5m5KIq5ubmKNRpzMsCBTlslAHCACtDrtKYauWfwjTzDRsrhiYh33juvygCwdXYGAEQ4vZuKomCJ3IuN3KOCgjZnmhraSxUBAFBGCgSgEHqCQIgzU9MAQM6DA1BQFVmYz30hQbdNzcZuJEBAWHozr3OZtvzikUovA1r6SkvfWxeKGZJumt1ud+/evc3FZuYzAHjqyb39FexTELnxgzjvm42GKB9+4jBzRMSNt9AUYVX1Pssyr6qPPfJYmtlWhaogUsocPfnEU+m/FcuSo6lmU1WffHwuXehGlk3nPjU9LSxPPbFXK+8dzxxFdcvMFhF57OEaJ5jimaIoVPWpp55KDdignWUsR+VFuzPfUdVay4el6kT4qcf3+tnZ2eoBoqqKCAAQUTq4egZRRJg5BYXee+ccUdU/ZLvdjjFmWTY9PZ0aMF6AODs7W7FGY05K5aVi+N1T7o8ia1zsJLBzvn8dJIX+WjRSM7oYPN4Ck2NKLVloKmGRNP6q0WhsmdmSfthoNAYXq1/zQjGof3CKLxFx47XuhUVVnPcpT5ZlWVanZ1JF0wWqKIpai+rTUhTRz8xVKS4siAhZ2RFasUaOUUS8z2IMzWbTVc6O9U9QVWrVmBRFUWvTgXSwqgLkAOCnmlPO18ivqqqwsDAiZlntjC5HHqOL2Tu/b/8+51zdHu3MZyyc53lKfDabTRHpj0Gs2XZjThKDY/4QRBGGliDUoW+P6gBBG31ozOahokSu0Whu2bIl3W3LtBrW+VQnIKyq4oq8asGlz6i93uL2XdtrNho6rS4ANKaKeh89FSQqAGQ51hhwIRBDVNUsz+oM08i5x5EZEadmpuq1UyD0gigVRV6pRgVQUAEc7CeoWKOCcpqqIYjkWRgFK2YQU4AYOTIzIhJSreAyTaIEgLqlIscQQgihKIrqeUdVZeHULc7MRJSyj8YYY4xZAQm9d1nm8zwTYRYhROd8GSame++oD3UcOYSYklXVh/cpA3Pshd4YzWaOAABaL0CUqCEGQgTwhFixLEeOkWMMWaNegkxVQ6/X6/VAa/ahELQ7He+c+IyqJiw5JcXKcef9oGlkaQXmqKrMkmV18pxlU4myLBsv0kqpu/RNrQRe6iYmIiJKj1CreD+m7HZtRLyZVEvjEQmg7HMo30O0ageT/rubhkYxGmNOapn36Xa51B/aFQKPiL7MS0GFALE/0M15V15kRhWRqOSQyHnnao85VkhjHMucWeXiiJh6mcljpXYqqIDLXRo3yT2uNbuFyJXDHOs0MoXOmc/KqRdSIchDcLlz6mIvluEWYNUaEZzzzJE5NprFmLOY02uoVl94WftYHbuqmud59Uktxping6CS2lgMYyYDOYdIZQKpARgQALBe/j0mYwAAIABJREFUhx8AgHM0xr2eHPn649YAwHsHUC86TMZb7c55l8k47SRy400rTtN36pbq75tVF5FTVaDJWwfRGDO82MlGOUIBsB2SjTFmAtnsNmOMMcYYM8QCRGOMMcYYM8QCRGOMMcYYM8QCRGOMMcYYM8QCRGOMOamhwIZTkYwxZjWbxWyMeRpZILLJoNhm1saYMVgG0RhjjDHGDJm4AJGIxlsb0xhjjDmJqaiqyNKeZ2bCeVxSvUw6vu52eYOrltctWG7cUrPs4KmNV68xxhgzmdJOdOXebpVvnst3236RUWXTwZT2vqt/l8Z+O+uURQIURKQa7aTlw4hcverSRnuDT2nldgJDuR129XNEQCRVxtVP6YaPgAQgZeB0RGMQj1m8RUTMnL4fIzA1xoxn431W1qA1OyVsr+djTZb+pa1n7VpqlqmKavoy/hsTHUB8Wpu1+TBLVhyryo6so7fcKbHaptgreBERlrSr8sjAKyUOhSUZIwstIinIq1VKVZk51SgsVXYzRERZAgCpVPreGGMmnl0MzYYUmAUAMgHA5diiSugYI3sPxA59pReaCBM4ZmGW2p9JBVgEABwvZfiqEVYRQVQSDzS6nSqgqoSoDMwRtKgVb4mwCDMLaO1ALUZGQmIt84gjEYCACMfIzi3nAcuyG9YuXEZ5AOBDCP2cXNUAUSSEICLe105AhhAAwLl6u3+HJc45ESEZ/Qw5cpFjamdRFCEGEgohDPY7D8aplpU0xhhjEg4cYwCAGFy69aefV8nvhBhSDtKpF+GRx8fIzkmMIcYQQ730o6rGEFKHeK37OItwjCngcs4zj6g3pVa9OhEJIdZtZ4wcQowxcOC6ObIYQzq1iueYTieEyBzdQEKtSlkWUdEYggStF+GpagoQB5NztZT5vJoFZVjdUin7OEa95uhbeu32uyZX9DmO7LK0PkpjBg2+ZZbfHRM3H9EcoRQP9SPCfkxT/lAGf7XyIhxDSAeIqvDoSzRzFKGlRFDdAFFSEayaXiulBFvqPlXVGEcEsv3+dxEOsXY7mWOM5QnWDRBDCOnUKp5jOp0QA8eYpnAkVcqKsKqGEEMM3nvvnKNUN43OIKau25TJazQa1c5upboFiajb7TYajUajISKDJ7wBVU3tzLLMOUdEYzfYHB209JUGOjDWPGZ9G7zRLHY89uw5P76Uht4yOvB1+bcWLJq1IVI5kwLJOe+dS+mowQwiqQAA+oGZo6teUETOe+czP3hp34BEJYfO+8jcnK55m1bIsgAAWZ7VGlKbeooR0WUOEDLNRlakAv1O87rtlKjOeVFtTNfrmwYAckSI3mflPJWREDLN8pBF5qLIB38+knIZ9xfN3BORc84m+ZrjhAAIlEB1KbZIF5ul71dkENeIPwaPN2aC6ergr5+hTzNS+m8oCxPNCOjBeQ8A5BEQUJfCA603QsycuGwnFXN8CMJAWEcAPNzLPHj36n8va/c4Dx1vkaKZbBUmkqulAsxaUu6w7mA+c7KyANEcUyKKmBbXIAVSpB5RB0GUaI2s+zrpkI2sOQDLmAmwnB1cqf/m6nji5R5BCwKMMeuyANEcU4jqiZTFZRkiPvjkY3/wgZtiryMsuBwg0sAarTJ68MO6KRPrRDMTRWDU5yIBenTfUyySN21AtjFmIxYgmmPKpwlGhFu3btuyZfbAocOf+uIXOp3WwOJHZVSHywGiECLAOgNfVkaHa/ZNGzMJBEBGJM6VCLFRTE01Z3q9Xp7lGx1sjJlgFiCaY41BHeKFL3j+/OLhgwcPdrvtdqddFIPL0qcMIvXvdksZxHUCPssgGgMwOjoEAAAVPOWUU174whfmeV53NqUxZnJYgGiOHY4sWGYKr7/++te97loi119Da8XSUDjYxbw8WKpWzGcBopk0IwLE/pp2RB5gaIcMY4wZZAGiOXacdzqwVjmiUx3sUx46eClruGKjeBtWb8wGRnwoKj922dvIGDOKBYjmmKq4yPlgiaPUEmOMpQ+NMeuZuABRl6At9WSMMcZMJCSA0dtETzRLzxhjjDHGmCETl0E0x9fgJxLL4BpjjDkuhG2AxQiWQTTGGGOMMUMmLkAUkTQG8Xg3xBhjjDHHh3VhjeRxyfFuiTHGGGOOGxVVLZMoA/udAqy3wphlWk5qfjCdVjFMPJKYcuxS/RqrP8LqUhYHG2OMMWtSFdX0RQBAUmygwwuqDwaF69xRkRARN4osVxyPCAiESIhjrHWL/UC2TlkkQEFEqtFOKo9cLlWnkZhOsP56vlQWrnOOCIhEKEPHVzxHKQMn3+12mbli/ISIqioiIQQRGSPe6nQ6dYsAQK/X63Q6WZalPuIqa+kRETOndnrne6FHROPVbowxxpz0dEDohE67vGMSoiwlklRGpw07nY73zofMe8cyevtHjpHIdbvdVrs90+7Va7NoL/QAII85Uo2YRFiYIyL6mHnnIo9Y8yYFz947Zmm3W+TqjdDjGNMJbu0EqTnIrdPuIGEWshRjjjw+nU4MIUYueGBzigplhUVVWu12URQTNwbRGGOMMavhgOPdFnP8+aIovPe1emBV1TknIkVRjFdr3YJE1O12G41GURRpjesqpbIsS+103jVcAxEbjcZ4DTbGGGMmR9bIGqoAUDTyMbqYvXMuc4CV1tLTmKMD5yjGUDTzeg1V8D0HAD739bpuBTgyIlGGAODAjawIFIAgU1DVuu3UmBM5EckaWa2C/S5mn/nqXcwOXOYz5pgVA9VVKSugAqrqCz/OJJV+Crp6kcGy45Xq11g9QFxdyiYvG2OMMWvCNHiQ0ni38SepqKiSrhy8uD5VRUVRFdXaE190Ka6oWTCFQQAC6iq1U0EFkFKNUrs6LYd3jtFUUSVYqr0KLBs5xvOZnpb0lI4zScUYY4wxJ7fRk1TMSc3GIBpjjDEmzT4msjGIBsACRGOMMcYYs5IFiMYYY4wxZogFiMYYY4wxVSHSJIzFtADRGGOMMZOl6ozg406XppMfcyfKM2SMORnpwD9jjDkRIKKO3iDmhFdlDUtjjHm66cDXPoTBq659fjXGHCXCqoPr+IxawWcSIsIV7ApsjDke+qvvDv4zxphND2ki9t2wDKIx5vgQXGPXLvvMaow5Bk6UtR5V4HjtA2dXY2PMZmHXI2PM5keIOgFdzpZBNMYcByEEDjHPcwAQCd5nQGUOsX/dtXjRGGOOFwsQjTHHQZZlWZZBV0GUgCD0IHOQ2xXJGGM2BbscG2OOgcHumKUJKUEgELCCd1DkgAIiQGXq0NKHxhxPJ/8cjBPG8ZoQ40WEmQkpTczZ+GjcfHt4i6wxDiA1UlgSVVVRFj4eDTTGrIDQ6/3D333ljls/9eDX7vbMF77geVdc8/LnvvJq8DS46IQx5rgQYV26YaZv+jFKGnuHKWZAPJFWnF4lRk5RDZFT1ZHDClXVgRfhGJmc4vpnPvTMVL6cSVwjEFQVUVVRIiZwqRlP4+Ovrk5VmQUUfIwRAAQFAFBG16OqzBxCEJExgsVOp1O3CAD0er1Op5NlWYoIiZb/KoPf95UBokiMUUQ6nY5zLjU4z/Nut0tE3W63KIoxGmOMqS+9TwUAoNX+0J9+4K5vf/OGN7/1Rf/210Dhvq985RMf/+j3n3j4tf/iXwAikQWIx4o90QZAVTsLXRHptDvM8cCBgymxkjbwYI6DGSxRBQCV2I8aV8dVnU7HOZ9l3nkvPHoyB3NMN+XW4mJ7caZm46XXCwCQh2yDiG01EU6RFhKW4eGGiTrhMuZhEeaoShtscLL0LGn/WWKO6QQ7i1vWywh671b/kFnSg6hq/2+x+vFXPE6MHGLgGDnG/s9TELWxNGNaVUFrdjGnZ4eIUli2ZnC2sfEK0oAxijOz915ViUhEDh48eMcdd4QQWq3Wirnumy0/aswJD5dvD17ECzz67fseeOCB3/r93wOiroaiyJ999cv/9ZWX/Z/v+tcPP/LY2Ze/dJ5jgwrSobLmaMDaPVcnbLLIrMM71263EXHfvn0xhizPm1NN57ws9bmtGc2k/kZcZ3Eq57z35RepdlclR47Zeb9mkLQBUfIiAOC8r7UlHTPGGKofXys8KFvihoo4V55grS5jJBSWlNjrt2HNxx+oyPcDd+frhXkpUFYVFfBZlnnnyz/2qPNPoWX6QCAiVaLRFZi5Yhi7osXZEmEhN+Ii1c8g9jOOqcYsy1R13759H/zgB0MIZZJ24KzHCHmNMRsSQRAUUsgZpoLEA4d/9n9/F2QZaCzyKVAGDZDjj739R979nvd848nHYHqqfXgRdcXIRfP0IwsQJ1vqYE35wqIoDh48lOe5d445pkANS4RYpueqrO4iLN477zP04GR0wEdERE5F8yzP8prhwVJ78iyv1dntWJGQEL3P0AHoiFNLUR15dAwA4Ih8ViP2IiJVyXu5z32t8Z3C2pMeokvPUqU+fQJyGSJS5DzL+z+u8vxwZFQlcujAExE5qh4aI6LzTlTGG4/onBsjUeedd84551LtFUv1M45pKQ1Ccs6dd955eZ4/9thj/dOhgeds5ChMY0xNIghM4gQaEdpReN/hc19wEQBA5kEEyIFzIN3TXvTimUbzsX372oeIW4HAAsSjzgLECccsSDg9NTU/v4CIWeZ37tyxc+fO6emZfm/mcnRIAABDd+91bpjeO+c8pvCpwkvGeQcEnp33ru5LDAm8OADAmnNuCdEJISK6cuLcxoEJKkLKmjpwTET1muq8c+y9d3V3jSJA54iXeuqrniaVecS6T8ugcYrKkvHKjlGKl+abrB6DWEWZUFS54YYb7r///jKJyiJaTmEZzKKnLGkaK9loNIioejY4xsjMiJhlWSo4sqxzzpFrtVsHDx7csWNHP4u5Oru5+qTGbiczxxirt5OIUnVpTGc/8q4IEUMIBw8enJ2d9TXT3cdM/xxDCCmTnz7MVMTMc3NzO3bs8N6nNPmxaaf3vvrfYvA1UxRFyhxULNvr9WKMzWbTe59ePBt/zOtn8UPoMijlPiffYJkK8Nfv/wA4B4uLsG3L0md2ARGIMc/z66+/bn/oTrtGp9UCkEaj4VyNHpn+e9B7X/HFlp6Kdrt94MCB7du3V6wIALz3jlwv9FL2goXjwHCfKpxz6eNrr9fb+GVzhK/PIi9CDAcOHNi2bdvQoJpRz2samkXksswjEkeJ8Wi9vNOYsCzPF+bnG40Gkau1FrHzfu7Q3M6dO7IsW1xsHaVGpugny3MACL1e3Wdj6T3YBoBGo0mO0jCyKmIMMXJzqpn5LMRAo96DRK58zcSgot67lH9a0R4k5BhVlci12609e/Y8+/zzkQD6k1RUEB305zUP1rlO20WVVEBdxUhIBRChyh1zrcKwckvlygVTcnS5VMXiOM6EXRVIfbe1SpUVljlcqpUi7Q8lHHigKnURgCAhIPjBP8mmHYE32PVeq1Qad9iP/y688MLnPve5/d/2o8OnK0CsG3ilewwRpZvTzp07V4SG1QPENAunVjuJyHufCm7czpS7Hbw51Q0QY4wHDhw4IQLE8YJgETl06NCOHTuyLKsbJdRtZxpKG2NUVedc9XamgmMHiMzcaDSyLEvDM6oGiLErqi7PMudyliLA/Xd969Hv3H3GCy+EdMGKPXAKvvG9v//CnjPPeOtb33qg2yko6yy2AeVI3oMVX2zpKW21WgcPHty1a1fFivrvi16vl7op0gS+imX7V6csyxCRmTcue4TvQe/9mh/SRj6EsETmfjtVUI7achAsoqJ5ns/Pzzf+f/bePcq6pCrw3HtHnHNu3nx+WS+B4lnNuwApWrR4U4Vii61C81AUn6OtsxxnevWsmeVMt6tbXf1YM8tRZ+xuXyONaI/oAhWwpFoFUQQFaomIIHYVUkBBFVVffY/MvPeeE3vv+SPOPffcd8TNL7Myv4zfyu9bmfeeOLEjTjz22RGx91rHxDx3z4WLF3fPncuyzD+UI4LIWGtE1VUViyxV1NpMzS8RSnBZVpWr1jodazPnlvdBIoOEKupcJarWzFIQCQnROfavAf56a42r6kHMK4711Ved4xtVBWgpsosL2OjHWvdfPK5DXsM1/uPIDhEB6vM3q8/WvqGfWJ2yoX6QiFEbH/1rfafTicrLT9uxeQFAZjPn3NbWVohqOC1n7HFsrwYRUvh6fZOwPvYV+dx9zWxtbZ1YBbEpETsWFUJautW1jbdxb21tHVuPEBEVjX2CTZvx/4fTKIixHb9yA1XNbIZoAAQUXv4Nr/z5N//yj//MT0O9PpRDVcHexd9+1++99B+90mTZNUWHAIosB5Bja9u+jJubm7Gp/BafFbJjx1Hbew5JURRlWXa73dhHz1UFACZ+x/kqKACCtSbrRGcnlTrH3Y0uIKyQfAWKIldZZQnPzywmj2szaw4Gg0Ge55ShugJpmUFo+K26QlXJztVnMsga85s6QAtSKfPoRTfOkc1Vp0eeBOpV/hVGi0jDqjcg4iEVxOPkkJroRPLGQc9i+9wKGQ1380Zv06nfDmJUwybH2LyanZcrbLhcQcImYZ3piX+jQEISL2nMgyD0NsijFG08R8TV9oMdpm2v0AAIUUZJEBCe/fKXfPqzn/2X/9uPfusb3/jMm28Gxc989CN3vPtdj3vyk2552UsAYL/f2+ysCcsKp5i19mYmBkJnX28wds6tYHZSVb/E3DGdqGoRkcpV4CDP8yhb4GovaVVVMfNgMCjLMkpBVJaqcqqa+6ORR7pLW8DrW8ySCQDFqRplWZZl6UpnM3sMWyXVgbfM5ZDH6ojech/eRD1o4fJDlzc3NnPIV1lilnlLzMCOVdXXmy8LWQSwXkc8+YN24og4VgWxvZ67cps7vOXy6I4qrzA5efzGqeYm4X1ytQ0NIsLCqHGrVJ6yLP3atP8zUE5vYGPhqJoREb+a6Ze3whP6ZThDZkLPC7mJ95pZ2DjDVTUk0HjcPDi/F7Zt8Vr8TH0RmqVGv5khXE5vYPNrjiG10QhjrX344YeNMVHWcVVlBlVQFGw8MhT5t7zx9Tf91TPveMe7/p8f/Ukr8sxnPeNFt7342a96JVgCom5nzYmQAQCK7ezNLp/whI3zrBW6w4SitrQ/TrTGpSvFE2OmH/0Gg0Hsg8iyzI8wa521sS+WbYBTVUOEiMZYQFyusfnySa1zEBma44ljdmoLfjMiOzZZwFjRkscYMmZ4dCBkXBxeI6yqgkiU4cRXc6QEb2hBROMfaNQwjDAYDNbXN2KPYFVlRYidbgEKhQ3Q8r2cgkZIcc6zQAAE7yYa2gVBIIujXQ/znuGsgqsAIda730KWbn3zVvSuXKINkO09iFHp4g9EqABSs8QsoBHTmbZdLcaIqlKnrXNfyrDOVQURQ1NNZXeaLIjJAc2ZpTGZPNKCJK4ICiJ2c+O5L/ya577wa+AAoBLIADoEVE9H/pBfCnyUSJwETm+glMQhufr3IK7Gapa5aetFoEVBhyzNYqLC29nNdmc66wEtkHP29a0HHS5qWwbxWUYm9Of7rtY2dqZobedGIBBXsVOjQCaHLoEqcAW4zM9EIpF4RMAIo9cjFTg4MZPDHKY5NRbEpCUkElcFCgBojKHW6qoKWAOgAKttw04krn6aFdh60fDYOkrqkWeV06Egni7a25IC9dr2CYDYhCucHUFCFAyXc3rjVGwBqTmGE7y3sr0XM70enH6aCc0/UFBsbcGqVUVsLk0OshOJNjM2zEX6t0skYkmbCxInmqQangXSMJRILEW9CdGfIUivUImjJ1kQrzBJobmyEJIkc9LVCI1FZRjrNeJ/cIVAcIlEIpG4MlB98Dry6MDKu1BXjtFXluXSgB8nBMLoAABRMRgmEp6KOlkZUTkLxbxaQURDZq6HSG39jGPDAhFdQQ4TPnS1hKsfhlsplQ8RtELCxGmHV33uzNKEAI5OGJ8pO+eqaoXsnGPnWOWYltqbMDOxMDs+yjhbV5w4b3Z1hDoV74YtNshB7Ma1hk6nc/78eR9iNSo7f7Z3NfdmjV4Spbo1EvpAF7JsJcA7M/Nx/6pW35hX0sYLdzsGg58wZkZ4m+e127ut9hNGW8551/uH3pxeb0QNeSJZljWnmKvI/k9IjWzhZ5ViI9k0z4uFm5hmsZ4Xq6ryjyAk96aBeb/c/g6EIwfd846T+0Av/lkQkYoKSODmTt/GfNqyLGN9KPpAdoRUVuXa2lrA5eAbKsEsBRFb/08k8f8rrDBWkCFgEBHvLDDE3WPjOX+F4/nsuI4Rz2KsiQq55n9pP/fp5NNjZlmWUdt5m1zqAH0T8YEW38Q3M0Mq6qoKCRHsoogOCuLUh1QeNfKQExU69L7mRFW9K29xilgHAQ6hHJKpDfKhOIQMgvfP6keaZaKK8wO2NFMMcKicysDsrM0Gg4G1JtynNyIYQ8yO2flHGRiVSgWEZe9g/5rrrpl1X2iCZ0wEWfaP0j8IslFO4NlPK65yNrNh8X9RWEXErWQoaQd9CWLY3urpbFB5T59LHiIBEriBc44PDvZ3r92NldM5XqGAqlpVToRF1RAtr1KB2hslmVgvRcp1yG9rs/7+wLYniaEzxrlDpFdKrLVe66qqKjxgvM+lfX1UHNgsy5p5d2nCZvT0oka9N08oB7Huc70CVI/FlgL9QvvxNDYEVttJjQ+WGpHYgagAgzHGWLNUzljX3xNyNsS6WQYAVFRRoCP0cF63T4KJszvh5J4sjwq5VudFEFjDiGisIaXmzyghfSNpemJIfbaz8EUkohwiGuq0kG0lbIH/hZUjvjT9KEpds9b6+NRR2RlrfHaxofa8nCu8vmY2Y+HYkJXGmDzPZxRwcXERCQ0o1W3Tp12QBIEQSW3z5/Ishlci+cZgQEEZ0IQmbCiGhMY1Wc3ahECEoMZ4J8kYGcfMgjXW5rZ2Ih2eFoGI8jwfpQ3OMcvs1taW8vyogAQ4JQyZuiuRmd9NZ31us/qtjMgEltF7Hbc2y7N8hedibQYAtXoX097UtVSoMFFtZgFga2urdroQDBnMMpvZLFTIJqHFTKyqsTYL6he+m+LYn4GgAQuZMda7jrdVVVljfdS1em5c6PjeR2LwxjzCCOVJVcuybAxIUQGmRKQoisb+Ya1dnJYdV64SET8LBgaNaKf11/ugGmYqPNHctMLe3IgtFkfeK6vSGOMtT23r2lzL3zDUFTP7uM8A4I0lM+WcGU/Pp/XzNDN7lyMLrp+wMrYJiSvo2FVVVb/c2yAFsb2y3OgTIbHs5lmAYiPTxCoKzMzMjh0Shpicp+Pl+JpcanI+pJuxpj4bs1l4Xs4551yWZY4dy5IyNo42F99znqG0uabf70ep7LGV4zeuZFkmInme7+3thb/D1O+BRL4PhjSbCav/UgVxojheWv/SG6VZOuf8y/lgMGgnxGWRVKZYnul0214hdLs3qwfm5fHrjMzOkmUX2genie0XsaVbLa2PoOMce/slIrUPquD8cdjvIRNV5yrkGSZqRGJ23jrVzk5Ubd1mynlh/eY53/V2lrIqoYKlIQF9XoZIVTudzsHlg7hokKp+2vKGwPCEIyNLjFGvKXJVxmXnHPua4ZLjNvWpOjfUK2S2w+NpCaWZN2N6YjstoVivAxHRYDBg5sX7/PySjVdofNzSqPbdGJD29vaiBn0f3s2v9vZ6vaXLfyLinCOibrfLzFFGRD/y+mDq/X4/9hXfv9n7JM1y3jx8hVhr/Q7LBx54oJmc5hWwvYSdZZkf9JnZV9GC66c/b/StRllccP281beQh1gURVVVgyFLr2/j69PnUpZlYN+IlXNiMlug3CzI98KFC95EFxLSd9qJz0S+UbUdKOpiY95M2h3n4ODAt7qlD6IpkTeSTeTeaKgTSwoNvs/6Rz8YDFZwg+qHi8WV2c6rKAoi6vV64St3zeziV9v7/X6I0jbR0owx9TaPOf2rHWrPv3j4N97Y3YRVVW1sbPR6vUkhFyqINFXtoth4sJ9RutbrpU8rMZ0IAHxYP//2MopLNp8JSS5dvmStsVkWMs6ElGIamjVWhBdzVpUGpVXRQTno9/pFUXgFsXJtg8JsmUWVEI2xIswi00X2uxucY1VpR2oWYURaX+8CwP7+wcS3I6lmCW+t8Sa9wWDA7BBxZtp2XgBgrCXEwWBQx3UMw/dBr1D6cSnUQ1zrKXvdVBYun7YpioLZzazPBXKqSpZlvd7Bgw+qtSZ8c2dTyVlm/Y7SxfkOB736/u2Xh5DKadeMJSK/6WpjY2PphOHvXlWViKyvr0ftYSIkFj44OACAzc1NQybEWOI5ODjo9Xp+ZNzZ2VlaTm+MYeF+v5/nudeAAyeMJtopAGxvb8+LUDITr6j5cd9rmUvTOuea4X53d7SnYamCiIhlWfo5w1rb7XbDVYpGTq+Prq2tLVYQvTbfWHB9ARfL2cbf3G8S8Jp3ICLSrs+2nIvzmlmEkBwzm124eMGvNobL6YfCsizX1tayLAvZn9fI6RWUdrzpkD7YPIuoPugfYr/f9/t6m04RIqcXtdvtdrvd9hvFgrwQ0b92+res9laW4QoU+bWIiWHdX+k/8X0wsIBty7qvmcBthUR0+fLlsiwf9ahHhefl7+/Hiq2trZCxov2C559gt9tdIGe7YzZ90DnnU4WL6ocL39nH2vayGU5E2DlEtFlGiEstiL6ALMLODWMxh9kCpd3SXGDCdqqyKsuq7HQ6WZaF9N/VFMRGG2MW5yoAMMYGltGnFdV+r+/1DCQMVDJUNR/kiLjWXVNRJOzIaCydKTMhEpHfj4tojbFmSk7frhyzira/9Y251+8DwO7uuXlte6Z2Kyxeed3e2fZWyYB5kMlQ76DH0vuKG24IqI8xGXx9bm1tWWti5mvx+mvgWOE1SGtNWZbGUOy2Lue41ztApGuu2Y2yPng5VdXazCv0i6+fmK/bXWlpWp+dqh4c7O/s7FhvhRotFC5M3rTCZnwP34Pok9T7dciQIdTQcd8/Cd/t6/BrC/twMwrXWyhi5GzPmrFaArv6iEMDR79eAAAgAElEQVTgZO/naS9wr9drZ7dUQfSl85O931oUoSDOl3OJ5k20goLorTL9fn9tbS1q7UBYYutzZHERbTeScMfjRVGsoCA2W6ACh4yZCmJ4Xl7lilUQ25aqwP12bQvWaA9i8ENszI22NYmGLDH7mvEvP3EKYnwf9GJ0u91+vx/13CfGilgF0ZvwF1fmRMf0zz3PcxujlDQrBs0uvdEXIQqiMV5BDAqEiAAAVoCNGU5OYbs7WuYCZhOYsJ0KCX3pTGZC4sLNNFAE7ej3ZWTwGpUxNrCMdVoFYSFDeZYjzRZjhrSqAFC5qihyf+5nvOxz8kIwWttHZh/CQAAAI0YFxr5txdbLimxuqL1ZHwqrtb7NDI/gLHscTR1WrsqKyCOGWus9WZ5F7bezDMwGEU1m6oSL5fQxbCzYzFZlRURRZ6G8WZRFbGHD4xY2cg4VxNA9iM1zH+tKIZss2a9XOJMb6zfJLX1nqm/u9UKkiV8C045OaFLE+nJ7PbTZ0R+yYtjkEiVno4CHX99AhqIilEzkuPKunQXnXmdfHxlJpcF7JWzXZ3jCFY5ekiF/ICM8Oz9JN7tSYuVsdjrGNoD2rtOohE2VrpDdCmuvjYThLXM6bWyOC7r8vA9V1ddJdAFXbdurPb6J+owbDwOym7jAuw1y7FaoGd8HJ18nwqwRSAgYE9AVAZFUGYNTtXuAf4KBhxsaqJ5hKDbHRtMKPTGNdfK6oS44wzEzLUI9GVJ9WiIIqafQOslEwpkCTH84T06cdSoIh20MF6advlnTtpsky9L6i2lYwFhGcsakxfpUIkXIOTzOgjEtrRGyfoIxldnIWeceXsaZfTCwT8lQd4oQM3HmaRysnHzCd4ckQpg4MHQMiEr4LpTEUk5R530kWcUyEM0Kr3aJxPFj24a9pURtyDvVrFZMYVmt54fPvvOW5KIybVydtx3lLLj/BKJCMGO5cIHMjR/EcCFXfgqIKDxynbj04hWyCGeeAM3nvmYEJMqRUG0ljTciHr/L8ZVznGiioamm2nYUxzZtr1wtSHGHLg+f49SNFn47XKrToSOC0VaiE6wRjbWWecupo6sPURYFwGHlSJyPupVzXP7omyLr2Cd1Kg2ok2BhZn+sioo+lGB0Rm05o9KJTyigMUvM1FSpgEYP2hIvau0iVDW0wbT6oKp6gVfILlkQE6H45uK3Hsauhz4iJOPTlWWo4Uef7149xxQ+54oS6xE2cXQkC2LiVGBjd94ccivhavt1mm1hUfuKRtlFynmSaZv6jn8GJaJwr5CHoSmXMWaFxeLajeL4OZWrj6Q/nR0alWLo/yXO5NxwKt7ujpnaODMz3s8yRPUkW0abkCH+/W7R/r6TXIpEFC0Ld6yfqQni3PEnzjinSCPREz5wnzaWesa+4pyixnYqSBbZk4OqLnBtnUicEFIbTQQxcs+Rlm7PHs2Wx1jbfyKRSCROKUlBTEQw3GabdMQzR1tBTCQSicRVT1IQE4lEIpFIJBJjJAUxkUgkEolEIjFGUhATcaR97olEIpFIXPUkBTGRSCQSiUQiMUZSEBOJRCKROD4QUdNRv8RJRVX8eUTrI7hHJV75MONh3GS00wauch7m0OVhEq7ginbaXXmcJ/DYJ0hIOiZkeKxFX8DYHH2SKH/s/pfVVrQJCXDMQXqcK/grd1Z36a0ISUBOuPvipn2u1rYn6uGo2zZKnPP/5oC2DxQUy2EGwxV6xMqDDBHNKOCy/IeREWh0ZYjICIgEIIgYl/CoN7DMkgERJ71kN7/GyrO0jMMb6lLP1VcEHQ2hqgKRztUPMw+OtZmQjBAIkWJzVBCu49cJK9kVlJkYOX23W6lWhkPoIaqUjsOf+chhqoIVFVJqgrouno+buL11xC1RxdAO1I78EZJXGxERqSPNi0iUnKpKSKvJGQsSKq8S5CA8FvMor6n6jJcXhIUMNTdsFLJ5d2vc3Ezol0tFjY3FrE1OKqraNNGQ2MrtaxZcP6+8qz39efrTEcViXl1/Wkn9bdpn07YDg1w34d2ExVjT3G1pe1t5rGBmP0SICBGFiFpVVZ7nK8Sa92L7AkaPaSxN/TRVseDRNF855/wvK4gKAI5d0+UBYOm4KCLCgqhEBP4mAbGYlUGEh+Fc6+ceotMeuVmtdf8ZeU1/EttXAuQXp8PRTFTMEb4big+jIqLq9RIumRaGwmoaFRlUAecYAIyxSCAcPl8zixAKYoamjuYycf/pJKTGOXaOxcXOgzK8uShHjKIifqxQEtu02wXU7RlRGZgFERdfPys7ZhbQJRlN58siAEAcOtGj9X3Q5zmqz5DkdQRnRGWwg8GAmX0sO6ptQ3NvoarOOWauqgoRiYiCF6lVtSzLwWDgpfQjciBZll24cMELCQDW2PYYd8XldM6VZdmE+IuanJxzxhhVNWT83L80lSFTDmk+XPogvWCNnEQUpX41UVnRLbdcNh/6KjXGRAV1RURfpWVZBrZvbeFfD8IVxMN8nmVZWZbGmFgtauApB1bGohMtVxBFvCrT6AdLy2jIOHZVVfnK8WpQCF5t8n0wPFXTecuyrKrKWus717wsml98dr6JihUjYwrixPXTcvqEE3Wy9Ln4PuhbS6CCWJalL2BVVe0+uJR2H/TljXrpbdp2+4YL8vLVUj93K8RxmoXvvP7pN9AyeVmEnUPCYftcMs74IvhUqkpkyNRNZbHtpB0TjJ0jMmbhID+dqipL3wszsSEPYl4UshAbDxE5ZldVLBJlE2oaiaj6EQ0kYkgUVa9vIY0puPO0zNGLHQEGvMM0yhY7cMz1fE1oY4zrPBxkMsvWGmNGQ+K8hfXBYEBk/OOLWnzXMRNp3Lt9Mxhal1lrFqvOAMDsnGNyJCyVqwDypUna9Pv9wWDQ7/cH/TKzWXhCZleVJbNw5ohMltmlYXhQcRhfUcbrc3mfatdh/eT8aOUHrAVVbIzxM5m/stfrhc+j7UnXp503x0zT6/WsrUVl5qWDuDGmWUyZKaciAQDOaohezsZ6EfWm3q7DcJtZc2Ws4aptZVnBPheVVzthlFLiaRpYYL5t7XCimCuIHU5bMV0h4XT3CVEQJxIuzbrdYGJFbVdmbKr244h6jhPPLiTthJyxildUSVeuzMPIOdG2o7JbTdSZz25pnPP6egFRv2qgi6O7+nGh1UJFhwqQLBwz2iHXhykD2om0y9LMiNFp2yyW09NMv36gX55gSL1EiaSiDFJVTsKCWKrqYDA42N8/6HanzdUzJ2IiY21t7xfHbm6bGc2DovV9DFGj/QhLv6o42Cjga8YbcZilqnrNW9C8ujKtCWX/4CAwI5/QZrWyxSJlWYYbL7wwhsi///T7vaVpiYjQKKKwDGTgXBUuqrc3eSvcwcF+eEIvp9/poar9fn+5EcFYZldVlWN2LUVr6csMERlrm8tsnufW2qj53usHsVZAj2/HnU4nKtX6+vr58+eLoiiKInw5tVm7KYoiVk6LBABZZEJ1wMYRGcoiF/4E+/lgrVhrfbQ0DYACKgFAUeRxSyEtE/fktobF9xHIKCMycVs9EDLKB8WgW3RtERb+W0dh5lXFWOPLu/Tdcu6b1Tx5pz5fy7vWmlA5hxgwVVF1i/XJRz+vIw8/F1ZVQaSoNpPZLKNMVW1m406atdtMTCoDxhWuW6wTYZ7nc5fSJjacKVi09SqVHd1txvWzcgSArMjGkiyrJDHK7BBxVDPLpm+L1ubWonWF6xQxQxOOy4kRW9aUW227fcMFeQGAgn/uxliM3DApRntFv1t06yoNlpOtQ0STmVqGxX2QAAAyBubcG3FHc8viZ9eqOuacKCxYcSuVIVsVrtPpUha01Dv3YYV0RAJrrXMZsxRRY4UCswIoAGY2o7WAJEPWynVri+5mNyI3B8xCZI0hYwgp4mCqOmgmUIwqooOyKgnR2gxNUH36tW9ELMtya2czIjMBduwVOyIqijxiPBSoyqoZK7LOsn6hIE7JomVAwjzLo6qFSwaAqnJZkS3PazzfalCJamYzMhj1BJld3FwmwK7eHIIEdmJPUoj6RcNOv4IlKfZ6T7/fb7TYZrvk0lTNoszwA/Gm7KJY8384BQUQAALIVKi5UqUq+wBkiRBJVWByy93sUrCIsCoyqQUCEFj61mU65NWL5VvQ2sOZ322M9exbz0wTL6JtGSdqS+f32ZnyNrfiYY6RhjxSRCVUikroj5oAmEaqK7lDV1v/t0rd8W8FLu5mBgyBGdvt3C7p/FKTwXrneOB773CXtMFhqvBKwVabgVltZpqh5Ki0tb5NButMpxO2xWjeOhAsWa/uhxZwKGdG2eRtAyBEMhlgq9Eue+exxvpqWe9saKlYxL38jPpgTL9ABVQENCM5ZWHyYX3Wz11X6YMk8X1QAZUIcJRqcfJhwzAGAWLOYLQq0JiAzY5TwvgRhnRZTc5KG3fNsA9aJGMIXJw7EEO41hm+0nN9q6CEgOud9XrGkoAOhX6OJ9s+h6F1dtIqikLlBqUxGVFW7zRFQAIkHL11z6yKidM8Cl6LMN5aZkL7BZFBA16LjWvYBMYaKQUAjDVAEf1CWMe2Zi21pjOQQV8zhMjsLA3H0oAnaKwxbO3Q2BGOMhhjSYUshqZFAK03g1oZ/3wxBMYaVzl/sfXbGBdv6ZsU9xArfSsnnFj2DUFYJrb4AECe55UbGDJENh+OQnUnaCmvGSsAYJ75MTkwR8tGxCA2S/dgli5XMICBkrkS115qmFaA2+VWVQJEhIoZAAyTKsj4ignq6BYTd2vv28BxZXtm7ZICGAAGJ6KiSBi+p9Pn7pgr5oo5fOPURHlD89LZPWBpfQbefx6+gE7EDgs4fv9D3n4Ead35/bMgoPAzeEgAuqjNTNPUTMWsKoYtEQjD9FrM2E5WxbrNyJI2M/NFz09IXs5MDMScXfDrqIhoZPiqvVAJFgFVNYwVc8UOmAoOfuE2AAIlMwAUYkEhfGuuDKvFMvnOtTjtxHOP7YP1HkRxFTPFbeQXx4yIGdn6jEqUfhl7JjWyp7QbRiVcCVesljDkPvMaVdtyOfMa//qjAo7Vn/+gOcPOAtq5BNaSY3XCRqzfgLh0aRoJEEEVmLUxBCH6TY8iJAAAXKFCZvOsWJvYcKBSr8L7LY9RNMdgj/zUrcLY4BPZfuoTZsEFFFZCVAFRNZGN29fnqpu7RFWP/Iz/RH0ixK2jnXJIRFQgs5mylAeX8+4GAGD9RtYyowJUZKE20kU8FDHAqIiYDRMu1Q8VgACckcpIZRbtKRk/nCtEhhAqIwBgDYiC4Nhg1l6hmdyCqdpsXMVxnzUzm69fmhADlYiiImJtSQoDEZ34Akr4pt6J8gbnNbvGl9ZnqFhzYBVnpCKB4buWXFEFtMEQ+qblnwUZCN8obRAUFrWZaZp9WpURVTFGc8DKqEyZL7yxof4dybcZJahoUZuZuRTgL/Ry+tJxcHMTrPUnIOOtCbKwetjvJjPGt080Er4d3xfQ+fokUAAO9pYgUFeL337lh44F108899g+6JvosA9GtEYBcUYIEczwEFVMX4lWLCI7Yts9RcVSkVRG1JiQ+8xzbTE2Hs66hgwaBEZwUp/3XGFlbOyFKiy1E3EqxkAOUBmQZVOTd4yiAmyGnp8IEJVASMWIAAAaC5DVKxG+FMeghSRONn6z4+iQyhmBiFiYK/7oRz/8njt+v98/IBUAEKSSOg7Jv6mraq+35/dKIpJqa7lx4YTKtUsIzLKMiESEl73lrXU6RKbXOzh//uHrb7h+lM9ihUaUDBFir9/3NxFV7zhjdIexCXtKQRxO/BPn1ucoiERkRLiqXD0gxpicEdFV7vzD57e3t8P3g06UNzQvmj1rLq3PwPvPg9ldvHjx3LndLBse/ArzthOLGW578M+CiMKfhSGjKgvazDQjC6KrVLSz1smzvKzK6YTjEx76NuMP+S5oM7MVRDJ+N0izgXhpP2oQruds3wdVdfEhABZRUWtNWVaDwSDPs/Am6gvY7/cAoNNZU5XwjfwtOa3vXIvTTjz32D4IAOz4oYce2t6J6INeTseOEG2WDRXEuJfDKCFXOCTU/F6W5aVLl3Z3d60NOsU875ql46H3KOnPy6sIjm20DCXWM6j3cOSc63Q6eZ6HnMZoTtYz81BBVES0IghAtRJNZVlevnzwqMc8+pZb/uGrvuEfxRbkJHAFPdcm2vV5phREv00BuYK3v/13/vC97yNrL+9dVlEnUKz5nb9ifD9qbxwfO8Ox1OKyii0K/fjy8dEn06eNxhSOgFywNWZN3M2fm20ua38bdSIvlih/ELHl9eCckfrw9bmY6YlkXGE6Kl9nh5d8MbGSx8pzPDUTrnaQMYGt9Mq2n6OmOffqC9h2trJY/ukHRDEOO2PHk1g3ws39dehTbFzxWuwNbXap26mOLt5JO5eQUkv8iseYvxJjkZC9Jz8lAPIb61HBEhwcHGxvbrkBn1IFMXFEnCkF0UOIToEc2Wzt3D948lfuDxwA7GxtEggAiFTNsXBvWELC8A32K3rYnhogli2JLs9lwRtqexfp9CmlSNkjiHrPiy3v4iwOX5+LWaIgHtkL7lH7/TlqC9Dx1EyEgkihUYKubPs5akYKIlHbZePSjd1TtREXRemo28PId9Jwd9eEJXtR2jnrBu1Uh19bmMeCFZ6ZrLDi0U5i7NB9m5IiieYEgCpGRcq9h+6/r+r1HnzwfHw5ElczZ0pBrI9+EUIFUJruNTc+9dU/+M8OJNvaPqeDPb9vRYS9+/img3n3sIF5JAUxUKSlJAVxtXyvLElBvLL3f6SYUBAJUVZQEL3NaaHWNZlvpIIVdfP2/ZsxLbzfrbzEfEUIV2RrSSS6vU0oiPVDV2IkxpwUrJaF9Nep/2u/9B8+cdcHs7xTb0BMC7YJgLOmIAKAD6aDqsoIna2d9Wtu2N/Dh/tktevdFSARFjj020kw44zZkiAuq0g1PZAd/tRt+57zTzEDjrmiONqZLmbcWfGU8bwp4YhPMc+YCNuD/qlVEGMlj5bneBTEYDVFTeih8Cvbfo4aFQVCFfUFFKzlH/4/X/5JDwhxLl2iV2hXPdSiOnwiYzuCFqadV+jjGQ/bskUGIQyUaqyJ2tFDBwBFYACj68ADlT3T3cryjs2iHRsnrm7OoIKIQCjiDGpV7ff3Lm52ru31gSAnaEcEqi/GGR4TFvXO1ZYk/Pn1saWNQw9M4xaO8a/aQtLYWHWkU90xTKPzI5ccbb5LFrOOLPujWwKriZ6wI+U5ukC0LcLtUu3DN7HWrJPM0KEdTvgoa0f0ntlKJz/UuPiz0e8Lh3i/8C5dfI4hHnmCXOEcWfcau/PRb2FlN6orQVAEQagUEIiUnIAgidTe7xIJz9lTEEXBkioDCKnQKE5SpH/OI+DIJ/sh7f3OJGOT9LHJkLgiHOmhorp5xBB9KOEEn+44C32h7VrtNCrE43bcR1KSk8/IfDj8YQUHKoqiIMwn3xCeOGbOnoIIAICgbGLfVROJq4XYs6KJs0CYQny0LSepKMePkAgud9CROIOcMQVRR4F4MCgmeyKRSCQSVzcn3lFT4pHgjCmINcl8kjhzJKthIpFIJMJJRrREIpFIJBJHj0aG8lvh+hPFMZT3KIt8Bi2I3u+XU1ERAUEGkKQpJ84S4ccRzsJBjcTREWu2TnsQTxRX/NiKd9aDwbF4Vrg+/OJj4BjKG3V9LFZEGMf8FiyYPLw3BGGRYZDy8Jy8m1YfPlJEGlf+IYiIc85n6v1QhMxw7AUVYce1lwetV5dRgUBIk1qYSCQSiQS0vS0itaLUqKLgTJeWTbxA/20dv1GYWZCQWL1b0Za7SgUA4KnAp8IEhlmYpe1Had71YzIP9QpkWnrxeEJhFgAgYiNmqc9OH9gd2Yqw10OIR/Em5iVpRBJhXzOgMM9X1Mzy+gKKKvGk0jWvftCCMoj4PFueCsJi9jRh5a1zbuJFARfGYjdkHDuvrhHRAiXPf+WjmDc+7n12M4OpT1/f/qqqKh+q3CuXIO0wJ5PX++ggIsLMAFC5yl9GCpmNU7avSgvKxHa0q7KMZ4TVdhYe3RNPOx0TbR4pi+Bh8j3LVkxXsT/OTDQWkJodyKxzLMbY5ppmImYREUYlIQYw0IqUTWQAgNlN3IdFjCqz8z/Nrfz9p69vo6o++JmoZjZbfHGbqnIi3NibllqsvM6E6A1PDABCc52CTsvPIo6Z2YlTn3zx9e2vyrL0AZAaDW9x/RiwzM45ZnbMI50nUEEUVXZOXeQSMyJKS81enNkC56ux13ttL/b+TRC5KWOnjI706yPv/jCRSCQSiUccJJx3iHPmdK9DfWAstHcdF1u8Lao9TU/8ObqPqHon7uOe3Odd30aGuQBQo4kGMhKYNCShv1JqMZfn1ZZfRYcp5yacWz/eNKuTi54LrvcZ+Tybz0PWTEUbOdVmWWaMMSZIx6yXmIfLxFmWBWQ3ltyb9LIsi32K2ZDagtj6amZGbZ2SiHwBUQHEAWBTfl97fCY3YyYSiUQi0WAzapaNxTXrp0R2meXJx2wU8Cu2SEiI1mb19rjxWZpkch2PiIkMs1ibWTvSK7ws09eP5azqFy6MsWRw8cVtGhNSllljg5aYVcVYQ6wqagy1RZ2dRUt+IhZhazOTGeLZQs4rr1+yz2w2oZ7Nux4tIGb+2WXt+gxeYrZZRhlarzy17clLISJrLCNH7UH0NJpoVFprrLXWp50QdcF9iMhfPCqgjoIaoQKO1PHkBCqRSCQSZ5vW7NrMrYgY6BrOq4MExqgiIpqhObJJrqPLxrM1aMAYMoamv118CAMVvWWNDAJGnNggNcYMF75p+YEqVFQxQECAxhDRDFFnJxxWi9e2lgo5/a0xhIi+gCHX+w9JiIySacejDJBWUcUYohVPMauqP/+xQtrVUrEwc51j7OGYKcyknTWFVEkkEolEogXSMFR3Osx5VrH1KmtLSTqc+nXczFtibpbhm/0NU6pgshomEolEIrEqybpyVXNWt94ND6mgmqQnJhKJRCIxQbjD1MRVyRm1HZMCAVB6+0kkEolEIpGY4owqiIlEIpFIJBKJeSQFMZFIJBKJRCIxRlIQE4nEKYLSqJVIJBLHQBpqE4lEIpFIJBJjnNVTzIlE4sTTDgufjpQlEonEcZIsiIlEIpFIJBKJMZIFMZFIzEXG/KD598lFnkOPx87nhZqXlSABAC0NrZpIJBaisnp/VlXQoNhuiROLRUQkjIqegkNWyG/lVE2Ok8Gq59/QJ1HV2AImEmccmeouE5/MVAQFQYaLElRfJmHxP0GHWcgwsBdpWxklQQCFzADz6CtBUv/VOJZAGBw7IkOp7ycSR8TM0MAEwBHXr3JNm/ZYFJOWDHJbzqVpceztGJFWV3+jEuq4nhOYFgGRCGXs+sCxeAitpuoR0mFUvRWyI1olR/K2BBqupKeZIpGYj6D/odZP/aEiKIACaK3GiaBA60dQFMgROARHUCFkBSChiutkZEBn/mSgGagBRUIgdIbYgP9xBoAIkZyTogNCcGFvQBY2u9A/2HcHB4VoAdDtAAvsV7BX6oCBLJRlH1E3umQJfSRR//NI124icVaYGQJ3yfUKK/fTJqxuLD7H0LRa/+8XJ2IVEi/kygORqsYuipBBIgKE0U9IRjKqT+t/iy2qqKz2PFZ9iiKySo6TcqY5IpFYiVEc8/oXoplrzQqCtX3xYK/a6maX9npV7/LG+kZjGqzT16OtFQQBFAABUARGAACjY0ZKx+AcnNsteiXsHfTPrRc0OMjlAMBY3OhzaZEYhQihFAMOHO1VmtkcFZjTWnMiEU2jjqgAzjutMHMlgY91og2Sc2FC8AVZqgS1iuXVSjwem5OO/x6cp7CKiFETl5uqqnhF1jrnVHVkYxta3WbiIzMys3OOma2J28KIhM45ALDWRm1ucEOstczcllDmKNXWWp+EmZvSEYBJ53ISiTl4nUxQxlaQfeBypYndh6ST3V8QDAACkAICGNKLD355Z3vTUNexm1iVFgRQy4gCwFQbKRlBEIxCJmoU/OrI5qYdDODcOuz3BIC2djqyd2HTlB/+k/dmBp/zvOf/2R2/f/Ozn/nEpzyFTOdTd9/zrt+/81vf9N1b29fuD3pgsnQUL5EIRKpaH/G7s7x5RVXB4UwDzUyjljfnkNfYEJTjDENSRVzs5RwKM1fO2RkJq2gdb1qXy6kqiOSVQhVldiuf4ogqo7bsXCoAsrw+yaI4rVzFzrW1uxCwpV9ZESGidn6yYBM6Q6MgiohjF5ex1Aqi10rDE7oWIiI4knDBfRo5ebjRQBSMTbNFIrEI0qFSCAAACH6ekLamhV5fVGrUPkQwCoqAKqSC4NYMX8byN9/ySy980Yse94THA1CzQ1ERjIIoABhWMOi/UCMC6AgkVyChinJFdBV84XOffc873/7qf/K6jWsf8+UHH/5P/+5f4qUHOnJAUr31V35ubevcH7znHdfd8BVPf9ZXPv2Zz3rC9ee2M750/z3Z+g7ilkMiRBYRgLQfMZFYgIg35QORaZQ/VQEgkbF9hX7m9WuPE7OwqKqoEKgqKqqqCLevnwYRVYzfC+IzWnx9OyEiDRVZUY1QRtkvSwqoiorxci64XlWJANR41ZlZEOdePy0/IqqKioLCdEYLytssTPvFXl+ZYzrbVJGtGsfsqso5JhpZEI1Zrv8Q+eVsBQXr9/a1xVpsQSQiYwwiikie50szG0uOKCIAkOd57HpxPkRE2tLOu89MOVEBDnEsK5G4yhnqhTiaG5Qs9gf9O++80xK+9KUvWe+uDwbV1sa2q6oPfuAD5x8+/02v+sb9/YMssyKOsN/NjSXQsgdlXx9+wOx9cYf21nlPgBTHdERRp0QwcD/7sz/13+7+ZNFBxBLAEQBI/uxbvvr13/1DYIte33WKjFz/mvWshEGW07/+8R/rDC586q4/c/39Z3/lLXe89/1Pu+XFj3rsE6Ts/cGd73nvHb/3kfff4crBPuc7T/rKN3zX9z/60baALIQAACAASURBVI/2r73NSJo0xURiGiLyS5iI2LwQ+nOsbT2jwSuRk2qNCINS61wpkZmpSrZBAiREqjNaev1YWsShUqtRPdtbEL3NbF4ZJwoLWB+lMIYWXD9TfkTyJsjphAvKqyogo3pGJMRx1XNaZSMwYgyRMVwURfPxYg24ERJAvJyWiLwuNSHogjInEomrFWzODqOQAqtTh+trxfkHv/T0pz7tt37j//uWb/7mne0d5J7r97i6hHKw3oGM7D33fOYjH/nw173ytrf99rs/9tG/yICtuv7+ZQL9q499rK+W0WrLBikIAvn3fd+PPOPpN/9P/+MPZ0YKWyH2CUpS+PCH/+ovP/n34kqBrKoqN+jrYE8He0zZ9dfu/t1H//RXf/6noX/JGv3ZX37zuRtuvONDn3jZy29/+Qtv/du//dSP/dj//sQbH/XXf/Xxuz55922v/T6Xb1ZV5V9K037ERGIBRAB+lkfQ1gIhGkCdZdyS2RrSyKaFY2nnbdprb1sk01J9AjbctVe522mXJ1Ss15e9joWzy9jKyDQKnHeNsjS7tvzzyjjv+lZC8gv+tRp9iI2PizVgT1tJTX4QE4lEjT+JQgAAAgoIUliqXPnl++/nqnzyTU/c3lh/1+/89hu/9Q2/+tZf/osPf0gcC/P73/vuW265JcvsLc/7mu7uV3zD67/3W77te7Y62f33fe43f/1Xv+4Vtz/xKU8psVuRBR1TEAHoYM9ddO5R125X/YPSsUUABVQx6jJxBCIgAEIgmbpMy7ybf/TDH/67j931L37iJze6eVU6KrpkOn/zN5/+1Cf+5v0f+JMnPvkpH//be849+nEf/8LDN7/gdjU5l4MsLwaDASLGbptOJBKJM0saLhOJxBgCQFAfSemsWTgYfPoTd+1u2Ouv373umt3P33P3l7/4he/4ttf9sx/+3jve/c4HvvTF1772te9617uue/Rjb7rp8UqZEPd5AAO55/Nf2Ljuhsc99WlibL9kYSUQr4MqAiMJ5N2NbNDL7v3Cl37mp/4N93tGnYG+Uaf9/s233GqMxdyKSp7nNs/zPB8M3Fc++zlPfcJ1b3nrr3zibz4urM9+zvNf97o37GxuXHftzqWHH7rt9tv/4I/+8Jfe/J8dmFtv+/qiKL78xQc2tneWrh8lEolEoo1Fvyo+vpVycRpsEZtfk2Rl19zh+U7LWZ9WSiQSs6iXgNHv1CUCN+j1L1/40ic/9icbm9vseuLsK17+teuFdXz5woP3b5uSs/L33/Yr3fXN5938VLtW9LCy4Azy5/7+M7/5G2/5737wn77nfX9w53veg65CLqtL50l4Z2fnoKyyrd3XvP57n/HMF2/m8MUv/P2Nj9n5ge/7NyQWsSTsf+QDf3zP5z7vXKVUGQAlrGxWmUIYSQnQnLt29yf+1b92A/ehD97VRfrMZ/8ug+obX/W15y9c/Pzn77333nt3r7v24Qc/n3e2bnz0DRcu9ymzxlDjPKFZWpqsgbRHOXGWabzlIbTn3HmrmjMPLKASoaDf2hc2z/ssqN5eFykyAQo2y8QRCb0f6aaAy9L6vXmAgFR7kI7Mrg5LApEumUcPIqqA/gkSRrn+gXpxh7ycyYKYSCTG0fposgBZa//yro986Qt/f+PjHv9zP/d/33P3fV/9nK/6quc++xd/8f/iwcVr183egw+sddc06/zWO+/cuP5x3/vD/8vutdevF3DXh/74Rbc+7/E3Pua6xzz+xS//unXjdP/CdgEW+G1ve9v7/vRDNz3+Mc9/3nPYgdPqk3/9wc0NzK0BLQCVUG99yUu/Gkg6G/c9dLG7tlYx9wUHDHmRn//y+fWt/OKlvX/77/+d61XPfPKz/8tb3nL3Zz75+je85sd/4l9tbp/7ju/8rmKtQ4Rve/s773/gv37n9/zQ2vYmIoKmt8NEIpEIJSmIiURiLpf3Dj77ufu+9mu/7vL+/iv+8Zv+8mN/+9lP3n3TTU/6hV/4BS33P/Qnf3jPpz/56le/hvLO+rkbvtx3l7HjaPCRP/+zj/35+57/VS/omHyft++/cOm6nY6161/4+7vf/Es//4Jbb/2p//grD/X5ciWWLxW2kv7FG2/YIb4AWgD2AGR9fatXycXewTXX7FSVyzJrM2uywpriumvXHF56zeten6PurG2SM4P+gTGuu9l5+rNuzorcmOxg0M872Zve9KbK7ez1wQgICCISLd6GnkgkEomapCAmEol50L2f++Kzbr4Fel+65zP3OjcYlL2Llx6ylj7x15/4Dz/309Wgt9Fd+7O7fsLmna3d3de+6Xuuf9Iz7r777t9+x+/e+sIXlQN1zFkG53a3CQYV6+buNTu7177oJS/bG5RODFlg4+6/8OXP3PfAvR/8yG+944OgFqhPKuc2dp70D5727d//P/QOemSIGYRBBFT10qX9e7/4d//n//GT3dwM9vY2sw1lp9AHw4KgRMVaR1XR0LOee+vrX/tD3WITCIsMnECVVpATiUQijKQgJhKJuTz5pqd1zBP/8oO/n+UdVS6rg82tznvufDeCu/2VX5931l784pd119YE+Gd++qe21rfNQD76gbte98YfvHD+gYfOP/i773n3e//0/Qf7vY7JXH9/DUusBj/6z3/Erm/ts+F846te8NJXv+F13/7f/4tzO9cP+n53Tj/T8tMf/YtPfeJTzlWWOo5FRJyAE9nv9Wxmn/bUZ/zHn/9F5EGukDGhClD55l/95dte8YobH/fYit3W1taA3QMP7Xc3NwYDVFUBVF20m2roRQLTTsREIpFICmIikVgAgSJoHUOls9bJc7q8d/51r/7OTp79zu/93tvfdec77nifiOZWN9aMMVRk+Xe88dttYe666y+qh778DV//yq995e1E5trd6y8++OCDn7/nzt9757d927fm3a19NlW+4WwnX+8wdvcGAPUe+Q4BPHj+4e1z14ASEqljldq3/42P3ti7DHsH59/7R3f+0X+9w4hkQqRSrOkXv/SFv/zrT1TsOmv5hUuXdq+79mnPfN5rX/ODlbPdzc7BQQlENksjXiKRSASx+nDpYyCeTNfZUYeyE4nEPMQHVFACgF7ZA6O7u9v3fObTB5cPLl64/E/e8B0veMltFy9ecP39d7/91waDnmQAAJcvfRGqvWr/cm46Suv9svrcly5ZMJJv9LXg/Bznm8yWsqLI7aUHB7ktSIYnKJEQ6L777n/2M2/2oR2IiMiisWjM3gHs93vG2pff/orbX/5Sq2gUjEp/cOl3f/ftz3/hrU99xtP3e3u2Y9GQ47waoMmKqtI8zxnGA1QlEokzzGnRDZBAecVxixBVZh82DyG9TycSibmogJCtqGDosGRFtvnHH/hwb6/8lld9wz333pcZ48pya2urjwhqlYxTAZCNtfWHHnxw99wuO7zcP3CCxpo8y0TzCwdysa8F6YFzVNG6Ug7E+7qzg/0BAICgsyoPPvTw5rldQbBEPoQokbUmY1Zj7M//0n/69Kc+wa5nBKwQgoj0y6r//j//KGbGiQiCWlLJnvjY5/zIj/zPNrPWAlePdG0mEonE6eHUK4iLAwM28Q2JqPm07SGR6n8AybKQSEzBInu9Crs39PTc+fNy7+f3vusH/vnTn/SE3O2t58U7fv1Xf+3//WU0tiiKG667BqGDFRTF2kG/vObax17a27+0d7C+vfvpu//bb7z11+7/4n3X7Ww/55bnbu9cy2g3CwuKrt/bLDoOqg9/4M/f+l/eAuh83KwXveAFT7zpqXuVoiFE3O/1kDIwWekcGv2B7/8BS4Ig4lhYM2NFBv/5LW9++e2vuP6GG/PutiDVPh0FkdGpKi+xFqR9h4lENLN61cj9ME5ddpI6maqK6lUYln1BgQLK6t09YvKDmEgkFqAAaGjgoIQs65679trHfv0rH9crB5iRMchqvvFV3/T8W2/tbmxdunTpLW/9dbQFszJrZ+PcM5/zfEVxKr1y8MTHP+FHf/R/zW1mkZjZqQEgAkSALFsDkfWOfd5zn/W8W/4tWRL0kUozNYXhylqw1q6trQNQWXEny1QUEJxCbu3+Xv9973v/O9/5LlB300037V73GNvZZChEQRFQgRQQQVQcn9D9MIlEInEyuTr3ILZZKmGyHCQSMxFVFNdZy5/1rJuf+tSnOHZFUXQ7eX/QG6i5/Zu/DQBske8fDM496sbv+N5/avKsqlgYbIbY6RgweYbKCiKWOuJcVXGWZQqoQt6ajwgWaeBgfWOndDDgElRUoCg6Dz38sM07LLC/v7+zc+47v/u7OkUBSiICSKRQVrC5s/tNr3nd1//jbznY3yND29vbly73rBnaKRAUQYbF8fsP01JBIpHwnA7zIcLKulatp8VGpxmSLIigKpqc5yYSUxAiGhQWtNTtFlzpxjpeuoSUd5ndhT4T6Xpmeg6ry05sRwSUSAWlAgYBEHKECuJKFDWIxlh/3sWv7KiAE8i7MOjBoARbAGIOCCywf+CKta2q6vd75Vq3u9bJLl92FbMBf7YaBIEUFAgQFChf2yiKrNd3WWcNfDxpAABABUBZWMpEIpFIzMAON+KFakgioqKGDBKONvYFoKqqmmWZv8lqoZzD8/L/G2MmMyKCqszzXJj9RCUiAOaIJEkkTjWIiAYVwDlFxL0DIGsUgJByCwLQq9TkhV+MBgAVUQBFMoiqKioAYGwHAERJEUTUx2j1x/IUoc8gBojqT3xAPDRWQNFmDGDRHPTZZpmKtzwCIYKQIlYVCxOAIWMqB0AWEVTB+Hdu9f55MB1eTiSCaKZ0BTTQ6Rb+96i9g0hgvO3JJxwGdz5BKPjBzdrMaybqgMwyQxsBIkilIkxERHFqg3NVlllrM3WAR6pxCPjzhV7CuCPMCiqgqmtrXanUOufGznAA0ML7OXa1R1lcRUFs/oxSEJ1zzrmqqqyxLLx81XioIE5kRACk4NhVlauc8x96D2urHwRPJM4efuVixufG1PMCKqofTIiH0w4iKCAqKKhBFQRQKhnQLwpjPXA3Fj9DpunIjRdrAAAgwdHucsXR9KMKRgFV/FoyKQiCnqzZKZE4oUhVa0+qI7t77PpmM9f7VMP/aeK2Y/mKkFBVVVVVccVRMquqcxwlZ1tDkOHwYoQWJ0ckVXHMwoKIxghJhNpQVRWRca5yropK6NP6CgwpYLt0sV7//LNr6sReuHDBWttW9RbfgpmPX0Esy/LSpUvMPBgMvPVxaV6zFUQFBGBXXbx44eLFi4hErbabSCQmaG++wOEnNOzLBgUApHWRNqaG4W8CXkUDADAIokAIoCKoAKAkAgRIoN7BAACAqN92U/9J3tY4Mm6AAEKzuRCxrVPS6BcBAEldO5EI5uHzD0PdqUeTtYq23s2W493aj1RDwma3n8wx5QsLGRoMBpcvXTI2buebijI7ADDGBsrpDx4M9YR68CAyi5MToqiyc14JITJkIoaXwWBgiPb29p3jqIQ+LSFam4UUsF26SQVxWXL/7Jo6sZubm6dCQVTVzc3NTqdzWAVRgbnc3Nzc3NgIFz6RSAwRAK1VPoVGFQMAmeyXOPGXIBACCAiCAVAUQQCodUSCpMwlEo8k2zvb/m2rPVnH+oIRH/VoXDVsXM7NTMIsxpBXg3a2t6Nk9kobABhrA+X0euqEIkWGFif3yybOsQh7BdFEKohEZIzd2tqKSujTIqLNspACtks3oRQuTe6fXVMntiiKCQVxKapaVRUAxCb05QSAoiiiUiFiURRFUeR5HmXu9nIaY2o5FUDBcn03omYHJqrICdslkUicLBpDISIqUTMASctqiKY1AQgCAE69tSIBqdFarWwtOQ2XmMn/0lgU5/TLesoBaBsOR5kPP1M8Wd7XEokTizFU79slAIDBoASAoshndDCd8zuAsDI7RLSZrRPq7CtH+bKSQVHN8jzLsyiZVYBrd/o2am+fuNr0aG2GZjT+zM8JVCDrZCBQlRURmSwiP2uzwWBgDHXWixVGpLo+Q5SUeq0HuGJVJTJkcOyrxSiowMHB/vrWejrFnEgkjhZsVovBa5HozyCD0viA5ZeZ619XzAtAECjphIlEInE4zrSCOLIfngpnSInEiaC2CTSGQWoZAWXMY5S2FqAbE0Rtqq/Xo5Wa7xBGiqEGK3jY2u00EgNJVVtWj6QuJhKJRBxnWkFMJBLHxSPgjFBmLT0nEolEIoRaQdRZb+FnCkRMVoZEIpBx36Ktz4/i/olEIpE4dtILdiKRSCQSiURijNWXmE9FIOZTJGciccI5yeFIUkT1RCIRxalRDHR1UQ+p/yQLYiKRSCQSiRS1PDFGOqSSSCTm0rbMzfPCP3ZN6/Po99ZDWCinZau94K58x8Rskg5xFdDeNSz1M0UZi9vrgxhhyxHpzL4U28EW+DRFIETCZQGRp9MSoHe5Gmnv8j6ho3yAnw70im0GTxbERCKRSCTODkMtH6d+SSRapD2IiUQiiJO8z+8ky5ZIJE4mp8J8qFJH+VshrageJhx9siAmEolEIpFIJMZICmIikUgkEolEYowzqiAKkCAMd+eS4jDwVyKRSCQSZwxKezQSU5w9BRHFb8gVJEFSpKQaJhKJROJsQiCk/uTKmTuqIs3GvqQfz6I+pHJWjnGggLCKCqCoQUM1ACAk6SRXIpFIJK5qZMaxheY4c+szHepP3m3KhI6gresb7ap1jaqqQKBmIcIEhlmYI2dhBZWxP6M8vAiLIhIxgQkRVVW9Gx5RPTbrmqrqhCJ7XPqaFRFmbs4Aendii48EOnZVVYmI16zCQcSyLAGAiKKO5JRDiEhEQtRZa61zzjnHzM31BGKBHWvpsHKqQIL+5QkYQc+gPTWRSCQSZ4z2upkANSqjuKEmgKiqtTNRAYQxPcxP36rSDrBEZOqbCDMLEqoqMKqqCC+Wh0WMKrNjdq504QXxk7uIAAA4gJiAT86xqogoEloAkCVpvUcUEiuswlKJRqkxiOhrBhSiyuj9NQIAcV3tS/M1xjK7qnLMrn1SO0R3IjKqwiIAYMuytNb6Km4UVUQ0xiDixO18o/E6pf8/vJA+uU/CzFE1yy0CFUSfyjnXllNUVF0lzlVcVVxWfVf2nVinxpg8rTUnEolE4qwx1BGp3+/5T4y1ZmjHEWFxk7a9to7YBpH8hwTGKzaOmd0SfcjYkcc9b0UKhMgYQ7WlU8QrJoFpvcLj1QlVdY6XpjXWGgGvBIUovm3yPK9VLI0ro69VRPSqYZicwq5WEDFSQSyKon43ULDr3XVjzcQVw2c/qcN5BdHb5Jg5z/KYMgISek0/z/NYv2X5EGamAMc+xhp2jIgi4uVEAFIGVGDK87zIcoOQgQiwAurZ236RSCQSiTOOAikSo2W03c3u6HMHznGthOUmC7+hg7IqvVpDGRowAEtUBamUDLKIzbK2DIHZOVcBgLVZ1olKCdWgEtXMZpShLZa7hZZKkQCVWGRrZzNKTi65NrohxJax6leiikjGBskJAAA5KIhTyuJMX1IpgCAhINiyKo0Yb0Rsloy9mjlT2UREfxkRTWuWSxllFLOca9V6mh2DIXjxWLglJwFAZiG3trCZBbXICpUCq8ihHEomEolEInGqMOoQBIeGwKpS8vY/Mo2FSFVRUHjMpjOhHqiqqnjzoYioaB390m8KXGYOIoNAYIgM0crnRVQVNUIZUgZENIhkhqkWZq0ts11mMy7ZZNEqUEhGC/INTYsAClyxYy5MPvZ5DJaIDJnGOhhihNQhcVkN066WqskxKjKKNKv1OtyHiwRg9vYvg5Y5VNbti1TV/mB9c1uQ0lH/RCKRSFyteP3PbzoUIALpGreeG5KKUA0AIQiQV9q8kuf1p9kGo6FRBQEBjLAiEqIiITVb1I50VlVYbNJalLS1xBwCEigDICCijbeOIRIiectcbJ0gIjUFvHKhluflBUB+56IlIjLULMMfYbaH4AqEyxsdtkIAWMsLAvn033z8137lFy+XDtBwbT8UPKF1kEgkEonEoSAFQBEgRfIKIrrBxQc+V5CWvb16dRBxTAVBrxXNut34dDk0xRk/ZSNNHXOegz/vvIrhCQEJIO40xHjWzWnrABWj0UNE1RzjkuMo1N7xnpRYPRazl/jk+8cZkxMBwHA16Ha7maG9wf4nP35Xv6zIGhBVdmZqy20ikUgkElcBpAA4PLIJhtECwM5Gp3/54jWbnWu2twCk7R15tVDFiCiqQW5jrhC1BTFSYVtRe8HojJrsEHGFKkUC5aHCffQgAUht/V1dQTxOVDXWpc48uBqYrLj99tuvu+Er7r3vASFTFGuVG6gTg0rJgphIJBKJqxQaHscUIAUSpN7+3manuPbc5vP/4fMeaelODSqnwDp2eGzbqHtaCryq5ZIAANACwG233fay227Tlud4r34iAAEIQL9fAkCnk1OMd3lmdc4RobXW29pD0hLAQb+8cOHCDTdcv/TiptzHKaevHFZwzjGLtYZo7P1w8dMggIr1/PnzW1tbRRF+GG5FOQGgdFz7rIqR09/h0t5+luVRcgLAYFBdunRpd3c3M2N5zBO4WUgRURFGxDxmU4sAOMfMYq01JrQvHKbNAMCXvvTAzs5Ot5MHtuqmzYjoIeVsWJq1CFRVdaR9sAERVKHfHwBAp1MYPO4+OFOkeaI6x+fPP7y1tVUUEd4nmNk5RsQsy/xLetN0Z+bVPKyKVYSJDFHwlnFRVcmt2TvodzodS8vrs70gWZbVxYsXd3fPWWvmLVQ2Mtdb04feUfxw0fTB8GcholmW2WGxlwq8oG0vwPf3wWDALOvr65lBJ4Dzln3H5VSByjlVtcYaO2N0Ir8EXHtgFvCuoP2S22jl7RCcVJuL9y9ITRlPqpyPIKfGgnillFd/onlCLzz2lf1EIpFIJB5J6umvCc6hAMcXH+R0o3omvJ6sXsTRrsmTzQI5sfWTSCQWoAqN5/wzMDAmEkGE20dPLjj1c8j70ZJgbCeH1TZZHjf4iB0gPnMWxEQisQKn4WUwkXhkYA0NOnyiScuswaiPP3i1czoUxCtIOqWcSKzAxCtsoBER0bvWh9gTeI3TL5r6fImcCERjUUKDRZ2OLbpcSMHGB1tEXgAgiCvI6etzwWnIefLTMFpXbBkRCVGIELGWUMIExhHheflN4NCkWlon7fiow/okGv+8Dc1KiPW5TZq+bKnAw038OPwkLGUicRpIi0WJRGI5/39717olSYqCASN7d9//Weec3U6B/YEaxkXFqOqarmm/mTOTlSmCCoqEIdekqwsLC4Yq6ciKtS/8c7AcxIXvgS9zT6beu/wUfIvjE/mt8G8g6sJvgsf3tn0LizB8I1EXFmaxqaqKYtgzqXSyqpSfUtY7UR1dG/gg+831SxGpU+0NK+nIqaODA4K2CzRe6U+38KKqIonQe3Ir3SAvdeFWt+3Xo3yhnKVMHof9qQr6yI3j7D35JWplVJwvFmkCwc4DVTVMpCVSBXsY+uDIXW6dCNxcPnKt7foNK/ivOylDPyXqR3TGhl7y2fNayNtraGo5RZRo4syOXQVicsrdLrbTRaalRFBG3nnNzQP9PPUnzFxzk7vFK2fdn6Zp4NO0SlTZRZ2QszlX3D7GTY+hHSLd8dovXCvsfIRQVNRs8MoUj51cX3NTIFn3nExbh+M7TZ7VmdO451kxeGY2QVNsSxaiQkIyuEtrubsLNdIZxKFr+Bgiu/4jov3ZmYl/qw2Zzh89/qz3aTzO4t+LPIL4KyRMWYWQQii8sD8iqhAPnTa7MwFVjfkG+SzAR5vgBCKppnxRTqZlObx1FD5FKiekqrlsGMriZHJ+xJG1RdRJXnyEj2/SXKJWrfvKTdqclAe+v/YJaK0MU/OhvSavqqzp1eC+Dc5v4fbP1zot2FkPotMMVRVxn20+Pm908MGhd+FYfWKnNz+lAg33tuxikFwvvqgqKopZ4OzISp4rZC7HiapIjjqhoicfoJVMHB8FEaTuUjdElaYaiAB5Y1CPkYfcWmddutnWIkDwu4ma1VRUUD/ZFG75ag2LYYzaWR0fPsg5jCBewzOzO+AsqDcQJbg3sJa/JdtVztvdcF/OSlSvnPsIiCJKnlJ3N9FD+yCckDfNgzsrG5pzikA15SzGe9R/f/TxvoGt9l6lNSd4ECKtHIVqEJ0yHlg/05kS1Wstt4f7h7HuFlGdc2RvHa+hwFWcTAHQab+3NugAlji3mdKX2WBLzk4lzxTmqZzpg8UCnYwKbb6bzDVXn0Q1eVtMcTefA9O6Nr/AInp76KJfw1QUv94Y7E7GPrMNJ97sJTi1uwwcgfkl5ctbX7CthyJKxZ0awtwQlbND40GtohNhZ4DiTqgK6DjPbup7DVqGYU5OURUVBW061k1aUaGJBiLtft5hjBzkeZHXdQZx4dvga16SUNUQ6IvD2OZql8jlr44RLCz8UtTe4SNy/aKks/fc/y7OCwu/HfZrbsrNlhY5lbv1mJAo5NvXVVWVmVtVU2Xk6D7bfluhqtaPqkUFONV/K2cIoYr5JzlTeWgKnERFUhURthRMRME+e5DTppEIQwrKetyaIMLMUjOq59brdKkqJzntz1NDWgIYr5OcnfL2kwiLGCESoSrbRn8YJEAk42j/OjrkIGr5TDTmVXZL5bQc0X1c9tTetGnKT8SMqlP+BGsas9TsKqnOVKedt7XLBtEeN7dgItlYnPpniFqZb3XmyOjQXht6EREAkYP8dS+d4kBGoirMZx3u61ut2/nE1Y6O2LVuI265hiFubHAI608bgiyntz9vbbBT/mSDzHSraYaW1acAsPBQn2uquj/ryEnLjbMCzvovtAe96tvCiWON6ziWh8g1ydUMy2fLZNiJuWXdxiJqR55ajBIlE2HNmUv6zvQhfi+aY5C3B3QP3FRBqvjhMISIf8Llfgtu5DOIkpzCskDevywCgoqiZaIRoqaCRonls8a03P78+RMAiKilqbcVnrxDo7X6b+2KmevvTc4kz10C0xO3chjfpn7/UycRyVIhMwAADYFJREFUYZYQwB7COmmLayLV7fPHbritapfTJotTAebYuug/zxRSy9kpbwJYplR74aD4JYjpctXu+60TM1Qi2Nu1H2Oy86u3jEr5a+KcSncOvXpqb3n/pqbqlD+hfpZavhk2sK7AvjbPu7tgUPVA3PtmsbGLcV81Y2Qb+hb5qb029OmM0Pn5CpXltvS/3WmXSW6Gvq9vtW6Xxg6bedFt/ogNOsCV16WIPSEv/Xljg53yJxu8PuLqNzNGFuHaK+rrc11t3Z9HLvdu0FT9qaKj/eZNGtgutMPlCrtD8e4Ix2H7XUatLnO1947fVk4E5peNXFsL5lhCpO933LaQZR4fwPDPn4+x1y9YHANTtPYZnoaosj+Q9fCdXSNqGdLz0POBIhfTLO14okhTmUCeLWblzK1T16R0ogW5nphqAhXzzHt6Zj8mL3Sgx4uyCansH+TO+AkJEe2/ZsYd+7n+REghBADYwnYb+WuBiEpkkZBMtg5r41KTF1F19NTDLk21eS0Esj+dciKikRCVDeWYFvOVufVkeo1d5dMz9fY9yZn3rwdeIfSGJt0oW8nZLU85gEcWxutIe0te3ZrrWjBCSIeQRPZD7qWxnfLG8Ohq38t5ai9Rcgrz4nTm1emf47XAJSQAnQn0ug/qx4xPxcqI2xB2BCvCl/4s1tHpz2t7i7bkI/nV8wFExGCn9SG9aS426FnB5Dr0I32rdRtLTqxhRKrWbaKQAy0D3Nqgh6ocSCgtbRW+9OeNDXbLX22QjgVgGLsiCuaRDPW5JacNbi3SHcRffxGmtt/CusOl1V5bgltaXdUmVzN02qCBSEUQ9wvPXRFTm2fqOEj/Xq1sU2kMmDkEQkwBztHEC5hX7bIO9sUrP1vr7dFfVs9b2tbopAkAcCDkXv7B1epZBkIpC80MGWEiTLPUkAJAkAA1jfmUlHvrfH1ypk0G6CO0DAWIglRrso/cmomAsCWH7zAXAwCE9quRttybnxe2iYPnAPB6vQAgbKFT/xXv97s4iEi44eZpZ4lkbNtWDHK4VhCAQNi2FwBsW7A/nXKWRXHbtnxlyZiWALbt9Xq9tm331+v2Ha8RCeXLL5PTBGDaAICZti0QhVrC/mgQAMBr2+xfr5DXA+PF/+iUv352ymmH/0r0os/rCuaXDeLruC62Ova6gWyN+C2EgoW7Xq9XO4h/w9Hfnxdy3bbX67VRWlavZFXMHtJJlPyQd0LOW90ulQ+V3BbOSrfxsQ0OYW8U2Zxm7L7MBq+aZuhUoqqv1+Y3wKGcbfdwjkUW78q6x+XKK0YuS3CrmXQkPDGdskGmrXKdy/0+g7af5pkr31uBLT9QCMTMeavg8boAEVARCZWVGtl3TiT5E+ypiu0/tz3ScKqIAhVnKIxf2kUlJEDCoz/jQ7564rJp8jDNmxAcv+GLgMLJ5Z3lldiZr+XgdaYlpEmmSJVLWn05hqBtePdHzKV/JyRGLOcR/eg8ku5g27a//vqr8J2V83CyxCMkQAhUCk9IHFCVEKlM3U7aEIiIPFtuOn5+JqdSinROyRkQJK2+gWju/Sab3UKYGX4Eu/tQFTYaH7epPZbysKdM3B52gkCAUQARZsIfYCMYAl1n7XYkMP1fhiXvQMkT4omBsNW9usVjcgRDCETjExpQt8V0BlGmFeao29eaO5QPdHvKBg/ANKcFhzdz5IciSBSe2mBjYW4RhiCiloZuCg/mijpGN2vvBktt7Jyrp74/F0gur5eqRkAQJESsdWZcAwIgvHl6C2pQlbKDnX3a/FtdIfc7YHXIEFsOXZ5Pbg1RHxbx49kRipqRn+mjYHXG3FGkBI0KooACYXIPLYqPOD6TEwWeyUkKqkA6/fZ74jgvrUTmyNt/fkxxRIF8BGJi1reC8X8/wxbCa65nlEVZgBW2yWcHki93nOxTZUbr2BlCAvj5jgDw48dkHnYRjaLMEKYJQXVWTgDQKAAArzmqx7r92AafUZE1cMN5OQVEZzUtICAgiHDUMENICgAkMt2fwqBq++UpOgCA939/hi3QpA2SAingzOxkD4QxHSHFqdCnSj7D6Ns11Yj/+/nvf//L7yBau1BBWcr0q+oKCNXXNI7LT94VcVuhsKZ4V/l1HLlEQKB0hGVaBpT8KHyG1t5kKpHOIZSTnBacm5YTcc+hPkm7hw/9hJgfTNPhyzEd7UHZw1w/6/A9yKTyzEFk5vpY4WddRt2BPnPXynsVszd2yvnQuZP8mZz74dyLnLdHaEqZ/YU4cc84FccHoy8ikSPAjykqFjYlCRRgslcjRyRs3T7dvBg2XXElzrMTpR4RFRVCCjOn38qRahGdIgQAmXnxeefYHsGO3lZ3cd1PTS19+8Dltx+ywQmCRPWQXXp5TmmKMPWnqJBX03ZaezNcOMCEi7+/BjvZQLNBUQyajqP4yfs2+CnIL15AekXPLmeYcYJVy9uT8w4iR9V/PVjEVIan6JtY8bITEAlGt5r84aAHYbYPReYWFhYWFhY+G5iOeD05xfQtQEhlNzLlcD8OzTzG4bTjP8VZ+OdqVhN/XosXFhYWFha+IVT1sZvyB/o3Q4xf2/mzUb82+216ypOS7nTL0X6EcfR47SOPtxYWFhYWbvEg7rWwsPA3YhnrwsLCwsLCwsLCActBXFhYWFhYWFhYOGA5iAsLCwsLCwsLCwcsB3FhYWFh4RfC0oekzzI+CL6wsPA7YDmICwsLCwsLCwsLBywHcWFhYWFhYWFh4YDNckBP0ZSLsi2dziztpIQ7x/qCbk89u5yTyapTIp35Gxm+y1VBlmH+toH9JhMS0HRO9HoEZ0Ulom02t5vJmVOdzoq6ha2TMbxV2+wlvaUgKgZ8kjHCOrOVk7eDBynUDWELtyPYafRuSg0x2/352Aazsn3J5vexnB9h9/g66JRbaI4ECElAZhka1TM5A91r2q/DF7MLlLLLzN6kRjSXemdh4SOYXnoX+rApeHoyDUT0ZC59tthTAFVCxPnpCUG+9G7RQIFe020kwpTgeB6v1+srVwsKD6/bfLyIPnC4LUHfFrbvsgV6ALPBL+VI9GCueAZhMJ2ZSsT8ERAh6sEZPeTyOKZnrBPfIaatiPCcCdfpLofHHEuSvV1gpMLRM3tYzkPP3bpXvmELkdncRL/5s/CPHz8sa+W6VHLhC7CxMIo3tGPFRCTnoPSS2AdLBlpurvYn/2FmZja+ZpNIvVBi4sVJTmEpjlRJItwWeE+yKZzWb6+cwsKiqogvPyEScOTIUaq0kIdMRdUscMp7y5EBAH5ss5OUqIACIYEcYjytMSmDJSoghFr639dAYWERFr+c9QzOUctYtzjWkucL0sFCdLskbWkth6+lRVZV4Xterf6x1rEwicv9OtWjeegdy1LOwqxCQKqpgR7Cehw5DvrzhMjRbB8g2HCU4GXdllKbKa0wSMo2rXSXcuu2Pz9igyIqLEgonIJlHtpig1N2hJQa+EDOknHYOVfU/SksjF5NK7ws4/DsCyIimrIqc/CoytXxaqCqS47GLmKaqapTadpKunCVpp3WhdNsVqTIBnUj4R0sRXVnTmjxFRXbiqQc5YjadoVt3M3qbd1kYQpBRBERuqNZ04r65t5cJulbGhiY8oNVRVTJ4qPWLsdwoKKoiuqw8Jn2ed52kZJKQ3EspKSSieOsnKabVZf6sfens4EIoGkPc/IZxnLKnmRkizHWiUYGTLOD+H6/ASCEMPQUTw6iERLRlIMYY4wxvt/vEIJR9Z81F2fU2AEASXYQdegg7nKGLZDQhCMbOXI0kTbdWFyJwAOFd0z/1GLcfj5lkTGS7b1Npdo073l3uWh/EN+qx/zy4tz3HfQTENFa945vf8gz23zV3krOVvmTtPVeYpx3R7TYQotXq3+sdfEdfY1r1jPszz1uMRL1lqO/P0+wEdzeGxHZtmTfdN1lNrIHoZHj+/22ArdDf9sPH7FBYXnHd7HBsor3UdmgdwRNzn0ynJTTutQ+eOaKeu4VcTXqxEtUZhuYdj4i5lx4VOWkZtg4AnGa30rKq5pWSKYi1pFj5MiRPYvL1RyM462EtxAW2zUFnnhqX+y3sLueg6phKxcLc2SOLCocOVCwhaYv5Ik28ng9wjJwggDAMQIAhzCVzZlFOEZBQkRSox34CSKiShzTGDoZGVQ1ZhIcBYBqRGZrICECbEMhs9u0iXCMPCuniDBHjlEjiM83KCj96Wxg2AJHjpGZI1f66SG3ZsbIILAxs/9w2GdFEEXkeQRxxkEs7MpPjghiJSfLdRLpySmcoxfCyEbugQWf6vLHc5OVg3hc4I2kBFadsFhCOqsHJQTVdRCrCCJhHUF0OIiEJYLo75N6zUj1aG8mPTiIF6qhtHl7J9c+aXGpsUcQ2eUBf8hBLBHErqi3HP39eUIawYxWW3bDJFRMUXwVrZfeFm1dyWMbtABbscF6PR4QXmxwCOPyTE7rUhJyzhU2CaQhsAiiT9MKL7P6qQamVS1FEF3u2knNmtZHd1RyVFGZe4tSjxgUlrM5wPHB95B1ncp1QkjRQwNHjASkxB1tt5OjpDqUsKb19AlcwqEHx93dzNxGSeFcB62oonvsLiI/GYh6LESVHDtJiyFQNQpT7ETr8Ztuo/Wnt7wczGGWl6TFEP4Pc8s5/wKyZQ8AAAAASUVORK5CYII=;" vertex="1" parent="1">
          <mxGeometry x="962" y="-241" width="418.5" height="403" as="geometry" />
        </mxCell>
        <mxCell id="l_rsb31kOrhmw8Uxe1vl-74" value="" style="rounded=1;whiteSpace=wrap;html=1;" vertex="1" parent="1">
          <mxGeometry x="1052.002463768116" y="228.9972340425532" width="555.8467908902692" height="450.00000000000006" as="geometry" />
        </mxCell>
        <mxCell id="l_rsb31kOrhmw8Uxe1vl-57" value="客户端" style="rounded=0;whiteSpace=wrap;html=1;" vertex="1" parent="1">
          <mxGeometry x="1229.0249482401657" y="239.25659574468088" width="201.81159420289853" height="46.914893617021285" as="geometry" />
        </mxCell>
        <mxCell id="l_rsb31kOrhmw8Uxe1vl-58" value="" style="rounded=0;whiteSpace=wrap;html=1;" vertex="1" parent="1">
          <mxGeometry x="1120.6197101449275" y="327.2065957446809" width="418.6149068322982" height="232.6595744680851" as="geometry" />
        </mxCell>
        <mxCell id="l_rsb31kOrhmw8Uxe1vl-59" value="&lt;font style=&quot;font-size: 20px;&quot;&gt;核心服务&lt;/font&gt;" style="text;strokeColor=none;fillColor=none;html=1;fontSize=24;fontStyle=1;verticalAlign=middle;align=center;" vertex="1" parent="1">
          <mxGeometry x="1248.0528985507249" y="330.48659574468087" width="163.75569358178055" height="35.42553191489362" as="geometry" />
        </mxCell>
        <mxCell id="l_rsb31kOrhmw8Uxe1vl-60" value="连接/线程处理" style="rounded=0;whiteSpace=wrap;html=1;" vertex="1" parent="1">
          <mxGeometry x="1196.1503933747415" y="367.91446808510636" width="267.54451345755695" height="38.297872340425535" as="geometry" />
        </mxCell>
        <mxCell id="l_rsb31kOrhmw8Uxe1vl-61" value="查询缓存" style="rounded=0;whiteSpace=wrap;html=1;" vertex="1" parent="1">
          <mxGeometry x="1195.0003933747414" y="435.8057446808511" width="117.62732919254658" height="30.63829787234043" as="geometry" />
        </mxCell>
        <mxCell id="l_rsb31kOrhmw8Uxe1vl-73" value="" style="edgeStyle=orthogonalEdgeStyle;rounded=0;orthogonalLoop=1;jettySize=auto;html=1;" edge="1" parent="1" source="l_rsb31kOrhmw8Uxe1vl-62" target="l_rsb31kOrhmw8Uxe1vl-61">
          <mxGeometry relative="1" as="geometry" />
        </mxCell>
        <mxCell id="l_rsb31kOrhmw8Uxe1vl-62" value="解析器" style="rounded=0;whiteSpace=wrap;html=1;" vertex="1" parent="1">
          <mxGeometry x="1341.457950310559" y="435.8057446808511" width="123.39337474120083" height="30.63829787234043" as="geometry" />
        </mxCell>
        <mxCell id="l_rsb31kOrhmw8Uxe1vl-63" value="优化器" style="rounded=0;whiteSpace=wrap;html=1;" vertex="1" parent="1">
          <mxGeometry x="1195.0003933747414" y="494.21000000000004" width="269.85093167701865" height="52.65957446808511" as="geometry" />
        </mxCell>
        <mxCell id="l_rsb31kOrhmw8Uxe1vl-64" value="存储引擎" style="rounded=0;whiteSpace=wrap;html=1;" vertex="1" parent="1">
          <mxGeometry x="1122.3495238095238" y="591.2136170212767" width="415.1552795031056" height="49.7872340425532" as="geometry" />
        </mxCell>
        <mxCell id="l_rsb31kOrhmw8Uxe1vl-67" value="" style="endArrow=classic;html=1;rounded=0;exitX=0.5;exitY=1;exitDx=0;exitDy=0;entryX=0.5;entryY=0;entryDx=0;entryDy=0;" edge="1" parent="1" source="l_rsb31kOrhmw8Uxe1vl-57" target="l_rsb31kOrhmw8Uxe1vl-58">
          <mxGeometry width="50" height="50" relative="1" as="geometry">
            <mxPoint x="1308.580611352006" y="305.59297872340426" as="sourcePoint" />
            <mxPoint x="1271.1121946169774" y="345.80574468085103" as="targetPoint" />
          </mxGeometry>
        </mxCell>
        <mxCell id="l_rsb31kOrhmw8Uxe1vl-68" value="" style="endArrow=classic;html=1;rounded=0;exitX=0.5;exitY=1;exitDx=0;exitDy=0;" edge="1" parent="1">
          <mxGeometry width="50" height="50" relative="1" as="geometry">
            <mxPoint x="1376.9269979296068" y="287.4014893617021" as="sourcePoint" />
            <mxPoint x="1376.93" y="327.21" as="targetPoint" />
          </mxGeometry>
        </mxCell>
        <mxCell id="l_rsb31kOrhmw8Uxe1vl-69" value="" style="endArrow=classic;html=1;rounded=0;exitX=0.5;exitY=1;exitDx=0;exitDy=0;entryX=0.387;entryY=0.003;entryDx=0;entryDy=0;entryPerimeter=0;" edge="1" parent="1" target="l_rsb31kOrhmw8Uxe1vl-58">
          <mxGeometry width="50" height="50" relative="1" as="geometry">
            <mxPoint x="1282.6442857142858" y="287.4014893617021" as="sourcePoint" />
            <mxPoint x="1282.6442857142858" y="330.48659574468087" as="targetPoint" />
          </mxGeometry>
        </mxCell>
        <mxCell id="l_rsb31kOrhmw8Uxe1vl-70" value="" style="endArrow=classic;html=1;rounded=0;exitX=0.25;exitY=1;exitDx=0;exitDy=0;entryX=0.571;entryY=0.024;entryDx=0;entryDy=0;entryPerimeter=0;" edge="1" parent="1" source="l_rsb31kOrhmw8Uxe1vl-60" target="l_rsb31kOrhmw8Uxe1vl-61">
          <mxGeometry width="50" height="50" relative="1" as="geometry">
            <mxPoint x="1263.0397308488614" y="410.9121276595744" as="sourcePoint" />
            <mxPoint x="1263.0397308488614" y="453.9972340425532" as="targetPoint" />
          </mxGeometry>
        </mxCell>
        <mxCell id="l_rsb31kOrhmw8Uxe1vl-71" value="" style="endArrow=classic;html=1;rounded=0;exitX=0.25;exitY=1;exitDx=0;exitDy=0;entryX=0.571;entryY=0.024;entryDx=0;entryDy=0;entryPerimeter=0;" edge="1" parent="1">
          <mxGeometry width="50" height="50" relative="1" as="geometry">
            <mxPoint x="1396.8350517598344" y="407.08234042553187" as="sourcePoint" />
            <mxPoint x="1396.8350517598344" y="436.7631914893617" as="targetPoint" />
          </mxGeometry>
        </mxCell>
        <mxCell id="l_rsb31kOrhmw8Uxe1vl-72" value="" style="endArrow=classic;html=1;rounded=0;exitX=0.468;exitY=1.004;exitDx=0;exitDy=0;exitPerimeter=0;" edge="1" parent="1" source="l_rsb31kOrhmw8Uxe1vl-62">
          <mxGeometry width="50" height="50" relative="1" as="geometry">
            <mxPoint x="1399.1184057971016" y="471.2312765957447" as="sourcePoint" />
            <mxPoint x="1399.1184057971016" y="493.25255319148937" as="targetPoint" />
          </mxGeometry>
        </mxCell>
      </root>
    </mxGraphModel>
  </diagram>
</mxfile>
